M48
INCH,TZ
T1C0.0157
T2C0.0295
T3C0.0315
T4C0.0320
T5C0.0354
T6C0.0394
T7C0.0433
T8C0.0512
T9C0.0551
%
G90
G05
T1
X50477Y-28377
X53801Y-32063
X58049Y-34376
X64227Y-31848
X66486Y-31386
X69044Y-33605
T2
X59100Y-45047
X59250Y-42000
X59600Y-45047
X59750Y-42000
X60100Y-45047
X60250Y-42000
X61600Y-45047
X62100Y-45047
X62600Y-45047
T3
X37550Y-42750
X37550Y-44250
X41500Y-24050
X41550Y-42750
X41550Y-44250
X42484Y-24050
X43150Y-44250
X43250Y-42750
X44776Y-24050
X45760Y-24050
X47150Y-44250
X47250Y-42750
X49000Y-42750
X53000Y-42750
X53300Y-27116
X53300Y-29084
X53400Y-30800
X53400Y-33800
X53400Y-35000
X53400Y-38000
X53400Y-39024
X53400Y-40992
X54800Y-26700
X54800Y-29700
X54800Y-31416
X54800Y-33384
X54800Y-35031
X54800Y-37000
X54800Y-38600
X54800Y-41600
X55250Y-24750
X56400Y-27116
X56400Y-29084
X56400Y-30900
X56400Y-33900
X56400Y-35000
X56400Y-38000
X56400Y-39081
X56400Y-41050
X58250Y-24750
X59000Y-27500
X59000Y-28500
X59000Y-29500
X59000Y-30500
X59000Y-31500
X59000Y-32500
X59000Y-33500
X59000Y-34500
X62000Y-27500
X62000Y-28500
X62000Y-29500
X62000Y-30500
X62000Y-31500
X62000Y-32500
X62000Y-33500
X62000Y-34500
X72500Y-41500
X73000Y-34566
X73000Y-36534
X75500Y-41500
T4
X73000Y-43250
X73000Y-44250
X74000Y-43250
X74000Y-44250
X75000Y-43250
X75000Y-44250
T5
X72500Y-25826
X72500Y-26676
X72500Y-27526
X72500Y-28376
X72500Y-29526
X72500Y-30376
X72500Y-31226
X72500Y-32076
X73700Y-38602
X73700Y-39602
T6
X61000Y-23000
X61000Y-24000
X61000Y-25000
T7
X31700Y-28000
X31700Y-29000
X31700Y-30000
X31700Y-31000
X31700Y-32000
X31700Y-33000
X31700Y-34000
X31700Y-35000
X31700Y-36000
X31700Y-37000
X31700Y-38000
X31700Y-39000
X31700Y-40000
X31700Y-41000
X32700Y-38000
X32700Y-39000
X32700Y-41000
X33700Y-38000
X33700Y-39000
X33700Y-41000
X34700Y-38000
X34700Y-39000
X34700Y-41000
X35700Y-38000
X35700Y-39000
X35700Y-41000
X36700Y-29000
X36700Y-38000
X36700Y-39000
X36700Y-41000
X37700Y-28000
X37700Y-29000
X37700Y-30000
X37700Y-31000
X37700Y-32000
X37700Y-33000
X37700Y-34000
X37700Y-35000
X37700Y-36000
X37700Y-37000
X37700Y-38000
X37700Y-39000
X37700Y-40000
X37700Y-41000
X45000Y-27900
X45000Y-28900
X45000Y-29900
X45000Y-30900
X45000Y-31900
X45000Y-32900
X45000Y-33900
X45000Y-34900
X45000Y-35900
X45000Y-36900
X45000Y-37900
X45000Y-38900
X45000Y-39900
X45000Y-40900
X46000Y-37900
X46000Y-38900
X46000Y-40900
X47000Y-37900
X47000Y-38900
X47000Y-40900
X48000Y-37900
X48000Y-38900
X48000Y-40900
X49000Y-37900
X49000Y-38900
X49000Y-40900
X50000Y-28900
X50000Y-37900
X50000Y-38900
X50000Y-40900
X51000Y-27900
X51000Y-28900
X51000Y-29900
X51000Y-30900
X51000Y-31900
X51000Y-32900
X51000Y-33900
X51000Y-34900
X51000Y-35900
X51000Y-36900
X51000Y-37900
X51000Y-38900
X51000Y-39900
X51000Y-40900
X54650Y-44878
X55650Y-44878
X56650Y-44878
T8
X59766Y-36756
X59766Y-38724
X61734Y-37740
T9
X64500Y-24850
X64500Y-30500
X64500Y-38500
X64500Y-44000
X65484Y-22881
X65484Y-26819
X65484Y-28531
X65484Y-32469
X65484Y-36531
X65484Y-40469
X65484Y-42031
X65484Y-45969
X69500Y-22881
X69500Y-26819
X69500Y-28531
X69500Y-32469
X69500Y-36531
X69500Y-40469
X69500Y-42031
X69500Y-45969
X77321Y-28423
X77321Y-30392
X77321Y-32360
X77321Y-34329
X77321Y-36297
T0
M30
