G04 #@! TF.GenerationSoftware,KiCad,Pcbnew,5.99.0-unknown-ff9612b6da~131~ubuntu20.04.1*
G04 #@! TF.CreationDate,2021-08-29T13:57:06+09:00*
G04 #@! TF.ProjectId,Hyperwiper 2020 production prototype,48797065-7277-4697-9065-722032303230,V2.1.3*
G04 #@! TF.SameCoordinates,Original*
G04 #@! TF.FileFunction,Legend,Bot*
G04 #@! TF.FilePolarity,Positive*
%FSLAX46Y46*%
G04 Gerber Fmt 4.6, Leading zero omitted, Abs format (unit mm)*
G04 Created by KiCad (PCBNEW 5.99.0-unknown-ff9612b6da~131~ubuntu20.04.1) date 2021-08-29 13:57:06*
%MOMM*%
%LPD*%
G01*
G04 APERTURE LIST*
%ADD10C,0.300000*%
%ADD11C,0.200000*%
%ADD12C,0.150000*%
%ADD13C,0.120000*%
G04 APERTURE END LIST*
D10*
X191964428Y-76898537D02*
X190964428Y-76898537D01*
X192535857Y-77255680D02*
X191464428Y-77612823D01*
X191464428Y-76684252D01*
D11*
X123860476Y-118667595D02*
X123860476Y-117367595D01*
X123860476Y-117986642D02*
X123117619Y-117986642D01*
X123117619Y-118667595D02*
X123117619Y-117367595D01*
X122622380Y-117800928D02*
X122312857Y-118667595D01*
X122003333Y-117800928D02*
X122312857Y-118667595D01*
X122436666Y-118977119D01*
X122498571Y-119039023D01*
X122622380Y-119100928D01*
X121508095Y-117800928D02*
X121508095Y-119100928D01*
X121508095Y-117862833D02*
X121384285Y-117800928D01*
X121136666Y-117800928D01*
X121012857Y-117862833D01*
X120950952Y-117924738D01*
X120889047Y-118048547D01*
X120889047Y-118419976D01*
X120950952Y-118543785D01*
X121012857Y-118605690D01*
X121136666Y-118667595D01*
X121384285Y-118667595D01*
X121508095Y-118605690D01*
X119836666Y-118605690D02*
X119960476Y-118667595D01*
X120208095Y-118667595D01*
X120331904Y-118605690D01*
X120393809Y-118481880D01*
X120393809Y-117986642D01*
X120331904Y-117862833D01*
X120208095Y-117800928D01*
X119960476Y-117800928D01*
X119836666Y-117862833D01*
X119774761Y-117986642D01*
X119774761Y-118110452D01*
X120393809Y-118234261D01*
X119217619Y-118667595D02*
X119217619Y-117800928D01*
X119217619Y-118048547D02*
X119155714Y-117924738D01*
X119093809Y-117862833D01*
X118970000Y-117800928D01*
X118846190Y-117800928D01*
X118536666Y-117367595D02*
X118227142Y-118667595D01*
X117979523Y-117739023D01*
X117731904Y-118667595D01*
X117422380Y-117367595D01*
X116927142Y-118667595D02*
X116927142Y-117800928D01*
X116927142Y-117367595D02*
X116989047Y-117429500D01*
X116927142Y-117491404D01*
X116865238Y-117429500D01*
X116927142Y-117367595D01*
X116927142Y-117491404D01*
X116308095Y-117800928D02*
X116308095Y-119100928D01*
X116308095Y-117862833D02*
X116184285Y-117800928D01*
X115936666Y-117800928D01*
X115812857Y-117862833D01*
X115750952Y-117924738D01*
X115689047Y-118048547D01*
X115689047Y-118419976D01*
X115750952Y-118543785D01*
X115812857Y-118605690D01*
X115936666Y-118667595D01*
X116184285Y-118667595D01*
X116308095Y-118605690D01*
X114636666Y-118605690D02*
X114760476Y-118667595D01*
X115008095Y-118667595D01*
X115131904Y-118605690D01*
X115193809Y-118481880D01*
X115193809Y-117986642D01*
X115131904Y-117862833D01*
X115008095Y-117800928D01*
X114760476Y-117800928D01*
X114636666Y-117862833D01*
X114574761Y-117986642D01*
X114574761Y-118110452D01*
X115193809Y-118234261D01*
X114017619Y-118667595D02*
X114017619Y-117800928D01*
X114017619Y-118048547D02*
X113955714Y-117924738D01*
X113893809Y-117862833D01*
X113770000Y-117800928D01*
X113646190Y-117800928D01*
X112222380Y-118667595D02*
X112222380Y-117367595D01*
X111727142Y-117367595D01*
X111603333Y-117429500D01*
X111541428Y-117491404D01*
X111479523Y-117615214D01*
X111479523Y-117800928D01*
X111541428Y-117924738D01*
X111603333Y-117986642D01*
X111727142Y-118048547D01*
X112222380Y-118048547D01*
X110922380Y-118667595D02*
X110922380Y-117800928D01*
X110922380Y-118048547D02*
X110860476Y-117924738D01*
X110798571Y-117862833D01*
X110674761Y-117800928D01*
X110550952Y-117800928D01*
X109931904Y-118667595D02*
X110055714Y-118605690D01*
X110117619Y-118543785D01*
X110179523Y-118419976D01*
X110179523Y-118048547D01*
X110117619Y-117924738D01*
X110055714Y-117862833D01*
X109931904Y-117800928D01*
X109746190Y-117800928D01*
X109622380Y-117862833D01*
X109560476Y-117924738D01*
X109498571Y-118048547D01*
X109498571Y-118419976D01*
X109560476Y-118543785D01*
X109622380Y-118605690D01*
X109746190Y-118667595D01*
X109931904Y-118667595D01*
X109127142Y-117800928D02*
X108631904Y-117800928D01*
X108941428Y-117367595D02*
X108941428Y-118481880D01*
X108879523Y-118605690D01*
X108755714Y-118667595D01*
X108631904Y-118667595D01*
X108012857Y-118667595D02*
X108136666Y-118605690D01*
X108198571Y-118543785D01*
X108260476Y-118419976D01*
X108260476Y-118048547D01*
X108198571Y-117924738D01*
X108136666Y-117862833D01*
X108012857Y-117800928D01*
X107827142Y-117800928D01*
X107703333Y-117862833D01*
X107641428Y-117924738D01*
X107579523Y-118048547D01*
X107579523Y-118419976D01*
X107641428Y-118543785D01*
X107703333Y-118605690D01*
X107827142Y-118667595D01*
X108012857Y-118667595D01*
X107208095Y-117800928D02*
X106712857Y-117800928D01*
X107022380Y-117367595D02*
X107022380Y-118481880D01*
X106960476Y-118605690D01*
X106836666Y-118667595D01*
X106712857Y-118667595D01*
X106403333Y-117800928D02*
X106093809Y-118667595D01*
X105784285Y-117800928D02*
X106093809Y-118667595D01*
X106217619Y-118977119D01*
X106279523Y-119039023D01*
X106403333Y-119100928D01*
X105289047Y-117800928D02*
X105289047Y-119100928D01*
X105289047Y-117862833D02*
X105165238Y-117800928D01*
X104917619Y-117800928D01*
X104793809Y-117862833D01*
X104731904Y-117924738D01*
X104670000Y-118048547D01*
X104670000Y-118419976D01*
X104731904Y-118543785D01*
X104793809Y-118605690D01*
X104917619Y-118667595D01*
X105165238Y-118667595D01*
X105289047Y-118605690D01*
X103617619Y-118605690D02*
X103741428Y-118667595D01*
X103989047Y-118667595D01*
X104112857Y-118605690D01*
X104174761Y-118481880D01*
X104174761Y-117986642D01*
X104112857Y-117862833D01*
X103989047Y-117800928D01*
X103741428Y-117800928D01*
X103617619Y-117862833D01*
X103555714Y-117986642D01*
X103555714Y-118110452D01*
X104174761Y-118234261D01*
X100212857Y-117367595D02*
X99779523Y-118667595D01*
X99346190Y-117367595D01*
X98974761Y-117491404D02*
X98912857Y-117429500D01*
X98789047Y-117367595D01*
X98479523Y-117367595D01*
X98355714Y-117429500D01*
X98293809Y-117491404D01*
X98231904Y-117615214D01*
X98231904Y-117739023D01*
X98293809Y-117924738D01*
X99036666Y-118667595D01*
X98231904Y-118667595D01*
X97674761Y-118543785D02*
X97612857Y-118605690D01*
X97674761Y-118667595D01*
X97736666Y-118605690D01*
X97674761Y-118543785D01*
X97674761Y-118667595D01*
X96436666Y-117367595D02*
X97055714Y-117367595D01*
X97117619Y-117986642D01*
X97055714Y-117924738D01*
X96931904Y-117862833D01*
X96622380Y-117862833D01*
X96498571Y-117924738D01*
X96436666Y-117986642D01*
X96374761Y-118110452D01*
X96374761Y-118419976D01*
X96436666Y-118543785D01*
X96498571Y-118605690D01*
X96622380Y-118667595D01*
X96931904Y-118667595D01*
X97055714Y-118605690D01*
X97117619Y-118543785D01*
X95817619Y-118543785D02*
X95755714Y-118605690D01*
X95817619Y-118667595D01*
X95879523Y-118605690D01*
X95817619Y-118543785D01*
X95817619Y-118667595D01*
X94950952Y-117367595D02*
X94827142Y-117367595D01*
X94703333Y-117429500D01*
X94641428Y-117491404D01*
X94579523Y-117615214D01*
X94517619Y-117862833D01*
X94517619Y-118172357D01*
X94579523Y-118419976D01*
X94641428Y-118543785D01*
X94703333Y-118605690D01*
X94827142Y-118667595D01*
X94950952Y-118667595D01*
X95074761Y-118605690D01*
X95136666Y-118543785D01*
X95198571Y-118419976D01*
X95260476Y-118172357D01*
X95260476Y-117862833D01*
X95198571Y-117615214D01*
X95136666Y-117491404D01*
X95074761Y-117429500D01*
X94950952Y-117367595D01*
D10*
X192464428Y-82732502D02*
X192464428Y-81803930D01*
X191893000Y-82303930D01*
X191893000Y-82089644D01*
X191821571Y-81946787D01*
X191750142Y-81875359D01*
X191607285Y-81803930D01*
X191250142Y-81803930D01*
X191107285Y-81875359D01*
X191035857Y-81946787D01*
X190964428Y-82089644D01*
X190964428Y-82518216D01*
X191035857Y-82661073D01*
X191107285Y-82732502D01*
X190964428Y-91900430D02*
X190964428Y-92757573D01*
X190964428Y-92329002D02*
X192464428Y-92329002D01*
X192250142Y-92471859D01*
X192107285Y-92614716D01*
X192035857Y-92757573D01*
X192321571Y-87709323D02*
X192393000Y-87637894D01*
X192464428Y-87495037D01*
X192464428Y-87137894D01*
X192393000Y-86995037D01*
X192321571Y-86923609D01*
X192178714Y-86852180D01*
X192035857Y-86852180D01*
X191821571Y-86923609D01*
X190964428Y-87780752D01*
X190964428Y-86852180D01*
X192464428Y-71778859D02*
X192464428Y-72493144D01*
X191750142Y-72564573D01*
X191821571Y-72493144D01*
X191893000Y-72350287D01*
X191893000Y-71993144D01*
X191821571Y-71850287D01*
X191750142Y-71778859D01*
X191607285Y-71707430D01*
X191250142Y-71707430D01*
X191107285Y-71778859D01*
X191035857Y-71850287D01*
X190964428Y-71993144D01*
X190964428Y-72350287D01*
X191035857Y-72493144D01*
X191107285Y-72564573D01*
D12*
G04 #@! TO.C,U2*
X156932380Y-62738095D02*
X157741904Y-62738095D01*
X157837142Y-62785714D01*
X157884761Y-62833333D01*
X157932380Y-62928571D01*
X157932380Y-63119047D01*
X157884761Y-63214285D01*
X157837142Y-63261904D01*
X157741904Y-63309523D01*
X156932380Y-63309523D01*
X157027619Y-63738095D02*
X156980000Y-63785714D01*
X156932380Y-63880952D01*
X156932380Y-64119047D01*
X156980000Y-64214285D01*
X157027619Y-64261904D01*
X157122857Y-64309523D01*
X157218095Y-64309523D01*
X157360952Y-64261904D01*
X157932380Y-63690476D01*
X157932380Y-64309523D01*
D13*
X156340000Y-66280000D02*
X139580000Y-66280000D01*
X139580000Y-66280000D02*
X139580000Y-55620000D01*
X139580000Y-55620000D02*
X156340000Y-55620000D01*
X156340000Y-55620000D02*
X156340000Y-66270000D01*
G04 #@! TD*
M02*
