G04 #@! TF.GenerationSoftware,KiCad,Pcbnew,5.99.0-unknown-ff9612b6da~131~ubuntu20.04.1*
G04 #@! TF.CreationDate,2021-08-29T13:57:06+09:00*
G04 #@! TF.ProjectId,Hyperwiper 2020 production prototype,48797065-7277-4697-9065-722032303230,V2.1.3*
G04 #@! TF.SameCoordinates,Original*
G04 #@! TF.FileFunction,Soldermask,Bot*
G04 #@! TF.FilePolarity,Negative*
%FSLAX46Y46*%
G04 Gerber Fmt 4.6, Leading zero omitted, Abs format (unit mm)*
G04 Created by KiCad (PCBNEW 5.99.0-unknown-ff9612b6da~131~ubuntu20.04.1) date 2021-08-29 13:57:06*
%MOMM*%
%LPD*%
G01*
G04 APERTURE LIST*
%ADD10O,1.600000X1.600000*%
%ADD11R,1.600000X1.600000*%
%ADD12R,1.800000X1.800000*%
%ADD13C,1.800000*%
%ADD14C,1.600000*%
%ADD15C,2.100000*%
%ADD16R,2.800000X2.800000*%
%ADD17C,2.800000*%
%ADD18R,1.050000X1.500000*%
%ADD19O,1.050000X1.500000*%
%ADD20R,1.905000X2.000000*%
%ADD21O,1.905000X2.000000*%
%ADD22C,2.340000*%
%ADD23R,2.400000X1.600000*%
%ADD24O,2.400000X1.600000*%
%ADD25R,1.524000X1.524000*%
%ADD26C,1.524000*%
G04 APERTURE END LIST*
D10*
G04 #@! TO.C,D11*
X184150000Y-105410000D03*
D11*
X191770000Y-105410000D03*
G04 #@! TD*
D10*
G04 #@! TO.C,D10*
X147955000Y-62865000D03*
D11*
X140335000Y-62865000D03*
G04 #@! TD*
D12*
G04 #@! TO.C,D2*
X184150000Y-81472000D03*
D13*
X184150000Y-79313000D03*
X184150000Y-77154000D03*
X184150000Y-74995000D03*
G04 #@! TD*
D14*
G04 #@! TO.C,C7*
X139192000Y-93980000D03*
X139192000Y-88980000D03*
G04 #@! TD*
D15*
G04 #@! TO.C,RLY2*
X166330000Y-68119000D03*
X176530000Y-68119000D03*
X176530000Y-58119000D03*
X166330000Y-58119000D03*
X163830000Y-63119000D03*
G04 #@! TD*
D14*
G04 #@! TO.C,C9*
X139192000Y-84796000D03*
X139192000Y-79796000D03*
G04 #@! TD*
G04 #@! TO.C,R3*
X124460000Y-108585000D03*
D10*
X134620000Y-108585000D03*
G04 #@! TD*
D11*
G04 #@! TO.C,D9*
X139192000Y-67818000D03*
D10*
X139192000Y-75438000D03*
G04 #@! TD*
D11*
G04 #@! TO.C,D5*
X143256000Y-88900000D03*
D10*
X143256000Y-96520000D03*
G04 #@! TD*
D16*
G04 #@! TO.C,J1*
X196396000Y-92195500D03*
D17*
X196396000Y-87195500D03*
X196396000Y-82195500D03*
X196396000Y-77195500D03*
X196396000Y-72195500D03*
G04 #@! TD*
D14*
G04 #@! TO.C,R2*
X109601000Y-112395000D03*
D10*
X119761000Y-112395000D03*
G04 #@! TD*
D18*
G04 #@! TO.C,Q3*
X150114000Y-114418500D03*
D19*
X151384000Y-114418500D03*
X152654000Y-114418500D03*
G04 #@! TD*
D20*
G04 #@! TO.C,Q1*
X143891000Y-113990000D03*
D21*
X141351000Y-113990000D03*
X138811000Y-113990000D03*
G04 #@! TD*
D14*
G04 #@! TO.C,C5*
X135636000Y-104120000D03*
X135636000Y-99120000D03*
G04 #@! TD*
D15*
G04 #@! TO.C,RLY4*
X166330000Y-102790000D03*
X176530000Y-102790000D03*
X176530000Y-92790000D03*
X166330000Y-92790000D03*
X163830000Y-97790000D03*
G04 #@! TD*
D14*
G04 #@! TO.C,C4*
X143256000Y-104267000D03*
X143256000Y-99267000D03*
G04 #@! TD*
D18*
G04 #@! TO.C,Q2*
X156464000Y-114418500D03*
D19*
X157734000Y-114418500D03*
X159004000Y-114418500D03*
G04 #@! TD*
D22*
G04 #@! TO.C,RV1*
X151805000Y-98360000D03*
X156805000Y-95860000D03*
X151805000Y-93360000D03*
G04 #@! TD*
D23*
G04 #@! TO.C,RN1*
X149860000Y-69850000D03*
D24*
X149860000Y-72390000D03*
X149860000Y-74930000D03*
X149860000Y-77470000D03*
X149860000Y-80010000D03*
X149860000Y-82550000D03*
X149860000Y-85090000D03*
X149860000Y-87630000D03*
X157480000Y-87630000D03*
X157480000Y-85090000D03*
X157480000Y-82550000D03*
X157480000Y-80010000D03*
X157480000Y-77470000D03*
X157480000Y-74930000D03*
X157480000Y-72390000D03*
X157480000Y-69850000D03*
G04 #@! TD*
D14*
G04 #@! TO.C,C1*
X185420000Y-92797000D03*
X185420000Y-87797000D03*
G04 #@! TD*
D11*
G04 #@! TO.C,D7*
X143256000Y-78486000D03*
D10*
X143256000Y-86106000D03*
G04 #@! TD*
D11*
G04 #@! TO.C,D8*
X135636000Y-78232000D03*
D10*
X135636000Y-85852000D03*
G04 #@! TD*
D14*
G04 #@! TO.C,R4*
X95377000Y-112395000D03*
D10*
X105537000Y-112395000D03*
G04 #@! TD*
D11*
G04 #@! TO.C,C2*
X113729900Y-61087000D03*
D14*
X116229900Y-61087000D03*
G04 #@! TD*
G04 #@! TO.C,R5*
X95377000Y-108585000D03*
D10*
X105537000Y-108585000D03*
G04 #@! TD*
D14*
G04 #@! TO.C,U1*
X114300000Y-70866000D03*
X114300000Y-73406000D03*
X114300000Y-75946000D03*
X114300000Y-78486000D03*
X114300000Y-81026000D03*
X114300000Y-83566000D03*
X114300000Y-86106000D03*
X114300000Y-88646000D03*
X114300000Y-91186000D03*
X114300000Y-93726000D03*
X114300000Y-96266000D03*
X114300000Y-98806000D03*
X114300000Y-101346000D03*
X114300000Y-103886000D03*
X116840000Y-103886000D03*
X119380000Y-103886000D03*
X121920000Y-103886000D03*
X124460000Y-103886000D03*
X127000000Y-103886000D03*
X129540000Y-103886000D03*
X129540000Y-101346000D03*
X129540000Y-98806000D03*
X129540000Y-96266000D03*
X129540000Y-93726000D03*
X129540000Y-91186000D03*
X129540000Y-88646000D03*
X129540000Y-86106000D03*
X129540000Y-83566000D03*
X129540000Y-81026000D03*
X129540000Y-78486000D03*
X129540000Y-75946000D03*
X129540000Y-73406000D03*
X129540000Y-70866000D03*
X127000000Y-73406000D03*
X127000000Y-98806000D03*
X127000000Y-96266000D03*
X124460000Y-98806000D03*
X124460000Y-96266000D03*
X121920000Y-98806000D03*
X121920000Y-96266000D03*
X119380000Y-98806000D03*
X119380000Y-96266000D03*
X116840000Y-98806000D03*
X116840000Y-96266000D03*
G04 #@! TD*
G04 #@! TO.C,U3*
X80518000Y-71120000D03*
X80518000Y-73660000D03*
X80518000Y-76200000D03*
X80518000Y-78740000D03*
X80518000Y-81280000D03*
X80518000Y-83820000D03*
X80518000Y-86360000D03*
X80518000Y-88900000D03*
X80518000Y-91440000D03*
X80518000Y-93980000D03*
X80518000Y-96520000D03*
X80518000Y-99060000D03*
X80518000Y-101600000D03*
X80518000Y-104140000D03*
X83058000Y-104140000D03*
X85598000Y-104140000D03*
X88138000Y-104140000D03*
X90678000Y-104140000D03*
X93218000Y-104140000D03*
X95758000Y-104140000D03*
X95758000Y-101600000D03*
X95758000Y-99060000D03*
X95758000Y-96520000D03*
X95758000Y-93980000D03*
X95758000Y-91440000D03*
X95758000Y-88900000D03*
X95758000Y-86360000D03*
X95758000Y-83820000D03*
X95758000Y-81280000D03*
X95758000Y-78740000D03*
X95758000Y-76200000D03*
X95758000Y-73660000D03*
X95758000Y-71120000D03*
X93218000Y-73660000D03*
X93218000Y-99060000D03*
X93218000Y-96520000D03*
X90678000Y-99060000D03*
X90678000Y-96520000D03*
X88138000Y-99060000D03*
X88138000Y-96520000D03*
X85598000Y-99060000D03*
X85598000Y-96520000D03*
X83058000Y-99060000D03*
X83058000Y-96520000D03*
G04 #@! TD*
G04 #@! TO.C,R1*
X109855000Y-108585000D03*
D10*
X120015000Y-108585000D03*
G04 #@! TD*
D15*
G04 #@! TO.C,RLY3*
X166330000Y-82470000D03*
X176530000Y-82470000D03*
X176530000Y-72470000D03*
X166330000Y-72470000D03*
X163830000Y-77470000D03*
G04 #@! TD*
D18*
G04 #@! TO.C,Q4*
X150495000Y-106680000D03*
D19*
X151765000Y-106680000D03*
X153035000Y-106680000D03*
G04 #@! TD*
D11*
G04 #@! TO.C,D4*
X139192000Y-98044000D03*
D10*
X139192000Y-105664000D03*
G04 #@! TD*
D11*
G04 #@! TO.C,C3*
X105410000Y-61087000D03*
D14*
X107910000Y-61087000D03*
G04 #@! TD*
D25*
G04 #@! TO.C,SW1*
X185420000Y-112395000D03*
D26*
X187960000Y-112395000D03*
X190500000Y-112395000D03*
X190500000Y-109855000D03*
X187960000Y-109855000D03*
X185420000Y-109855000D03*
G04 #@! TD*
D14*
G04 #@! TO.C,C8*
X135382000Y-73874000D03*
X135382000Y-68874000D03*
G04 #@! TD*
G04 #@! TO.C,C6*
X143256000Y-73874000D03*
X143256000Y-68874000D03*
G04 #@! TD*
D12*
G04 #@! TO.C,D3*
X187198000Y-100589000D03*
D13*
X187198000Y-98049000D03*
G04 #@! TD*
D15*
G04 #@! TO.C,RLY1*
X166330000Y-116760000D03*
X176530000Y-116760000D03*
X176530000Y-106760000D03*
X166330000Y-106760000D03*
X163830000Y-111760000D03*
G04 #@! TD*
D12*
G04 #@! TO.C,D1*
X184150000Y-72074000D03*
D13*
X184150000Y-69915000D03*
X184150000Y-67756000D03*
X184150000Y-65597000D03*
G04 #@! TD*
D11*
G04 #@! TO.C,D6*
X135636000Y-88900000D03*
D10*
X135636000Y-96520000D03*
G04 #@! TD*
D12*
G04 #@! TO.C,U2*
X154940000Y-63500000D03*
D13*
X154940000Y-60960000D03*
X154940000Y-58420000D03*
G04 #@! TD*
M02*
