G04 #@! TF.GenerationSoftware,KiCad,Pcbnew,5.99.0-unknown-ff9612b6da~131~ubuntu20.04.1*
G04 #@! TF.CreationDate,2021-08-29T13:57:06+09:00*
G04 #@! TF.ProjectId,Hyperwiper 2020 production prototype,48797065-7277-4697-9065-722032303230,V2.1.3*
G04 #@! TF.SameCoordinates,Original*
G04 #@! TF.FileFunction,Profile,NP*
%FSLAX46Y46*%
G04 Gerber Fmt 4.6, Leading zero omitted, Abs format (unit mm)*
G04 Created by KiCad (PCBNEW 5.99.0-unknown-ff9612b6da~131~ubuntu20.04.1) date 2021-08-29 13:57:06*
%MOMM*%
%LPD*%
G01*
G04 APERTURE LIST*
G04 #@! TA.AperFunction,Profile*
%ADD10C,0.500000*%
G04 #@! TD*
G04 APERTURE END LIST*
D10*
X201095000Y-61915000D02*
X201095000Y-114165000D01*
X192345000Y-120915000D02*
X84095000Y-120915000D01*
X83845000Y-64915000D02*
X83845000Y-55165000D01*
X83845000Y-55165000D02*
X192595000Y-55165000D01*
X188165027Y-57844973D02*
G75*
G03*
X188165027Y-57844973I-1820027J0D01*
G01*
X77345000Y-108165000D02*
X77345000Y-67665000D01*
X77345000Y-67665000D02*
X81095000Y-67665000D01*
X195595000Y-61915000D02*
G75*
G02*
X192595000Y-58915000I0J3000000D01*
G01*
X81095000Y-108165000D02*
X77345000Y-108165000D01*
X92165027Y-57844973D02*
G75*
G03*
X92165027Y-57844973I-1820027J0D01*
G01*
X129165027Y-117915000D02*
G75*
G03*
X129165027Y-117915000I-1820027J0D01*
G01*
X188165027Y-117915000D02*
G75*
G03*
X188165027Y-117915000I-1820027J0D01*
G01*
X129165027Y-57844973D02*
G75*
G03*
X129165027Y-57844973I-1820027J0D01*
G01*
X83845000Y-64915000D02*
G75*
G02*
X81095000Y-67665000I-2750000J0D01*
G01*
X84095000Y-120915000D02*
X84095000Y-111165000D01*
X192595000Y-55165000D02*
X192595000Y-58915000D01*
X195595000Y-61915000D02*
X201095000Y-61915000D01*
X196095000Y-114165000D02*
G75*
G03*
X192345000Y-117915000I0J-3750000D01*
G01*
X92165027Y-117915000D02*
G75*
G03*
X92165027Y-117915000I-1820027J0D01*
G01*
X201095000Y-114165000D02*
X196095000Y-114165000D01*
X84095000Y-111165000D02*
G75*
G03*
X81095000Y-108165000I-3000000J0D01*
G01*
X192345000Y-117915000D02*
X192345000Y-120915000D01*
M02*
