G04 #@! TF.GenerationSoftware,KiCad,Pcbnew,5.99.0-unknown-50e22de3ba~95~ubuntu20.04.1*
G04 #@! TF.CreationDate,2021-01-21T20:42:25+09:00*
G04 #@! TF.ProjectId,Hyperwiper 2020 production prototype,48797065-7277-4697-9065-722032303230,rev?*
G04 #@! TF.SameCoordinates,Original*
G04 #@! TF.FileFunction,Soldermask,Top*
G04 #@! TF.FilePolarity,Negative*
%FSLAX46Y46*%
G04 Gerber Fmt 4.6, Leading zero omitted, Abs format (unit mm)*
G04 Created by KiCad (PCBNEW 5.99.0-unknown-50e22de3ba~95~ubuntu20.04.1) date 2021-01-21 20:42:25*
%MOMM*%
%LPD*%
G01*
G04 APERTURE LIST*
%ADD10R,1.800000X1.070000*%
%ADD11O,1.800000X1.070000*%
%ADD12C,1.600000*%
%ADD13O,1.600000X1.600000*%
%ADD14R,1.500000X1.050000*%
%ADD15O,1.500000X1.050000*%
%ADD16R,2.800000X2.800000*%
%ADD17C,2.800000*%
%ADD18R,2.000000X2.000000*%
%ADD19C,3.000000*%
%ADD20C,2.500000*%
%ADD21R,2.400000X2.400000*%
%ADD22C,2.400000*%
%ADD23C,1.727200*%
%ADD24O,2.400000X2.400000*%
%ADD25R,1.905000X2.000000*%
%ADD26O,1.905000X2.000000*%
%ADD27C,2.100000*%
%ADD28C,1.750000*%
%ADD29R,1.800000X1.800000*%
%ADD30C,1.800000*%
%ADD31C,2.340000*%
G04 APERTURE END LIST*
D10*
G04 #@! TO.C,D2*
X182000000Y-78250000D03*
D11*
X182000000Y-76980000D03*
X182000000Y-75710000D03*
X182000000Y-74440000D03*
G04 #@! TD*
D12*
G04 #@! TO.C,R5*
X112635000Y-77978000D03*
D13*
X112635000Y-88138000D03*
G04 #@! TD*
D12*
G04 #@! TO.C,R3*
X108966000Y-91948000D03*
D13*
X108966000Y-102108000D03*
G04 #@! TD*
D12*
G04 #@! TO.C,R4*
X116840000Y-77978000D03*
D13*
X116840000Y-88138000D03*
G04 #@! TD*
D14*
G04 #@! TO.C,Q1*
X181640000Y-88250000D03*
D15*
X181640000Y-89520000D03*
X181640000Y-90790000D03*
G04 #@! TD*
D16*
G04 #@! TO.C,J1*
X194250000Y-90250000D03*
D17*
X194250000Y-85250000D03*
X194250000Y-80250000D03*
X194250000Y-75250000D03*
X194250000Y-70250000D03*
G04 #@! TD*
D18*
G04 #@! TO.C,SW2*
X188560000Y-61250000D03*
X173440000Y-61250000D03*
G04 #@! TD*
D19*
G04 #@! TO.C,K2*
X173750000Y-72000000D03*
D20*
X171800000Y-65950000D03*
D19*
X159600000Y-65950000D03*
X159550000Y-78000000D03*
D20*
X171800000Y-77950000D03*
G04 #@! TD*
D12*
G04 #@! TO.C,C1*
X179500000Y-83750000D03*
X184500000Y-83750000D03*
G04 #@! TD*
D19*
G04 #@! TO.C,K1*
X173750000Y-98700000D03*
D20*
X171800000Y-92650000D03*
D19*
X159600000Y-92650000D03*
X159550000Y-104700000D03*
D20*
X171800000Y-104650000D03*
G04 #@! TD*
D21*
G04 #@! TO.C,C2*
X96325000Y-109750000D03*
D22*
X103825000Y-109750000D03*
G04 #@! TD*
D12*
G04 #@! TO.C,R7*
X112663000Y-74676000D03*
D13*
X112663000Y-64516000D03*
G04 #@! TD*
D12*
G04 #@! TO.C,R9*
X108585000Y-77978000D03*
D13*
X108585000Y-88138000D03*
G04 #@! TD*
D12*
G04 #@! TO.C,R8*
X116713000Y-74676000D03*
D13*
X116713000Y-64516000D03*
G04 #@! TD*
D12*
G04 #@! TO.C,U1*
X87130000Y-64990000D03*
X87130000Y-67530000D03*
X87130000Y-70070000D03*
X87130000Y-72610000D03*
X87130000Y-75150000D03*
X87130000Y-77690000D03*
X87130000Y-80230000D03*
X87130000Y-82770000D03*
X87130000Y-85310000D03*
X87130000Y-87850000D03*
X87130000Y-90390000D03*
X87130000Y-92930000D03*
X87130000Y-95470000D03*
X87130000Y-98010000D03*
X89670000Y-98010000D03*
X92210000Y-98010000D03*
X94750000Y-98010000D03*
X97290000Y-98010000D03*
X99830000Y-98010000D03*
X102370000Y-98010000D03*
X102370000Y-95470000D03*
X102370000Y-92930000D03*
X102370000Y-90390000D03*
X102370000Y-87850000D03*
X102370000Y-85310000D03*
X102370000Y-82770000D03*
X102370000Y-80230000D03*
X102370000Y-77690000D03*
X102370000Y-75150000D03*
X102370000Y-72610000D03*
X102370000Y-70070000D03*
X102370000Y-67530000D03*
X102370000Y-64990000D03*
X99830000Y-67530000D03*
X99830000Y-92930000D03*
X99830000Y-90390000D03*
X97290000Y-92930000D03*
X97290000Y-90390000D03*
X94750000Y-92930000D03*
X94750000Y-90390000D03*
X92210000Y-92930000D03*
X92210000Y-90390000D03*
X89670000Y-92930000D03*
X89670000Y-90390000D03*
G04 #@! TD*
D23*
G04 #@! TO.C,JP1*
X144424960Y-61076800D03*
X142423440Y-61076800D03*
X140424460Y-61076800D03*
X138422940Y-61076800D03*
X136423960Y-61076800D03*
X134424980Y-61076800D03*
X132423460Y-61076800D03*
X130424480Y-61076800D03*
X128422960Y-61076800D03*
X126423980Y-61076800D03*
X126423980Y-83073200D03*
X128422960Y-83073200D03*
X130424480Y-83073200D03*
X132423460Y-83073200D03*
X134424980Y-83073200D03*
X136423960Y-83073200D03*
X138422940Y-83073200D03*
X140424460Y-83073200D03*
X142423440Y-83073200D03*
X144424960Y-83073200D03*
G04 #@! TD*
D21*
G04 #@! TO.C,D4*
X168700000Y-61250000D03*
D24*
X153460000Y-61250000D03*
G04 #@! TD*
D12*
G04 #@! TO.C,R6*
X108458000Y-74676000D03*
D13*
X108458000Y-64516000D03*
G04 #@! TD*
D25*
G04 #@! TO.C,U3*
X171025000Y-84150000D03*
D26*
X168485000Y-84150000D03*
X165945000Y-84150000D03*
G04 #@! TD*
D21*
G04 #@! TO.C,C3*
X110225000Y-110300000D03*
D22*
X117725000Y-110300000D03*
G04 #@! TD*
D12*
G04 #@! TO.C,R1*
X112776000Y-102108000D03*
D13*
X112776000Y-91948000D03*
G04 #@! TD*
D27*
G04 #@! TO.C,SW1*
X197250000Y-99260000D03*
X190240000Y-99260000D03*
D28*
X196000000Y-101750000D03*
X191500000Y-101750000D03*
G04 #@! TD*
D29*
G04 #@! TO.C,D3*
X180725000Y-97750000D03*
D30*
X183265000Y-97750000D03*
G04 #@! TD*
D10*
G04 #@! TO.C,D1*
X182000000Y-69750000D03*
D11*
X182000000Y-68480000D03*
X182000000Y-67210000D03*
X182000000Y-65940000D03*
G04 #@! TD*
D23*
G04 #@! TO.C,JP2*
X144424960Y-89351800D03*
X142423440Y-89351800D03*
X140424460Y-89351800D03*
X138422940Y-89351800D03*
X136423960Y-89351800D03*
X134424980Y-89351800D03*
X132423460Y-89351800D03*
X130424480Y-89351800D03*
X128422960Y-89351800D03*
X126423980Y-89351800D03*
X126423980Y-111348200D03*
X128422960Y-111348200D03*
X130424480Y-111348200D03*
X132423460Y-111348200D03*
X134424980Y-111348200D03*
X136423960Y-111348200D03*
X138422940Y-111348200D03*
X140424460Y-111348200D03*
X142423440Y-111348200D03*
X144424960Y-111348200D03*
G04 #@! TD*
D31*
G04 #@! TO.C,RV1*
X152268000Y-82460000D03*
X157268000Y-84960000D03*
X152268000Y-87460000D03*
G04 #@! TD*
M02*
