G04 #@! TF.GenerationSoftware,KiCad,Pcbnew,5.99.0-unknown-50e22de3ba~95~ubuntu20.04.1*
G04 #@! TF.CreationDate,2021-01-21T20:42:24+09:00*
G04 #@! TF.ProjectId,Hyperwiper 2020 production prototype,48797065-7277-4697-9065-722032303230,rev?*
G04 #@! TF.SameCoordinates,Original*
G04 #@! TF.FileFunction,Legend,Top*
G04 #@! TF.FilePolarity,Positive*
%FSLAX46Y46*%
G04 Gerber Fmt 4.6, Leading zero omitted, Abs format (unit mm)*
G04 Created by KiCad (PCBNEW 5.99.0-unknown-50e22de3ba~95~ubuntu20.04.1) date 2021-01-21 20:42:24*
%MOMM*%
%LPD*%
G01*
G04 APERTURE LIST*
%ADD10C,0.300000*%
%ADD11C,0.150000*%
%ADD12C,0.127000*%
%ADD13C,0.152400*%
%ADD14C,0.120000*%
%ADD15C,0.100000*%
%ADD16C,0.203200*%
G04 APERTURE END LIST*
D10*
X152689285Y-112203571D02*
X152689285Y-110703571D01*
X152689285Y-111417857D02*
X153546428Y-111417857D01*
X153546428Y-112203571D02*
X153546428Y-110703571D01*
X154117857Y-111203571D02*
X154475000Y-112203571D01*
X154832142Y-111203571D02*
X154475000Y-112203571D01*
X154332142Y-112560714D01*
X154260714Y-112632142D01*
X154117857Y-112703571D01*
X155403571Y-111203571D02*
X155403571Y-112703571D01*
X155403571Y-111275000D02*
X155546428Y-111203571D01*
X155832142Y-111203571D01*
X155975000Y-111275000D01*
X156046428Y-111346428D01*
X156117857Y-111489285D01*
X156117857Y-111917857D01*
X156046428Y-112060714D01*
X155975000Y-112132142D01*
X155832142Y-112203571D01*
X155546428Y-112203571D01*
X155403571Y-112132142D01*
X157332142Y-112132142D02*
X157189285Y-112203571D01*
X156903571Y-112203571D01*
X156760714Y-112132142D01*
X156689285Y-111989285D01*
X156689285Y-111417857D01*
X156760714Y-111275000D01*
X156903571Y-111203571D01*
X157189285Y-111203571D01*
X157332142Y-111275000D01*
X157403571Y-111417857D01*
X157403571Y-111560714D01*
X156689285Y-111703571D01*
X158046428Y-112203571D02*
X158046428Y-111203571D01*
X158046428Y-111489285D02*
X158117857Y-111346428D01*
X158189285Y-111275000D01*
X158332142Y-111203571D01*
X158475000Y-111203571D01*
X158832142Y-110703571D02*
X159189285Y-112203571D01*
X159475000Y-111132142D01*
X159760714Y-112203571D01*
X160117857Y-110703571D01*
X160689285Y-112203571D02*
X160689285Y-111203571D01*
X160689285Y-110703571D02*
X160617857Y-110775000D01*
X160689285Y-110846428D01*
X160760714Y-110775000D01*
X160689285Y-110703571D01*
X160689285Y-110846428D01*
X161403571Y-111203571D02*
X161403571Y-112703571D01*
X161403571Y-111275000D02*
X161546428Y-111203571D01*
X161832142Y-111203571D01*
X161975000Y-111275000D01*
X162046428Y-111346428D01*
X162117857Y-111489285D01*
X162117857Y-111917857D01*
X162046428Y-112060714D01*
X161975000Y-112132142D01*
X161832142Y-112203571D01*
X161546428Y-112203571D01*
X161403571Y-112132142D01*
X163332142Y-112132142D02*
X163189285Y-112203571D01*
X162903571Y-112203571D01*
X162760714Y-112132142D01*
X162689285Y-111989285D01*
X162689285Y-111417857D01*
X162760714Y-111275000D01*
X162903571Y-111203571D01*
X163189285Y-111203571D01*
X163332142Y-111275000D01*
X163403571Y-111417857D01*
X163403571Y-111560714D01*
X162689285Y-111703571D01*
X164046428Y-112203571D02*
X164046428Y-111203571D01*
X164046428Y-111489285D02*
X164117857Y-111346428D01*
X164189285Y-111275000D01*
X164332142Y-111203571D01*
X164475000Y-111203571D01*
X164975000Y-112203571D02*
X164975000Y-110703571D01*
X165546428Y-110703571D01*
X165689285Y-110775000D01*
X165760714Y-110846428D01*
X165832142Y-110989285D01*
X165832142Y-111203571D01*
X165760714Y-111346428D01*
X165689285Y-111417857D01*
X165546428Y-111489285D01*
X164975000Y-111489285D01*
X166475000Y-112203571D02*
X166475000Y-111203571D01*
X166475000Y-111489285D02*
X166546428Y-111346428D01*
X166617857Y-111275000D01*
X166760714Y-111203571D01*
X166903571Y-111203571D01*
X167617857Y-112203571D02*
X167475000Y-112132142D01*
X167403571Y-112060714D01*
X167332142Y-111917857D01*
X167332142Y-111489285D01*
X167403571Y-111346428D01*
X167475000Y-111275000D01*
X167617857Y-111203571D01*
X167832142Y-111203571D01*
X167975000Y-111275000D01*
X168046428Y-111346428D01*
X168117857Y-111489285D01*
X168117857Y-111917857D01*
X168046428Y-112060714D01*
X167975000Y-112132142D01*
X167832142Y-112203571D01*
X167617857Y-112203571D01*
X168546428Y-111203571D02*
X169117857Y-111203571D01*
X168760714Y-110703571D02*
X168760714Y-111989285D01*
X168832142Y-112132142D01*
X168975000Y-112203571D01*
X169117857Y-112203571D01*
X169832142Y-112203571D02*
X169689285Y-112132142D01*
X169617857Y-112060714D01*
X169546428Y-111917857D01*
X169546428Y-111489285D01*
X169617857Y-111346428D01*
X169689285Y-111275000D01*
X169832142Y-111203571D01*
X170046428Y-111203571D01*
X170189285Y-111275000D01*
X170260714Y-111346428D01*
X170332142Y-111489285D01*
X170332142Y-111917857D01*
X170260714Y-112060714D01*
X170189285Y-112132142D01*
X170046428Y-112203571D01*
X169832142Y-112203571D01*
X170760714Y-111203571D02*
X171332142Y-111203571D01*
X170975000Y-110703571D02*
X170975000Y-111989285D01*
X171046428Y-112132142D01*
X171189285Y-112203571D01*
X171332142Y-112203571D01*
X171689285Y-111203571D02*
X172046428Y-112203571D01*
X172403571Y-111203571D02*
X172046428Y-112203571D01*
X171903571Y-112560714D01*
X171832142Y-112632142D01*
X171689285Y-112703571D01*
X172975000Y-111203571D02*
X172975000Y-112703571D01*
X172975000Y-111275000D02*
X173117857Y-111203571D01*
X173403571Y-111203571D01*
X173546428Y-111275000D01*
X173617857Y-111346428D01*
X173689285Y-111489285D01*
X173689285Y-111917857D01*
X173617857Y-112060714D01*
X173546428Y-112132142D01*
X173403571Y-112203571D01*
X173117857Y-112203571D01*
X172975000Y-112132142D01*
X174903571Y-112132142D02*
X174760714Y-112203571D01*
X174475000Y-112203571D01*
X174332142Y-112132142D01*
X174260714Y-111989285D01*
X174260714Y-111417857D01*
X174332142Y-111275000D01*
X174475000Y-111203571D01*
X174760714Y-111203571D01*
X174903571Y-111275000D01*
X174975000Y-111417857D01*
X174975000Y-111560714D01*
X174260714Y-111703571D01*
X178832142Y-110703571D02*
X179332142Y-112203571D01*
X179832142Y-110703571D01*
X180260714Y-110846428D02*
X180332142Y-110775000D01*
X180475000Y-110703571D01*
X180832142Y-110703571D01*
X180975000Y-110775000D01*
X181046428Y-110846428D01*
X181117857Y-110989285D01*
X181117857Y-111132142D01*
X181046428Y-111346428D01*
X180189285Y-112203571D01*
X181117857Y-112203571D01*
X181760714Y-112060714D02*
X181832142Y-112132142D01*
X181760714Y-112203571D01*
X181689285Y-112132142D01*
X181760714Y-112060714D01*
X181760714Y-112203571D01*
X183260714Y-112203571D02*
X182403571Y-112203571D01*
X182832142Y-112203571D02*
X182832142Y-110703571D01*
X182689285Y-110917857D01*
X182546428Y-111060714D01*
X182403571Y-111132142D01*
X183903571Y-112060714D02*
X183975000Y-112132142D01*
X183903571Y-112203571D01*
X183832142Y-112132142D01*
X183903571Y-112060714D01*
X183903571Y-112203571D01*
X184903571Y-110703571D02*
X185046428Y-110703571D01*
X185189285Y-110775000D01*
X185260714Y-110846428D01*
X185332142Y-110989285D01*
X185403571Y-111275000D01*
X185403571Y-111632142D01*
X185332142Y-111917857D01*
X185260714Y-112060714D01*
X185189285Y-112132142D01*
X185046428Y-112203571D01*
X184903571Y-112203571D01*
X184760714Y-112132142D01*
X184689285Y-112060714D01*
X184617857Y-111917857D01*
X184546428Y-111632142D01*
X184546428Y-111275000D01*
X184617857Y-110989285D01*
X184689285Y-110846428D01*
X184760714Y-110775000D01*
X184903571Y-110703571D01*
D11*
G04 #@! TO.C,D2*
X181007904Y-72733380D02*
X181007904Y-71733380D01*
X181246000Y-71733380D01*
X181388857Y-71781000D01*
X181484095Y-71876238D01*
X181531714Y-71971476D01*
X181579333Y-72161952D01*
X181579333Y-72304809D01*
X181531714Y-72495285D01*
X181484095Y-72590523D01*
X181388857Y-72685761D01*
X181246000Y-72733380D01*
X181007904Y-72733380D01*
X181960285Y-71828619D02*
X182007904Y-71781000D01*
X182103142Y-71733380D01*
X182341238Y-71733380D01*
X182436476Y-71781000D01*
X182484095Y-71828619D01*
X182531714Y-71923857D01*
X182531714Y-72019095D01*
X182484095Y-72161952D01*
X181912666Y-72733380D01*
X182531714Y-72733380D01*
X180256000Y-81117428D02*
X180363142Y-81153142D01*
X180398857Y-81188857D01*
X180434571Y-81260285D01*
X180434571Y-81367428D01*
X180398857Y-81438857D01*
X180363142Y-81474571D01*
X180291714Y-81510285D01*
X180006000Y-81510285D01*
X180006000Y-80760285D01*
X180256000Y-80760285D01*
X180327428Y-80796000D01*
X180363142Y-80831714D01*
X180398857Y-80903142D01*
X180398857Y-80974571D01*
X180363142Y-81046000D01*
X180327428Y-81081714D01*
X180256000Y-81117428D01*
X180006000Y-81117428D01*
X181041714Y-81474571D02*
X180970285Y-81510285D01*
X180827428Y-81510285D01*
X180756000Y-81474571D01*
X180720285Y-81403142D01*
X180720285Y-81117428D01*
X180756000Y-81046000D01*
X180827428Y-81010285D01*
X180970285Y-81010285D01*
X181041714Y-81046000D01*
X181077428Y-81117428D01*
X181077428Y-81188857D01*
X180720285Y-81260285D01*
X181720285Y-81510285D02*
X181720285Y-81117428D01*
X181684571Y-81046000D01*
X181613142Y-81010285D01*
X181470285Y-81010285D01*
X181398857Y-81046000D01*
X181720285Y-81474571D02*
X181648857Y-81510285D01*
X181470285Y-81510285D01*
X181398857Y-81474571D01*
X181363142Y-81403142D01*
X181363142Y-81331714D01*
X181398857Y-81260285D01*
X181470285Y-81224571D01*
X181648857Y-81224571D01*
X181720285Y-81188857D01*
X181970285Y-81010285D02*
X182256000Y-81010285D01*
X182077428Y-80760285D02*
X182077428Y-81403142D01*
X182113142Y-81474571D01*
X182184571Y-81510285D01*
X182256000Y-81510285D01*
X183434571Y-81510285D02*
X183077428Y-81510285D01*
X183077428Y-80760285D01*
X183684571Y-81117428D02*
X183934571Y-81117428D01*
X184041714Y-81510285D02*
X183684571Y-81510285D01*
X183684571Y-80760285D01*
X184041714Y-80760285D01*
X184363142Y-81510285D02*
X184363142Y-80760285D01*
X184541714Y-80760285D01*
X184648857Y-80796000D01*
X184720285Y-80867428D01*
X184756000Y-80938857D01*
X184791714Y-81081714D01*
X184791714Y-81188857D01*
X184756000Y-81331714D01*
X184720285Y-81403142D01*
X184648857Y-81474571D01*
X184541714Y-81510285D01*
X184363142Y-81510285D01*
G04 #@! TO.C,R5*
X115020285Y-80668000D02*
X114663142Y-80918000D01*
X115020285Y-81096571D02*
X114270285Y-81096571D01*
X114270285Y-80810857D01*
X114306000Y-80739428D01*
X114341714Y-80703714D01*
X114413142Y-80668000D01*
X114520285Y-80668000D01*
X114591714Y-80703714D01*
X114627428Y-80739428D01*
X114663142Y-80810857D01*
X114663142Y-81096571D01*
X114270285Y-79989428D02*
X114270285Y-80346571D01*
X114627428Y-80382285D01*
X114591714Y-80346571D01*
X114556000Y-80275142D01*
X114556000Y-80096571D01*
X114591714Y-80025142D01*
X114627428Y-79989428D01*
X114698857Y-79953714D01*
X114877428Y-79953714D01*
X114948857Y-79989428D01*
X114984571Y-80025142D01*
X115020285Y-80096571D01*
X115020285Y-80275142D01*
X114984571Y-80346571D01*
X114948857Y-80382285D01*
X114841714Y-83781571D02*
X114341714Y-83781571D01*
X115127428Y-83603000D02*
X114591714Y-83424428D01*
X114591714Y-83888714D01*
X115091714Y-84103000D02*
X115091714Y-84603000D01*
X114341714Y-84281571D01*
X115091714Y-85031571D02*
X115091714Y-85103000D01*
X115056000Y-85174428D01*
X115020285Y-85210142D01*
X114948857Y-85245857D01*
X114806000Y-85281571D01*
X114627428Y-85281571D01*
X114484571Y-85245857D01*
X114413142Y-85210142D01*
X114377428Y-85174428D01*
X114341714Y-85103000D01*
X114341714Y-85031571D01*
X114377428Y-84960142D01*
X114413142Y-84924428D01*
X114484571Y-84888714D01*
X114627428Y-84853000D01*
X114806000Y-84853000D01*
X114948857Y-84888714D01*
X115020285Y-84924428D01*
X115056000Y-84960142D01*
X115091714Y-85031571D01*
G04 #@! TO.C,R3*
X111845285Y-94613000D02*
X111488142Y-94863000D01*
X111845285Y-95041571D02*
X111095285Y-95041571D01*
X111095285Y-94755857D01*
X111131000Y-94684428D01*
X111166714Y-94648714D01*
X111238142Y-94613000D01*
X111345285Y-94613000D01*
X111416714Y-94648714D01*
X111452428Y-94684428D01*
X111488142Y-94755857D01*
X111488142Y-95041571D01*
X111095285Y-94363000D02*
X111095285Y-93898714D01*
X111381000Y-94148714D01*
X111381000Y-94041571D01*
X111416714Y-93970142D01*
X111452428Y-93934428D01*
X111523857Y-93898714D01*
X111702428Y-93898714D01*
X111773857Y-93934428D01*
X111809571Y-93970142D01*
X111845285Y-94041571D01*
X111845285Y-94255857D01*
X111809571Y-94327285D01*
X111773857Y-94363000D01*
X111345285Y-98869428D02*
X111845285Y-98869428D01*
X111059571Y-99048000D02*
X111595285Y-99226571D01*
X111595285Y-98762285D01*
X111095285Y-98548000D02*
X111095285Y-98048000D01*
X111845285Y-98369428D01*
X111095285Y-97619428D02*
X111095285Y-97548000D01*
X111131000Y-97476571D01*
X111166714Y-97440857D01*
X111238142Y-97405142D01*
X111381000Y-97369428D01*
X111559571Y-97369428D01*
X111702428Y-97405142D01*
X111773857Y-97440857D01*
X111809571Y-97476571D01*
X111845285Y-97548000D01*
X111845285Y-97619428D01*
X111809571Y-97690857D01*
X111773857Y-97726571D01*
X111702428Y-97762285D01*
X111559571Y-97798000D01*
X111381000Y-97798000D01*
X111238142Y-97762285D01*
X111166714Y-97726571D01*
X111131000Y-97690857D01*
X111095285Y-97619428D01*
G04 #@! TO.C,R4*
X119719285Y-80668000D02*
X119362142Y-80918000D01*
X119719285Y-81096571D02*
X118969285Y-81096571D01*
X118969285Y-80810857D01*
X119005000Y-80739428D01*
X119040714Y-80703714D01*
X119112142Y-80668000D01*
X119219285Y-80668000D01*
X119290714Y-80703714D01*
X119326428Y-80739428D01*
X119362142Y-80810857D01*
X119362142Y-81096571D01*
X119219285Y-80025142D02*
X119719285Y-80025142D01*
X118933571Y-80203714D02*
X119469285Y-80382285D01*
X119469285Y-79918000D01*
X119540714Y-83781571D02*
X119040714Y-83781571D01*
X119826428Y-83603000D02*
X119290714Y-83424428D01*
X119290714Y-83888714D01*
X119790714Y-84103000D02*
X119790714Y-84603000D01*
X119040714Y-84281571D01*
X119790714Y-85031571D02*
X119790714Y-85103000D01*
X119755000Y-85174428D01*
X119719285Y-85210142D01*
X119647857Y-85245857D01*
X119505000Y-85281571D01*
X119326428Y-85281571D01*
X119183571Y-85245857D01*
X119112142Y-85210142D01*
X119076428Y-85174428D01*
X119040714Y-85103000D01*
X119040714Y-85031571D01*
X119076428Y-84960142D01*
X119112142Y-84924428D01*
X119183571Y-84888714D01*
X119326428Y-84853000D01*
X119505000Y-84853000D01*
X119647857Y-84888714D01*
X119719285Y-84924428D01*
X119755000Y-84960142D01*
X119790714Y-85031571D01*
G04 #@! TO.C,Q1*
X185610714Y-89591428D02*
X185575000Y-89662857D01*
X185503571Y-89734285D01*
X185396428Y-89841428D01*
X185360714Y-89912857D01*
X185360714Y-89984285D01*
X185539285Y-89948571D02*
X185503571Y-90020000D01*
X185432142Y-90091428D01*
X185289285Y-90127142D01*
X185039285Y-90127142D01*
X184896428Y-90091428D01*
X184825000Y-90020000D01*
X184789285Y-89948571D01*
X184789285Y-89805714D01*
X184825000Y-89734285D01*
X184896428Y-89662857D01*
X185039285Y-89627142D01*
X185289285Y-89627142D01*
X185432142Y-89662857D01*
X185503571Y-89734285D01*
X185539285Y-89805714D01*
X185539285Y-89948571D01*
X185539285Y-88912857D02*
X185539285Y-89341428D01*
X185539285Y-89127142D02*
X184789285Y-89127142D01*
X184896428Y-89198571D01*
X184967857Y-89270000D01*
X185003571Y-89341428D01*
X179189285Y-91859285D02*
X178439285Y-91859285D01*
X178439285Y-91573571D01*
X178475000Y-91502142D01*
X178510714Y-91466428D01*
X178582142Y-91430714D01*
X178689285Y-91430714D01*
X178760714Y-91466428D01*
X178796428Y-91502142D01*
X178832142Y-91573571D01*
X178832142Y-91859285D01*
X179189285Y-91109285D02*
X178439285Y-91109285D01*
X179189285Y-90680714D01*
X178439285Y-90680714D01*
X178510714Y-90359285D02*
X178475000Y-90323571D01*
X178439285Y-90252142D01*
X178439285Y-90073571D01*
X178475000Y-90002142D01*
X178510714Y-89966428D01*
X178582142Y-89930714D01*
X178653571Y-89930714D01*
X178760714Y-89966428D01*
X179189285Y-90395000D01*
X179189285Y-89930714D01*
X178510714Y-89645000D02*
X178475000Y-89609285D01*
X178439285Y-89537857D01*
X178439285Y-89359285D01*
X178475000Y-89287857D01*
X178510714Y-89252142D01*
X178582142Y-89216428D01*
X178653571Y-89216428D01*
X178760714Y-89252142D01*
X179189285Y-89680714D01*
X179189285Y-89216428D01*
X178510714Y-88930714D02*
X178475000Y-88895000D01*
X178439285Y-88823571D01*
X178439285Y-88645000D01*
X178475000Y-88573571D01*
X178510714Y-88537857D01*
X178582142Y-88502142D01*
X178653571Y-88502142D01*
X178760714Y-88537857D01*
X179189285Y-88966428D01*
X179189285Y-88502142D01*
X178510714Y-88216428D02*
X178475000Y-88180714D01*
X178439285Y-88109285D01*
X178439285Y-87930714D01*
X178475000Y-87859285D01*
X178510714Y-87823571D01*
X178582142Y-87787857D01*
X178653571Y-87787857D01*
X178760714Y-87823571D01*
X179189285Y-88252142D01*
X179189285Y-87787857D01*
X178975000Y-87502142D02*
X178975000Y-87145000D01*
X179189285Y-87573571D02*
X178439285Y-87323571D01*
X179189285Y-87073571D01*
X185610714Y-89591428D02*
X185575000Y-89662857D01*
X185503571Y-89734285D01*
X185396428Y-89841428D01*
X185360714Y-89912857D01*
X185360714Y-89984285D01*
X185539285Y-89948571D02*
X185503571Y-90020000D01*
X185432142Y-90091428D01*
X185289285Y-90127142D01*
X185039285Y-90127142D01*
X184896428Y-90091428D01*
X184825000Y-90020000D01*
X184789285Y-89948571D01*
X184789285Y-89805714D01*
X184825000Y-89734285D01*
X184896428Y-89662857D01*
X185039285Y-89627142D01*
X185289285Y-89627142D01*
X185432142Y-89662857D01*
X185503571Y-89734285D01*
X185539285Y-89805714D01*
X185539285Y-89948571D01*
X185539285Y-88912857D02*
X185539285Y-89341428D01*
X185539285Y-89127142D02*
X184789285Y-89127142D01*
X184896428Y-89198571D01*
X184967857Y-89270000D01*
X185003571Y-89341428D01*
G04 #@! TO.C,J1*
X186142380Y-80583333D02*
X186856666Y-80583333D01*
X186999523Y-80630952D01*
X187094761Y-80726190D01*
X187142380Y-80869047D01*
X187142380Y-80964285D01*
X187142380Y-79583333D02*
X187142380Y-80154761D01*
X187142380Y-79869047D02*
X186142380Y-79869047D01*
X186285238Y-79964285D01*
X186380476Y-80059523D01*
X186428095Y-80154761D01*
G04 #@! TO.C,SW2*
X179666666Y-59404761D02*
X179809523Y-59452380D01*
X180047619Y-59452380D01*
X180142857Y-59404761D01*
X180190476Y-59357142D01*
X180238095Y-59261904D01*
X180238095Y-59166666D01*
X180190476Y-59071428D01*
X180142857Y-59023809D01*
X180047619Y-58976190D01*
X179857142Y-58928571D01*
X179761904Y-58880952D01*
X179714285Y-58833333D01*
X179666666Y-58738095D01*
X179666666Y-58642857D01*
X179714285Y-58547619D01*
X179761904Y-58500000D01*
X179857142Y-58452380D01*
X180095238Y-58452380D01*
X180238095Y-58500000D01*
X180571428Y-58452380D02*
X180809523Y-59452380D01*
X181000000Y-58738095D01*
X181190476Y-59452380D01*
X181428571Y-58452380D01*
X181761904Y-58547619D02*
X181809523Y-58500000D01*
X181904761Y-58452380D01*
X182142857Y-58452380D01*
X182238095Y-58500000D01*
X182285714Y-58547619D01*
X182333333Y-58642857D01*
X182333333Y-58738095D01*
X182285714Y-58880952D01*
X181714285Y-59452380D01*
X182333333Y-59452380D01*
G04 #@! TO.C,K2*
X155289428Y-81356285D02*
X155289428Y-80606285D01*
X155718000Y-81356285D02*
X155396571Y-80927714D01*
X155718000Y-80606285D02*
X155289428Y-81034857D01*
X156003714Y-80677714D02*
X156039428Y-80642000D01*
X156110857Y-80606285D01*
X156289428Y-80606285D01*
X156360857Y-80642000D01*
X156396571Y-80677714D01*
X156432285Y-80749142D01*
X156432285Y-80820571D01*
X156396571Y-80927714D01*
X155968000Y-81356285D01*
X156432285Y-81356285D01*
X158141571Y-80606285D02*
X158320142Y-81356285D01*
X158463000Y-80820571D01*
X158605857Y-81356285D01*
X158784428Y-80606285D01*
X159070142Y-81356285D02*
X159070142Y-80856285D01*
X159070142Y-80606285D02*
X159034428Y-80642000D01*
X159070142Y-80677714D01*
X159105857Y-80642000D01*
X159070142Y-80606285D01*
X159070142Y-80677714D01*
X159427285Y-80856285D02*
X159427285Y-81606285D01*
X159427285Y-80892000D02*
X159498714Y-80856285D01*
X159641571Y-80856285D01*
X159713000Y-80892000D01*
X159748714Y-80927714D01*
X159784428Y-80999142D01*
X159784428Y-81213428D01*
X159748714Y-81284857D01*
X159713000Y-81320571D01*
X159641571Y-81356285D01*
X159498714Y-81356285D01*
X159427285Y-81320571D01*
X160391571Y-81320571D02*
X160320142Y-81356285D01*
X160177285Y-81356285D01*
X160105857Y-81320571D01*
X160070142Y-81249142D01*
X160070142Y-80963428D01*
X160105857Y-80892000D01*
X160177285Y-80856285D01*
X160320142Y-80856285D01*
X160391571Y-80892000D01*
X160427285Y-80963428D01*
X160427285Y-81034857D01*
X160070142Y-81106285D01*
X160748714Y-81356285D02*
X160748714Y-80856285D01*
X160748714Y-80999142D02*
X160784428Y-80927714D01*
X160820142Y-80892000D01*
X160891571Y-80856285D01*
X160963000Y-80856285D01*
X162105857Y-81320571D02*
X162034428Y-81356285D01*
X161891571Y-81356285D01*
X161820142Y-81320571D01*
X161784428Y-81284857D01*
X161748714Y-81213428D01*
X161748714Y-80999142D01*
X161784428Y-80927714D01*
X161820142Y-80892000D01*
X161891571Y-80856285D01*
X162034428Y-80856285D01*
X162105857Y-80892000D01*
X162534428Y-81356285D02*
X162463000Y-81320571D01*
X162427285Y-81284857D01*
X162391571Y-81213428D01*
X162391571Y-80999142D01*
X162427285Y-80927714D01*
X162463000Y-80892000D01*
X162534428Y-80856285D01*
X162641571Y-80856285D01*
X162713000Y-80892000D01*
X162748714Y-80927714D01*
X162784428Y-80999142D01*
X162784428Y-81213428D01*
X162748714Y-81284857D01*
X162713000Y-81320571D01*
X162641571Y-81356285D01*
X162534428Y-81356285D01*
X163105857Y-80856285D02*
X163105857Y-81356285D01*
X163105857Y-80927714D02*
X163141571Y-80892000D01*
X163213000Y-80856285D01*
X163320142Y-80856285D01*
X163391571Y-80892000D01*
X163427285Y-80963428D01*
X163427285Y-81356285D01*
X163677285Y-80856285D02*
X163963000Y-80856285D01*
X163784428Y-80606285D02*
X163784428Y-81249142D01*
X163820142Y-81320571D01*
X163891571Y-81356285D01*
X163963000Y-81356285D01*
X164213000Y-81356285D02*
X164213000Y-80856285D01*
X164213000Y-80999142D02*
X164248714Y-80927714D01*
X164284428Y-80892000D01*
X164355857Y-80856285D01*
X164427285Y-80856285D01*
X164784428Y-81356285D02*
X164713000Y-81320571D01*
X164677285Y-81284857D01*
X164641571Y-81213428D01*
X164641571Y-80999142D01*
X164677285Y-80927714D01*
X164713000Y-80892000D01*
X164784428Y-80856285D01*
X164891571Y-80856285D01*
X164963000Y-80892000D01*
X164998714Y-80927714D01*
X165034428Y-80999142D01*
X165034428Y-81213428D01*
X164998714Y-81284857D01*
X164963000Y-81320571D01*
X164891571Y-81356285D01*
X164784428Y-81356285D01*
X165463000Y-81356285D02*
X165391571Y-81320571D01*
X165355857Y-81249142D01*
X165355857Y-80606285D01*
X166320142Y-81356285D02*
X166320142Y-80856285D01*
X166320142Y-80999142D02*
X166355857Y-80927714D01*
X166391571Y-80892000D01*
X166463000Y-80856285D01*
X166534428Y-80856285D01*
X167070142Y-81320571D02*
X166998714Y-81356285D01*
X166855857Y-81356285D01*
X166784428Y-81320571D01*
X166748714Y-81249142D01*
X166748714Y-80963428D01*
X166784428Y-80892000D01*
X166855857Y-80856285D01*
X166998714Y-80856285D01*
X167070142Y-80892000D01*
X167105857Y-80963428D01*
X167105857Y-81034857D01*
X166748714Y-81106285D01*
X167534428Y-81356285D02*
X167463000Y-81320571D01*
X167427285Y-81249142D01*
X167427285Y-80606285D01*
X168141571Y-81356285D02*
X168141571Y-80963428D01*
X168105857Y-80892000D01*
X168034428Y-80856285D01*
X167891571Y-80856285D01*
X167820142Y-80892000D01*
X168141571Y-81320571D02*
X168070142Y-81356285D01*
X167891571Y-81356285D01*
X167820142Y-81320571D01*
X167784428Y-81249142D01*
X167784428Y-81177714D01*
X167820142Y-81106285D01*
X167891571Y-81070571D01*
X168070142Y-81070571D01*
X168141571Y-81034857D01*
X168427285Y-80856285D02*
X168605857Y-81356285D01*
X168784428Y-80856285D02*
X168605857Y-81356285D01*
X168534428Y-81534857D01*
X168498714Y-81570571D01*
X168427285Y-81606285D01*
X173964285Y-74639285D02*
X173535714Y-74639285D01*
X173750000Y-74639285D02*
X173750000Y-73889285D01*
X173678571Y-73996428D01*
X173607142Y-74067857D01*
X173535714Y-74103571D01*
X166096428Y-72314285D02*
X166096428Y-71564285D01*
X166525000Y-72314285D02*
X166203571Y-71885714D01*
X166525000Y-71564285D02*
X166096428Y-71992857D01*
X166810714Y-71635714D02*
X166846428Y-71600000D01*
X166917857Y-71564285D01*
X167096428Y-71564285D01*
X167167857Y-71600000D01*
X167203571Y-71635714D01*
X167239285Y-71707142D01*
X167239285Y-71778571D01*
X167203571Y-71885714D01*
X166775000Y-72314285D01*
X167239285Y-72314285D01*
G04 #@! TO.C,C1*
X181833333Y-81607142D02*
X181785714Y-81654761D01*
X181642857Y-81702380D01*
X181547619Y-81702380D01*
X181404761Y-81654761D01*
X181309523Y-81559523D01*
X181261904Y-81464285D01*
X181214285Y-81273809D01*
X181214285Y-81130952D01*
X181261904Y-80940476D01*
X181309523Y-80845238D01*
X181404761Y-80750000D01*
X181547619Y-80702380D01*
X181642857Y-80702380D01*
X181785714Y-80750000D01*
X181833333Y-80797619D01*
X182785714Y-81702380D02*
X182214285Y-81702380D01*
X182500000Y-81702380D02*
X182500000Y-80702380D01*
X182404761Y-80845238D01*
X182309523Y-80940476D01*
X182214285Y-80988095D01*
G04 #@! TO.C,K1*
X155416428Y-107929285D02*
X155416428Y-107179285D01*
X155845000Y-107929285D02*
X155523571Y-107500714D01*
X155845000Y-107179285D02*
X155416428Y-107607857D01*
X156559285Y-107929285D02*
X156130714Y-107929285D01*
X156345000Y-107929285D02*
X156345000Y-107179285D01*
X156273571Y-107286428D01*
X156202142Y-107357857D01*
X156130714Y-107393571D01*
X158240714Y-107929285D02*
X158240714Y-107179285D01*
X158490714Y-107715000D01*
X158740714Y-107179285D01*
X158740714Y-107929285D01*
X159419285Y-107929285D02*
X159419285Y-107536428D01*
X159383571Y-107465000D01*
X159312142Y-107429285D01*
X159169285Y-107429285D01*
X159097857Y-107465000D01*
X159419285Y-107893571D02*
X159347857Y-107929285D01*
X159169285Y-107929285D01*
X159097857Y-107893571D01*
X159062142Y-107822142D01*
X159062142Y-107750714D01*
X159097857Y-107679285D01*
X159169285Y-107643571D01*
X159347857Y-107643571D01*
X159419285Y-107607857D01*
X159776428Y-107929285D02*
X159776428Y-107429285D01*
X159776428Y-107179285D02*
X159740714Y-107215000D01*
X159776428Y-107250714D01*
X159812142Y-107215000D01*
X159776428Y-107179285D01*
X159776428Y-107250714D01*
X160133571Y-107429285D02*
X160133571Y-107929285D01*
X160133571Y-107500714D02*
X160169285Y-107465000D01*
X160240714Y-107429285D01*
X160347857Y-107429285D01*
X160419285Y-107465000D01*
X160455000Y-107536428D01*
X160455000Y-107929285D01*
X161383571Y-107929285D02*
X161383571Y-107179285D01*
X161669285Y-107179285D01*
X161740714Y-107215000D01*
X161776428Y-107250714D01*
X161812142Y-107322142D01*
X161812142Y-107429285D01*
X161776428Y-107500714D01*
X161740714Y-107536428D01*
X161669285Y-107572142D01*
X161383571Y-107572142D01*
X162240714Y-107929285D02*
X162169285Y-107893571D01*
X162133571Y-107857857D01*
X162097857Y-107786428D01*
X162097857Y-107572142D01*
X162133571Y-107500714D01*
X162169285Y-107465000D01*
X162240714Y-107429285D01*
X162347857Y-107429285D01*
X162419285Y-107465000D01*
X162455000Y-107500714D01*
X162490714Y-107572142D01*
X162490714Y-107786428D01*
X162455000Y-107857857D01*
X162419285Y-107893571D01*
X162347857Y-107929285D01*
X162240714Y-107929285D01*
X162740714Y-107429285D02*
X162883571Y-107929285D01*
X163026428Y-107572142D01*
X163169285Y-107929285D01*
X163312142Y-107429285D01*
X163883571Y-107893571D02*
X163812142Y-107929285D01*
X163669285Y-107929285D01*
X163597857Y-107893571D01*
X163562142Y-107822142D01*
X163562142Y-107536428D01*
X163597857Y-107465000D01*
X163669285Y-107429285D01*
X163812142Y-107429285D01*
X163883571Y-107465000D01*
X163919285Y-107536428D01*
X163919285Y-107607857D01*
X163562142Y-107679285D01*
X164240714Y-107929285D02*
X164240714Y-107429285D01*
X164240714Y-107572142D02*
X164276428Y-107500714D01*
X164312142Y-107465000D01*
X164383571Y-107429285D01*
X164455000Y-107429285D01*
X165276428Y-107929285D02*
X165276428Y-107429285D01*
X165276428Y-107572142D02*
X165312142Y-107500714D01*
X165347857Y-107465000D01*
X165419285Y-107429285D01*
X165490714Y-107429285D01*
X166026428Y-107893571D02*
X165955000Y-107929285D01*
X165812142Y-107929285D01*
X165740714Y-107893571D01*
X165705000Y-107822142D01*
X165705000Y-107536428D01*
X165740714Y-107465000D01*
X165812142Y-107429285D01*
X165955000Y-107429285D01*
X166026428Y-107465000D01*
X166062142Y-107536428D01*
X166062142Y-107607857D01*
X165705000Y-107679285D01*
X166490714Y-107929285D02*
X166419285Y-107893571D01*
X166383571Y-107822142D01*
X166383571Y-107179285D01*
X167097857Y-107929285D02*
X167097857Y-107536428D01*
X167062142Y-107465000D01*
X166990714Y-107429285D01*
X166847857Y-107429285D01*
X166776428Y-107465000D01*
X167097857Y-107893571D02*
X167026428Y-107929285D01*
X166847857Y-107929285D01*
X166776428Y-107893571D01*
X166740714Y-107822142D01*
X166740714Y-107750714D01*
X166776428Y-107679285D01*
X166847857Y-107643571D01*
X167026428Y-107643571D01*
X167097857Y-107607857D01*
X167383571Y-107429285D02*
X167562142Y-107929285D01*
X167740714Y-107429285D02*
X167562142Y-107929285D01*
X167490714Y-108107857D01*
X167455000Y-108143571D01*
X167383571Y-108179285D01*
X173964285Y-101339285D02*
X173535714Y-101339285D01*
X173750000Y-101339285D02*
X173750000Y-100589285D01*
X173678571Y-100696428D01*
X173607142Y-100767857D01*
X173535714Y-100803571D01*
X166096428Y-99014285D02*
X166096428Y-98264285D01*
X166525000Y-99014285D02*
X166203571Y-98585714D01*
X166525000Y-98264285D02*
X166096428Y-98692857D01*
X167239285Y-99014285D02*
X166810714Y-99014285D01*
X167025000Y-99014285D02*
X167025000Y-98264285D01*
X166953571Y-98371428D01*
X166882142Y-98442857D01*
X166810714Y-98478571D01*
G04 #@! TO.C,C2*
X99908333Y-102607142D02*
X99860714Y-102654761D01*
X99717857Y-102702380D01*
X99622619Y-102702380D01*
X99479761Y-102654761D01*
X99384523Y-102559523D01*
X99336904Y-102464285D01*
X99289285Y-102273809D01*
X99289285Y-102130952D01*
X99336904Y-101940476D01*
X99384523Y-101845238D01*
X99479761Y-101750000D01*
X99622619Y-101702380D01*
X99717857Y-101702380D01*
X99860714Y-101750000D01*
X99908333Y-101797619D01*
X100289285Y-101797619D02*
X100336904Y-101750000D01*
X100432142Y-101702380D01*
X100670238Y-101702380D01*
X100765476Y-101750000D01*
X100813095Y-101797619D01*
X100860714Y-101892857D01*
X100860714Y-101988095D01*
X100813095Y-102130952D01*
X100241666Y-102702380D01*
X100860714Y-102702380D01*
G04 #@! TO.C,R7*
X110956285Y-72261000D02*
X110599142Y-72511000D01*
X110956285Y-72689571D02*
X110206285Y-72689571D01*
X110206285Y-72403857D01*
X110242000Y-72332428D01*
X110277714Y-72296714D01*
X110349142Y-72261000D01*
X110456285Y-72261000D01*
X110527714Y-72296714D01*
X110563428Y-72332428D01*
X110599142Y-72403857D01*
X110599142Y-72689571D01*
X110206285Y-72011000D02*
X110206285Y-71511000D01*
X110956285Y-71832428D01*
X110456285Y-68262428D02*
X110956285Y-68262428D01*
X110170571Y-68441000D02*
X110706285Y-68619571D01*
X110706285Y-68155285D01*
X110206285Y-67941000D02*
X110206285Y-67441000D01*
X110956285Y-67762428D01*
X110206285Y-67012428D02*
X110206285Y-66941000D01*
X110242000Y-66869571D01*
X110277714Y-66833857D01*
X110349142Y-66798142D01*
X110492000Y-66762428D01*
X110670571Y-66762428D01*
X110813428Y-66798142D01*
X110884857Y-66833857D01*
X110920571Y-66869571D01*
X110956285Y-66941000D01*
X110956285Y-67012428D01*
X110920571Y-67083857D01*
X110884857Y-67119571D01*
X110813428Y-67155285D01*
X110670571Y-67191000D01*
X110492000Y-67191000D01*
X110349142Y-67155285D01*
X110277714Y-67119571D01*
X110242000Y-67083857D01*
X110206285Y-67012428D01*
G04 #@! TO.C,R9*
X110829285Y-80668000D02*
X110472142Y-80918000D01*
X110829285Y-81096571D02*
X110079285Y-81096571D01*
X110079285Y-80810857D01*
X110115000Y-80739428D01*
X110150714Y-80703714D01*
X110222142Y-80668000D01*
X110329285Y-80668000D01*
X110400714Y-80703714D01*
X110436428Y-80739428D01*
X110472142Y-80810857D01*
X110472142Y-81096571D01*
X110829285Y-80310857D02*
X110829285Y-80168000D01*
X110793571Y-80096571D01*
X110757857Y-80060857D01*
X110650714Y-79989428D01*
X110507857Y-79953714D01*
X110222142Y-79953714D01*
X110150714Y-79989428D01*
X110115000Y-80025142D01*
X110079285Y-80096571D01*
X110079285Y-80239428D01*
X110115000Y-80310857D01*
X110150714Y-80346571D01*
X110222142Y-80382285D01*
X110400714Y-80382285D01*
X110472142Y-80346571D01*
X110507857Y-80310857D01*
X110543571Y-80239428D01*
X110543571Y-80096571D01*
X110507857Y-80025142D01*
X110472142Y-79989428D01*
X110400714Y-79953714D01*
X110650714Y-83781571D02*
X110150714Y-83781571D01*
X110936428Y-83603000D02*
X110400714Y-83424428D01*
X110400714Y-83888714D01*
X110900714Y-84103000D02*
X110900714Y-84603000D01*
X110150714Y-84281571D01*
X110900714Y-85031571D02*
X110900714Y-85103000D01*
X110865000Y-85174428D01*
X110829285Y-85210142D01*
X110757857Y-85245857D01*
X110615000Y-85281571D01*
X110436428Y-85281571D01*
X110293571Y-85245857D01*
X110222142Y-85210142D01*
X110186428Y-85174428D01*
X110150714Y-85103000D01*
X110150714Y-85031571D01*
X110186428Y-84960142D01*
X110222142Y-84924428D01*
X110293571Y-84888714D01*
X110436428Y-84853000D01*
X110615000Y-84853000D01*
X110757857Y-84888714D01*
X110829285Y-84924428D01*
X110865000Y-84960142D01*
X110900714Y-85031571D01*
G04 #@! TO.C,R8*
X115147285Y-72261000D02*
X114790142Y-72511000D01*
X115147285Y-72689571D02*
X114397285Y-72689571D01*
X114397285Y-72403857D01*
X114433000Y-72332428D01*
X114468714Y-72296714D01*
X114540142Y-72261000D01*
X114647285Y-72261000D01*
X114718714Y-72296714D01*
X114754428Y-72332428D01*
X114790142Y-72403857D01*
X114790142Y-72689571D01*
X114718714Y-71832428D02*
X114683000Y-71903857D01*
X114647285Y-71939571D01*
X114575857Y-71975285D01*
X114540142Y-71975285D01*
X114468714Y-71939571D01*
X114433000Y-71903857D01*
X114397285Y-71832428D01*
X114397285Y-71689571D01*
X114433000Y-71618142D01*
X114468714Y-71582428D01*
X114540142Y-71546714D01*
X114575857Y-71546714D01*
X114647285Y-71582428D01*
X114683000Y-71618142D01*
X114718714Y-71689571D01*
X114718714Y-71832428D01*
X114754428Y-71903857D01*
X114790142Y-71939571D01*
X114861571Y-71975285D01*
X115004428Y-71975285D01*
X115075857Y-71939571D01*
X115111571Y-71903857D01*
X115147285Y-71832428D01*
X115147285Y-71689571D01*
X115111571Y-71618142D01*
X115075857Y-71582428D01*
X115004428Y-71546714D01*
X114861571Y-71546714D01*
X114790142Y-71582428D01*
X114754428Y-71618142D01*
X114718714Y-71689571D01*
X114647285Y-68262428D02*
X115147285Y-68262428D01*
X114361571Y-68441000D02*
X114897285Y-68619571D01*
X114897285Y-68155285D01*
X114397285Y-67941000D02*
X114397285Y-67441000D01*
X115147285Y-67762428D01*
X114397285Y-67012428D02*
X114397285Y-66941000D01*
X114433000Y-66869571D01*
X114468714Y-66833857D01*
X114540142Y-66798142D01*
X114683000Y-66762428D01*
X114861571Y-66762428D01*
X115004428Y-66798142D01*
X115075857Y-66833857D01*
X115111571Y-66869571D01*
X115147285Y-66941000D01*
X115147285Y-67012428D01*
X115111571Y-67083857D01*
X115075857Y-67119571D01*
X115004428Y-67155285D01*
X114861571Y-67191000D01*
X114683000Y-67191000D01*
X114540142Y-67155285D01*
X114468714Y-67119571D01*
X114433000Y-67083857D01*
X114397285Y-67012428D01*
G04 #@! TO.C,U1*
X86074571Y-99648285D02*
X86074571Y-100255428D01*
X86110285Y-100326857D01*
X86146000Y-100362571D01*
X86217428Y-100398285D01*
X86360285Y-100398285D01*
X86431714Y-100362571D01*
X86467428Y-100326857D01*
X86503142Y-100255428D01*
X86503142Y-99648285D01*
X87253142Y-100398285D02*
X86824571Y-100398285D01*
X87038857Y-100398285D02*
X87038857Y-99648285D01*
X86967428Y-99755428D01*
X86896000Y-99826857D01*
X86824571Y-99862571D01*
X92529428Y-99921785D02*
X92958000Y-99921785D01*
X92743714Y-100671785D02*
X92743714Y-99921785D01*
X93493714Y-100636071D02*
X93422285Y-100671785D01*
X93279428Y-100671785D01*
X93208000Y-100636071D01*
X93172285Y-100564642D01*
X93172285Y-100278928D01*
X93208000Y-100207500D01*
X93279428Y-100171785D01*
X93422285Y-100171785D01*
X93493714Y-100207500D01*
X93529428Y-100278928D01*
X93529428Y-100350357D01*
X93172285Y-100421785D01*
X94136571Y-100636071D02*
X94065142Y-100671785D01*
X93922285Y-100671785D01*
X93850857Y-100636071D01*
X93815142Y-100564642D01*
X93815142Y-100278928D01*
X93850857Y-100207500D01*
X93922285Y-100171785D01*
X94065142Y-100171785D01*
X94136571Y-100207500D01*
X94172285Y-100278928D01*
X94172285Y-100350357D01*
X93815142Y-100421785D01*
X94493714Y-100171785D02*
X94493714Y-100671785D01*
X94493714Y-100243214D02*
X94529428Y-100207500D01*
X94600857Y-100171785D01*
X94708000Y-100171785D01*
X94779428Y-100207500D01*
X94815142Y-100278928D01*
X94815142Y-100671785D01*
X95136571Y-100636071D02*
X95208000Y-100671785D01*
X95350857Y-100671785D01*
X95422285Y-100636071D01*
X95458000Y-100564642D01*
X95458000Y-100528928D01*
X95422285Y-100457500D01*
X95350857Y-100421785D01*
X95243714Y-100421785D01*
X95172285Y-100386071D01*
X95136571Y-100314642D01*
X95136571Y-100278928D01*
X95172285Y-100207500D01*
X95243714Y-100171785D01*
X95350857Y-100171785D01*
X95422285Y-100207500D01*
X95708000Y-100171785D02*
X95886571Y-100671785D01*
X96065142Y-100171785D02*
X95886571Y-100671785D01*
X95815142Y-100850357D01*
X95779428Y-100886071D01*
X95708000Y-100921785D01*
X96672285Y-100171785D02*
X96672285Y-100671785D01*
X96493714Y-99886071D02*
X96315142Y-100421785D01*
X96779428Y-100421785D01*
X97065142Y-100600357D02*
X97100857Y-100636071D01*
X97065142Y-100671785D01*
X97029428Y-100636071D01*
X97065142Y-100600357D01*
X97065142Y-100671785D01*
X97565142Y-99921785D02*
X97636571Y-99921785D01*
X97708000Y-99957500D01*
X97743714Y-99993214D01*
X97779428Y-100064642D01*
X97815142Y-100207500D01*
X97815142Y-100386071D01*
X97779428Y-100528928D01*
X97743714Y-100600357D01*
X97708000Y-100636071D01*
X97636571Y-100671785D01*
X97565142Y-100671785D01*
X97493714Y-100636071D01*
X97458000Y-100600357D01*
X97422285Y-100528928D01*
X97386571Y-100386071D01*
X97386571Y-100207500D01*
X97422285Y-100064642D01*
X97458000Y-99993214D01*
X97493714Y-99957500D01*
X97565142Y-99921785D01*
X93250000Y-83617285D02*
X93250000Y-82867285D01*
X93428571Y-82867285D01*
X93535714Y-82903000D01*
X93607142Y-82974428D01*
X93642857Y-83045857D01*
X93678571Y-83188714D01*
X93678571Y-83295857D01*
X93642857Y-83438714D01*
X93607142Y-83510142D01*
X93535714Y-83581571D01*
X93428571Y-83617285D01*
X93250000Y-83617285D01*
X93892857Y-82867285D02*
X94142857Y-83617285D01*
X94392857Y-82867285D01*
X95000000Y-83617285D02*
X94642857Y-83617285D01*
X94642857Y-82867285D01*
X95571428Y-82867285D02*
X95428571Y-82867285D01*
X95357142Y-82903000D01*
X95321428Y-82938714D01*
X95250000Y-83045857D01*
X95214285Y-83188714D01*
X95214285Y-83474428D01*
X95250000Y-83545857D01*
X95285714Y-83581571D01*
X95357142Y-83617285D01*
X95500000Y-83617285D01*
X95571428Y-83581571D01*
X95607142Y-83545857D01*
X95642857Y-83474428D01*
X95642857Y-83295857D01*
X95607142Y-83224428D01*
X95571428Y-83188714D01*
X95500000Y-83153000D01*
X95357142Y-83153000D01*
X95285714Y-83188714D01*
X95250000Y-83224428D01*
X95214285Y-83295857D01*
X95928571Y-83403000D02*
X96285714Y-83403000D01*
X95857142Y-83617285D02*
X96107142Y-82867285D01*
X96357142Y-83617285D01*
X91446428Y-82093285D02*
X91446428Y-81343285D01*
X91696428Y-81879000D01*
X91946428Y-81343285D01*
X91946428Y-82093285D01*
X92303571Y-82093285D02*
X92303571Y-81343285D01*
X92660714Y-82093285D02*
X92660714Y-81343285D01*
X92910714Y-81879000D01*
X93160714Y-81343285D01*
X93160714Y-82093285D01*
X93446428Y-81343285D02*
X93946428Y-82093285D01*
X93946428Y-81343285D02*
X93446428Y-82093285D01*
X94660714Y-82093285D02*
X94410714Y-81736142D01*
X94232142Y-82093285D02*
X94232142Y-81343285D01*
X94517857Y-81343285D01*
X94589285Y-81379000D01*
X94625000Y-81414714D01*
X94660714Y-81486142D01*
X94660714Y-81593285D01*
X94625000Y-81664714D01*
X94589285Y-81700428D01*
X94517857Y-81736142D01*
X94232142Y-81736142D01*
X94875000Y-81343285D02*
X95303571Y-81343285D01*
X95089285Y-82093285D02*
X95089285Y-81343285D01*
X95946428Y-82093285D02*
X95517857Y-82093285D01*
X95732142Y-82093285D02*
X95732142Y-81343285D01*
X95660714Y-81450428D01*
X95589285Y-81521857D01*
X95517857Y-81557571D01*
X96410714Y-81343285D02*
X96482142Y-81343285D01*
X96553571Y-81379000D01*
X96589285Y-81414714D01*
X96625000Y-81486142D01*
X96660714Y-81629000D01*
X96660714Y-81807571D01*
X96625000Y-81950428D01*
X96589285Y-82021857D01*
X96553571Y-82057571D01*
X96482142Y-82093285D01*
X96410714Y-82093285D01*
X96339285Y-82057571D01*
X96303571Y-82021857D01*
X96267857Y-81950428D01*
X96232142Y-81807571D01*
X96232142Y-81629000D01*
X96267857Y-81486142D01*
X96303571Y-81414714D01*
X96339285Y-81379000D01*
X96410714Y-81343285D01*
X97303571Y-81343285D02*
X97160714Y-81343285D01*
X97089285Y-81379000D01*
X97053571Y-81414714D01*
X96982142Y-81521857D01*
X96946428Y-81664714D01*
X96946428Y-81950428D01*
X96982142Y-82021857D01*
X97017857Y-82057571D01*
X97089285Y-82093285D01*
X97232142Y-82093285D01*
X97303571Y-82057571D01*
X97339285Y-82021857D01*
X97375000Y-81950428D01*
X97375000Y-81771857D01*
X97339285Y-81700428D01*
X97303571Y-81664714D01*
X97232142Y-81629000D01*
X97089285Y-81629000D01*
X97017857Y-81664714D01*
X96982142Y-81700428D01*
X96946428Y-81771857D01*
X97660714Y-81414714D02*
X97696428Y-81379000D01*
X97767857Y-81343285D01*
X97946428Y-81343285D01*
X98017857Y-81379000D01*
X98053571Y-81414714D01*
X98089285Y-81486142D01*
X98089285Y-81557571D01*
X98053571Y-81664714D01*
X97625000Y-82093285D01*
X98089285Y-82093285D01*
D12*
G04 #@! TO.C,JP1*
X120281171Y-81473000D02*
X120716600Y-81473000D01*
X120803685Y-81502028D01*
X120861742Y-81560085D01*
X120890771Y-81647171D01*
X120890771Y-81705228D01*
X120890771Y-81182714D02*
X120281171Y-81182714D01*
X120281171Y-80950485D01*
X120310200Y-80892428D01*
X120339228Y-80863400D01*
X120397285Y-80834371D01*
X120484371Y-80834371D01*
X120542428Y-80863400D01*
X120571457Y-80892428D01*
X120600485Y-80950485D01*
X120600485Y-81182714D01*
X120890771Y-80253800D02*
X120890771Y-80602142D01*
X120890771Y-80427971D02*
X120281171Y-80427971D01*
X120368257Y-80486028D01*
X120426314Y-80544085D01*
X120455342Y-80602142D01*
X119011171Y-82547057D02*
X119620771Y-82140657D01*
X119011171Y-82140657D02*
X119620771Y-82547057D01*
X119301457Y-81705228D02*
X119330485Y-81618142D01*
X119359514Y-81589114D01*
X119417571Y-81560085D01*
X119504657Y-81560085D01*
X119562714Y-81589114D01*
X119591742Y-81618142D01*
X119620771Y-81676200D01*
X119620771Y-81908428D01*
X119011171Y-81908428D01*
X119011171Y-81705228D01*
X119040200Y-81647171D01*
X119069228Y-81618142D01*
X119127285Y-81589114D01*
X119185342Y-81589114D01*
X119243400Y-81618142D01*
X119272428Y-81647171D01*
X119301457Y-81705228D01*
X119301457Y-81908428D01*
X119301457Y-81298828D02*
X119301457Y-81095628D01*
X119620771Y-81008542D02*
X119620771Y-81298828D01*
X119011171Y-81298828D01*
X119011171Y-81008542D01*
X119301457Y-80747285D02*
X119301457Y-80544085D01*
X119620771Y-80457000D02*
X119620771Y-80747285D01*
X119011171Y-80747285D01*
X119011171Y-80457000D01*
X119620771Y-79411971D02*
X119620771Y-79760314D01*
X119620771Y-79586142D02*
X119011171Y-79586142D01*
X119098257Y-79644200D01*
X119156314Y-79702257D01*
X119185342Y-79760314D01*
D13*
X145392579Y-62793114D02*
X145392579Y-63373685D01*
X145392579Y-63083400D02*
X144376579Y-63083400D01*
X144521721Y-63180161D01*
X144618483Y-63276923D01*
X144666864Y-63373685D01*
D11*
G04 #@! TO.C,D4*
X160341904Y-64622380D02*
X160341904Y-63622380D01*
X160580000Y-63622380D01*
X160722857Y-63670000D01*
X160818095Y-63765238D01*
X160865714Y-63860476D01*
X160913333Y-64050952D01*
X160913333Y-64193809D01*
X160865714Y-64384285D01*
X160818095Y-64479523D01*
X160722857Y-64574761D01*
X160580000Y-64622380D01*
X160341904Y-64622380D01*
X161770476Y-63955714D02*
X161770476Y-64622380D01*
X161532380Y-63574761D02*
X161294285Y-64289047D01*
X161913333Y-64289047D01*
X168438095Y-63902380D02*
X168438095Y-62902380D01*
X169009523Y-63902380D02*
X168580952Y-63330952D01*
X169009523Y-62902380D02*
X168438095Y-63473809D01*
G04 #@! TO.C,R6*
X106427285Y-72261000D02*
X106070142Y-72511000D01*
X106427285Y-72689571D02*
X105677285Y-72689571D01*
X105677285Y-72403857D01*
X105713000Y-72332428D01*
X105748714Y-72296714D01*
X105820142Y-72261000D01*
X105927285Y-72261000D01*
X105998714Y-72296714D01*
X106034428Y-72332428D01*
X106070142Y-72403857D01*
X106070142Y-72689571D01*
X105677285Y-71618142D02*
X105677285Y-71761000D01*
X105713000Y-71832428D01*
X105748714Y-71868142D01*
X105855857Y-71939571D01*
X105998714Y-71975285D01*
X106284428Y-71975285D01*
X106355857Y-71939571D01*
X106391571Y-71903857D01*
X106427285Y-71832428D01*
X106427285Y-71689571D01*
X106391571Y-71618142D01*
X106355857Y-71582428D01*
X106284428Y-71546714D01*
X106105857Y-71546714D01*
X106034428Y-71582428D01*
X105998714Y-71618142D01*
X105963000Y-71689571D01*
X105963000Y-71832428D01*
X105998714Y-71903857D01*
X106034428Y-71939571D01*
X106105857Y-71975285D01*
X105757285Y-68262428D02*
X106257285Y-68262428D01*
X105471571Y-68441000D02*
X106007285Y-68619571D01*
X106007285Y-68155285D01*
X105507285Y-67941000D02*
X105507285Y-67441000D01*
X106257285Y-67762428D01*
X105507285Y-67012428D02*
X105507285Y-66941000D01*
X105543000Y-66869571D01*
X105578714Y-66833857D01*
X105650142Y-66798142D01*
X105793000Y-66762428D01*
X105971571Y-66762428D01*
X106114428Y-66798142D01*
X106185857Y-66833857D01*
X106221571Y-66869571D01*
X106257285Y-66941000D01*
X106257285Y-67012428D01*
X106221571Y-67083857D01*
X106185857Y-67119571D01*
X106114428Y-67155285D01*
X105971571Y-67191000D01*
X105793000Y-67191000D01*
X105650142Y-67155285D01*
X105578714Y-67119571D01*
X105543000Y-67083857D01*
X105507285Y-67012428D01*
G04 #@! TO.C,U3*
X175049380Y-85165904D02*
X175858904Y-85165904D01*
X175954142Y-85118285D01*
X176001761Y-85070666D01*
X176049380Y-84975428D01*
X176049380Y-84784952D01*
X176001761Y-84689714D01*
X175954142Y-84642095D01*
X175858904Y-84594476D01*
X175049380Y-84594476D01*
X175049380Y-84213523D02*
X175049380Y-83594476D01*
X175430333Y-83927809D01*
X175430333Y-83784952D01*
X175477952Y-83689714D01*
X175525571Y-83642095D01*
X175620809Y-83594476D01*
X175858904Y-83594476D01*
X175954142Y-83642095D01*
X176001761Y-83689714D01*
X176049380Y-83784952D01*
X176049380Y-84070666D01*
X176001761Y-84165904D01*
X175954142Y-84213523D01*
X161523880Y-89673904D02*
X162523880Y-89007238D01*
X161523880Y-89007238D02*
X162523880Y-89673904D01*
X162000071Y-88292952D02*
X162047690Y-88150095D01*
X162095309Y-88102476D01*
X162190547Y-88054857D01*
X162333404Y-88054857D01*
X162428642Y-88102476D01*
X162476261Y-88150095D01*
X162523880Y-88245333D01*
X162523880Y-88626285D01*
X161523880Y-88626285D01*
X161523880Y-88292952D01*
X161571500Y-88197714D01*
X161619119Y-88150095D01*
X161714357Y-88102476D01*
X161809595Y-88102476D01*
X161904833Y-88150095D01*
X161952452Y-88197714D01*
X162000071Y-88292952D01*
X162000071Y-88626285D01*
X162000071Y-87626285D02*
X162000071Y-87292952D01*
X162523880Y-87150095D02*
X162523880Y-87626285D01*
X161523880Y-87626285D01*
X161523880Y-87150095D01*
X162000071Y-86721523D02*
X162000071Y-86388190D01*
X162523880Y-86245333D02*
X162523880Y-86721523D01*
X161523880Y-86721523D01*
X161523880Y-86245333D01*
X162142928Y-85816761D02*
X162142928Y-85054857D01*
X162476261Y-84626285D02*
X162523880Y-84531047D01*
X162523880Y-84340571D01*
X162476261Y-84245333D01*
X162381023Y-84197714D01*
X162333404Y-84197714D01*
X162238166Y-84245333D01*
X162190547Y-84340571D01*
X162190547Y-84483428D01*
X162142928Y-84578666D01*
X162047690Y-84626285D01*
X162000071Y-84626285D01*
X161904833Y-84578666D01*
X161857214Y-84483428D01*
X161857214Y-84340571D01*
X161904833Y-84245333D01*
X162523880Y-83626285D02*
X162476261Y-83721523D01*
X162428642Y-83769142D01*
X162333404Y-83816761D01*
X162047690Y-83816761D01*
X161952452Y-83769142D01*
X161904833Y-83721523D01*
X161857214Y-83626285D01*
X161857214Y-83483428D01*
X161904833Y-83388190D01*
X161952452Y-83340571D01*
X162047690Y-83292952D01*
X162333404Y-83292952D01*
X162428642Y-83340571D01*
X162476261Y-83388190D01*
X162523880Y-83483428D01*
X162523880Y-83626285D01*
X162476261Y-82435809D02*
X162523880Y-82531047D01*
X162523880Y-82721523D01*
X162476261Y-82816761D01*
X162428642Y-82864380D01*
X162333404Y-82912000D01*
X162047690Y-82912000D01*
X161952452Y-82864380D01*
X161904833Y-82816761D01*
X161857214Y-82721523D01*
X161857214Y-82531047D01*
X161904833Y-82435809D01*
X162523880Y-82007238D02*
X161523880Y-82007238D01*
X162142928Y-81912000D02*
X162523880Y-81626285D01*
X161857214Y-81626285D02*
X162238166Y-82007238D01*
X162476261Y-80816761D02*
X162523880Y-80912000D01*
X162523880Y-81102476D01*
X162476261Y-81197714D01*
X162381023Y-81245333D01*
X162000071Y-81245333D01*
X161904833Y-81197714D01*
X161857214Y-81102476D01*
X161857214Y-80912000D01*
X161904833Y-80816761D01*
X162000071Y-80769142D01*
X162095309Y-80769142D01*
X162190547Y-81245333D01*
X161857214Y-80483428D02*
X161857214Y-80102476D01*
X161523880Y-80340571D02*
X162381023Y-80340571D01*
X162476261Y-80292952D01*
X162523880Y-80197714D01*
X162523880Y-80102476D01*
G04 #@! TO.C,C3*
X113808333Y-103157142D02*
X113760714Y-103204761D01*
X113617857Y-103252380D01*
X113522619Y-103252380D01*
X113379761Y-103204761D01*
X113284523Y-103109523D01*
X113236904Y-103014285D01*
X113189285Y-102823809D01*
X113189285Y-102680952D01*
X113236904Y-102490476D01*
X113284523Y-102395238D01*
X113379761Y-102300000D01*
X113522619Y-102252380D01*
X113617857Y-102252380D01*
X113760714Y-102300000D01*
X113808333Y-102347619D01*
X114141666Y-102252380D02*
X114760714Y-102252380D01*
X114427380Y-102633333D01*
X114570238Y-102633333D01*
X114665476Y-102680952D01*
X114713095Y-102728571D01*
X114760714Y-102823809D01*
X114760714Y-103061904D01*
X114713095Y-103157142D01*
X114665476Y-103204761D01*
X114570238Y-103252380D01*
X114284523Y-103252380D01*
X114189285Y-103204761D01*
X114141666Y-103157142D01*
G04 #@! TO.C,R1*
X115655285Y-94613000D02*
X115298142Y-94863000D01*
X115655285Y-95041571D02*
X114905285Y-95041571D01*
X114905285Y-94755857D01*
X114941000Y-94684428D01*
X114976714Y-94648714D01*
X115048142Y-94613000D01*
X115155285Y-94613000D01*
X115226714Y-94648714D01*
X115262428Y-94684428D01*
X115298142Y-94755857D01*
X115298142Y-95041571D01*
X115655285Y-93898714D02*
X115655285Y-94327285D01*
X115655285Y-94113000D02*
X114905285Y-94113000D01*
X115012428Y-94184428D01*
X115083857Y-94255857D01*
X115119571Y-94327285D01*
X115655285Y-99379428D02*
X115655285Y-99808000D01*
X115655285Y-99593714D02*
X114905285Y-99593714D01*
X115012428Y-99665142D01*
X115083857Y-99736571D01*
X115119571Y-99808000D01*
X114905285Y-98915142D02*
X114905285Y-98843714D01*
X114941000Y-98772285D01*
X114976714Y-98736571D01*
X115048142Y-98700857D01*
X115191000Y-98665142D01*
X115369571Y-98665142D01*
X115512428Y-98700857D01*
X115583857Y-98736571D01*
X115619571Y-98772285D01*
X115655285Y-98843714D01*
X115655285Y-98915142D01*
X115619571Y-98986571D01*
X115583857Y-99022285D01*
X115512428Y-99058000D01*
X115369571Y-99093714D01*
X115191000Y-99093714D01*
X115048142Y-99058000D01*
X114976714Y-99022285D01*
X114941000Y-98986571D01*
X114905285Y-98915142D01*
X115655285Y-98343714D02*
X114905285Y-98343714D01*
X115369571Y-98272285D02*
X115655285Y-98058000D01*
X115155285Y-98058000D02*
X115441000Y-98343714D01*
G04 #@! TO.C,SW1*
X192416666Y-100474761D02*
X192559523Y-100522380D01*
X192797619Y-100522380D01*
X192892857Y-100474761D01*
X192940476Y-100427142D01*
X192988095Y-100331904D01*
X192988095Y-100236666D01*
X192940476Y-100141428D01*
X192892857Y-100093809D01*
X192797619Y-100046190D01*
X192607142Y-99998571D01*
X192511904Y-99950952D01*
X192464285Y-99903333D01*
X192416666Y-99808095D01*
X192416666Y-99712857D01*
X192464285Y-99617619D01*
X192511904Y-99570000D01*
X192607142Y-99522380D01*
X192845238Y-99522380D01*
X192988095Y-99570000D01*
X193321428Y-99522380D02*
X193559523Y-100522380D01*
X193750000Y-99808095D01*
X193940476Y-100522380D01*
X194178571Y-99522380D01*
X195083333Y-100522380D02*
X194511904Y-100522380D01*
X194797619Y-100522380D02*
X194797619Y-99522380D01*
X194702380Y-99665238D01*
X194607142Y-99760476D01*
X194511904Y-99808095D01*
G04 #@! TO.C,D3*
X181441428Y-94129285D02*
X181441428Y-93379285D01*
X181620000Y-93379285D01*
X181727142Y-93415000D01*
X181798571Y-93486428D01*
X181834285Y-93557857D01*
X181870000Y-93700714D01*
X181870000Y-93807857D01*
X181834285Y-93950714D01*
X181798571Y-94022142D01*
X181727142Y-94093571D01*
X181620000Y-94129285D01*
X181441428Y-94129285D01*
X182120000Y-93379285D02*
X182584285Y-93379285D01*
X182334285Y-93665000D01*
X182441428Y-93665000D01*
X182512857Y-93700714D01*
X182548571Y-93736428D01*
X182584285Y-93807857D01*
X182584285Y-93986428D01*
X182548571Y-94057857D01*
X182512857Y-94093571D01*
X182441428Y-94129285D01*
X182227142Y-94129285D01*
X182155714Y-94093571D01*
X182120000Y-94057857D01*
X178137857Y-102783285D02*
X178137857Y-102033285D01*
X178423571Y-102033285D01*
X178495000Y-102069000D01*
X178530714Y-102104714D01*
X178566428Y-102176142D01*
X178566428Y-102283285D01*
X178530714Y-102354714D01*
X178495000Y-102390428D01*
X178423571Y-102426142D01*
X178137857Y-102426142D01*
X178995000Y-102783285D02*
X178923571Y-102747571D01*
X178887857Y-102711857D01*
X178852142Y-102640428D01*
X178852142Y-102426142D01*
X178887857Y-102354714D01*
X178923571Y-102319000D01*
X178995000Y-102283285D01*
X179102142Y-102283285D01*
X179173571Y-102319000D01*
X179209285Y-102354714D01*
X179245000Y-102426142D01*
X179245000Y-102640428D01*
X179209285Y-102711857D01*
X179173571Y-102747571D01*
X179102142Y-102783285D01*
X178995000Y-102783285D01*
X179495000Y-102283285D02*
X179637857Y-102783285D01*
X179780714Y-102426142D01*
X179923571Y-102783285D01*
X180066428Y-102283285D01*
X180637857Y-102747571D02*
X180566428Y-102783285D01*
X180423571Y-102783285D01*
X180352142Y-102747571D01*
X180316428Y-102676142D01*
X180316428Y-102390428D01*
X180352142Y-102319000D01*
X180423571Y-102283285D01*
X180566428Y-102283285D01*
X180637857Y-102319000D01*
X180673571Y-102390428D01*
X180673571Y-102461857D01*
X180316428Y-102533285D01*
X180995000Y-102783285D02*
X180995000Y-102283285D01*
X180995000Y-102426142D02*
X181030714Y-102354714D01*
X181066428Y-102319000D01*
X181137857Y-102283285D01*
X181209285Y-102283285D01*
X182173571Y-102033285D02*
X182316428Y-102033285D01*
X182387857Y-102069000D01*
X182459285Y-102140428D01*
X182495000Y-102283285D01*
X182495000Y-102533285D01*
X182459285Y-102676142D01*
X182387857Y-102747571D01*
X182316428Y-102783285D01*
X182173571Y-102783285D01*
X182102142Y-102747571D01*
X182030714Y-102676142D01*
X181995000Y-102533285D01*
X181995000Y-102283285D01*
X182030714Y-102140428D01*
X182102142Y-102069000D01*
X182173571Y-102033285D01*
X182816428Y-102783285D02*
X182816428Y-102033285D01*
X183245000Y-102783285D01*
X183245000Y-102033285D01*
X184530714Y-102783285D02*
X184173571Y-102783285D01*
X184173571Y-102033285D01*
X184780714Y-102390428D02*
X185030714Y-102390428D01*
X185137857Y-102783285D02*
X184780714Y-102783285D01*
X184780714Y-102033285D01*
X185137857Y-102033285D01*
X185459285Y-102783285D02*
X185459285Y-102033285D01*
X185637857Y-102033285D01*
X185745000Y-102069000D01*
X185816428Y-102140428D01*
X185852142Y-102211857D01*
X185887857Y-102354714D01*
X185887857Y-102461857D01*
X185852142Y-102604714D01*
X185816428Y-102676142D01*
X185745000Y-102747571D01*
X185637857Y-102783285D01*
X185459285Y-102783285D01*
X181421428Y-98089285D02*
X181421428Y-97339285D01*
X181600000Y-97339285D01*
X181707142Y-97375000D01*
X181778571Y-97446428D01*
X181814285Y-97517857D01*
X181850000Y-97660714D01*
X181850000Y-97767857D01*
X181814285Y-97910714D01*
X181778571Y-97982142D01*
X181707142Y-98053571D01*
X181600000Y-98089285D01*
X181421428Y-98089285D01*
X182100000Y-97339285D02*
X182564285Y-97339285D01*
X182314285Y-97625000D01*
X182421428Y-97625000D01*
X182492857Y-97660714D01*
X182528571Y-97696428D01*
X182564285Y-97767857D01*
X182564285Y-97946428D01*
X182528571Y-98017857D01*
X182492857Y-98053571D01*
X182421428Y-98089285D01*
X182207142Y-98089285D01*
X182135714Y-98053571D01*
X182100000Y-98017857D01*
G04 #@! TO.C,D1*
X181642904Y-64360380D02*
X181642904Y-63360380D01*
X181881000Y-63360380D01*
X182023857Y-63408000D01*
X182119095Y-63503238D01*
X182166714Y-63598476D01*
X182214333Y-63788952D01*
X182214333Y-63931809D01*
X182166714Y-64122285D01*
X182119095Y-64217523D01*
X182023857Y-64312761D01*
X181881000Y-64360380D01*
X181642904Y-64360380D01*
X183166714Y-64360380D02*
X182595285Y-64360380D01*
X182881000Y-64360380D02*
X182881000Y-63360380D01*
X182785761Y-63503238D01*
X182690523Y-63598476D01*
X182595285Y-63646095D01*
X179702428Y-73137285D02*
X179702428Y-72387285D01*
X179952428Y-72923000D01*
X180202428Y-72387285D01*
X180202428Y-73137285D01*
X180666714Y-73137285D02*
X180595285Y-73101571D01*
X180559571Y-73065857D01*
X180523857Y-72994428D01*
X180523857Y-72780142D01*
X180559571Y-72708714D01*
X180595285Y-72673000D01*
X180666714Y-72637285D01*
X180773857Y-72637285D01*
X180845285Y-72673000D01*
X180881000Y-72708714D01*
X180916714Y-72780142D01*
X180916714Y-72994428D01*
X180881000Y-73065857D01*
X180845285Y-73101571D01*
X180773857Y-73137285D01*
X180666714Y-73137285D01*
X181131000Y-72637285D02*
X181416714Y-72637285D01*
X181238142Y-72387285D02*
X181238142Y-73030142D01*
X181273857Y-73101571D01*
X181345285Y-73137285D01*
X181416714Y-73137285D01*
X181773857Y-73137285D02*
X181702428Y-73101571D01*
X181666714Y-73065857D01*
X181631000Y-72994428D01*
X181631000Y-72780142D01*
X181666714Y-72708714D01*
X181702428Y-72673000D01*
X181773857Y-72637285D01*
X181881000Y-72637285D01*
X181952428Y-72673000D01*
X181988142Y-72708714D01*
X182023857Y-72780142D01*
X182023857Y-72994428D01*
X181988142Y-73065857D01*
X181952428Y-73101571D01*
X181881000Y-73137285D01*
X181773857Y-73137285D01*
X182345285Y-73137285D02*
X182345285Y-72637285D01*
X182345285Y-72780142D02*
X182381000Y-72708714D01*
X182416714Y-72673000D01*
X182488142Y-72637285D01*
X182559571Y-72637285D01*
X183738142Y-73137285D02*
X183381000Y-73137285D01*
X183381000Y-72387285D01*
X183988142Y-72744428D02*
X184238142Y-72744428D01*
X184345285Y-73137285D02*
X183988142Y-73137285D01*
X183988142Y-72387285D01*
X184345285Y-72387285D01*
X184666714Y-73137285D02*
X184666714Y-72387285D01*
X184845285Y-72387285D01*
X184952428Y-72423000D01*
X185023857Y-72494428D01*
X185059571Y-72565857D01*
X185095285Y-72708714D01*
X185095285Y-72815857D01*
X185059571Y-72958714D01*
X185023857Y-73030142D01*
X184952428Y-73101571D01*
X184845285Y-73137285D01*
X184666714Y-73137285D01*
D12*
G04 #@! TO.C,JP2*
X120281171Y-109748000D02*
X120716600Y-109748000D01*
X120803685Y-109777028D01*
X120861742Y-109835085D01*
X120890771Y-109922171D01*
X120890771Y-109980228D01*
X120890771Y-109457714D02*
X120281171Y-109457714D01*
X120281171Y-109225485D01*
X120310200Y-109167428D01*
X120339228Y-109138400D01*
X120397285Y-109109371D01*
X120484371Y-109109371D01*
X120542428Y-109138400D01*
X120571457Y-109167428D01*
X120600485Y-109225485D01*
X120600485Y-109457714D01*
X120339228Y-108877142D02*
X120310200Y-108848114D01*
X120281171Y-108790057D01*
X120281171Y-108644914D01*
X120310200Y-108586857D01*
X120339228Y-108557828D01*
X120397285Y-108528800D01*
X120455342Y-108528800D01*
X120542428Y-108557828D01*
X120890771Y-108906171D01*
X120890771Y-108528800D01*
X119011171Y-110822057D02*
X119620771Y-110415657D01*
X119011171Y-110415657D02*
X119620771Y-110822057D01*
X119301457Y-109980228D02*
X119330485Y-109893142D01*
X119359514Y-109864114D01*
X119417571Y-109835085D01*
X119504657Y-109835085D01*
X119562714Y-109864114D01*
X119591742Y-109893142D01*
X119620771Y-109951200D01*
X119620771Y-110183428D01*
X119011171Y-110183428D01*
X119011171Y-109980228D01*
X119040200Y-109922171D01*
X119069228Y-109893142D01*
X119127285Y-109864114D01*
X119185342Y-109864114D01*
X119243400Y-109893142D01*
X119272428Y-109922171D01*
X119301457Y-109980228D01*
X119301457Y-110183428D01*
X119301457Y-109573828D02*
X119301457Y-109370628D01*
X119620771Y-109283542D02*
X119620771Y-109573828D01*
X119011171Y-109573828D01*
X119011171Y-109283542D01*
X119301457Y-109022285D02*
X119301457Y-108819085D01*
X119620771Y-108732000D02*
X119620771Y-109022285D01*
X119011171Y-109022285D01*
X119011171Y-108732000D01*
X119069228Y-108035314D02*
X119040200Y-108006285D01*
X119011171Y-107948228D01*
X119011171Y-107803085D01*
X119040200Y-107745028D01*
X119069228Y-107716000D01*
X119127285Y-107686971D01*
X119185342Y-107686971D01*
X119272428Y-107716000D01*
X119620771Y-108064342D01*
X119620771Y-107686971D01*
D13*
X145392579Y-91068114D02*
X145392579Y-91648685D01*
X145392579Y-91358400D02*
X144376579Y-91358400D01*
X144521721Y-91455161D01*
X144618483Y-91551923D01*
X144666864Y-91648685D01*
D14*
G04 #@! TO.C,D2*
X183080000Y-78905000D02*
X183545000Y-78905000D01*
X180455000Y-78905000D02*
X180920000Y-78905000D01*
X180919173Y-73557185D02*
G75*
G03*
X180455170Y-78905000I1080827J-2787815D01*
G01*
X183080827Y-73557185D02*
G75*
G02*
X183544830Y-78905000I-1080827J-2787815D01*
G01*
X183080429Y-74090521D02*
G75*
G02*
X183080000Y-78599684I-1080429J-2254479D01*
G01*
X180919571Y-74090521D02*
G75*
G03*
X180920000Y-78599684I1080429J-2254479D01*
G01*
D15*
G04 #@! TO.C,R5*
X111385000Y-79908000D02*
X111385000Y-86208000D01*
X113885000Y-86208000D02*
X113885000Y-79908000D01*
D14*
X112635000Y-87098000D02*
X112635000Y-86328000D01*
D15*
X112635000Y-77978000D02*
X112635000Y-79908000D01*
D14*
X112635000Y-79018000D02*
X112635000Y-79788000D01*
D15*
X113885000Y-79908000D02*
X111385000Y-79908000D01*
D14*
X114005000Y-79788000D02*
X111265000Y-79788000D01*
X111265000Y-86328000D02*
X114005000Y-86328000D01*
D15*
X112635000Y-88138000D02*
X112635000Y-86208000D01*
D14*
X114005000Y-86328000D02*
X114005000Y-79788000D01*
X111265000Y-79788000D02*
X111265000Y-86328000D01*
D15*
X111385000Y-86208000D02*
X113885000Y-86208000D01*
D14*
G04 #@! TO.C,R3*
X110336000Y-93758000D02*
X107596000Y-93758000D01*
D15*
X110216000Y-93878000D02*
X107716000Y-93878000D01*
X108966000Y-102108000D02*
X108966000Y-100178000D01*
D14*
X107596000Y-93758000D02*
X107596000Y-100298000D01*
D15*
X110216000Y-100178000D02*
X110216000Y-93878000D01*
D14*
X108966000Y-92988000D02*
X108966000Y-93758000D01*
D15*
X108966000Y-91948000D02*
X108966000Y-93878000D01*
X107716000Y-93878000D02*
X107716000Y-100178000D01*
X107716000Y-100178000D02*
X110216000Y-100178000D01*
D14*
X107596000Y-100298000D02*
X110336000Y-100298000D01*
X110336000Y-100298000D02*
X110336000Y-93758000D01*
X108966000Y-101068000D02*
X108966000Y-100298000D01*
G04 #@! TO.C,R4*
X116840000Y-87098000D02*
X116840000Y-86328000D01*
X118210000Y-86328000D02*
X118210000Y-79788000D01*
D15*
X115590000Y-79908000D02*
X115590000Y-86208000D01*
D14*
X115470000Y-86328000D02*
X118210000Y-86328000D01*
X118210000Y-79788000D02*
X115470000Y-79788000D01*
X115470000Y-79788000D02*
X115470000Y-86328000D01*
D15*
X118090000Y-79908000D02*
X115590000Y-79908000D01*
X116840000Y-77978000D02*
X116840000Y-79908000D01*
D14*
X116840000Y-79018000D02*
X116840000Y-79788000D01*
D15*
X116840000Y-88138000D02*
X116840000Y-86208000D01*
X115590000Y-86208000D02*
X118090000Y-86208000D01*
X118090000Y-86208000D02*
X118090000Y-79908000D01*
G04 #@! TO.C,Q1*
X179890000Y-87750000D02*
X179890000Y-91250000D01*
D14*
X179790000Y-87720000D02*
X179790000Y-91320000D01*
D15*
X179886375Y-87766375D02*
G75*
G02*
X184120000Y-89520000I1753625J-1753625D01*
G01*
D14*
X179801522Y-87681522D02*
G75*
G02*
X184240000Y-89520000I1838478J-1838478D01*
G01*
D15*
X179886375Y-91273625D02*
G75*
G03*
X184120000Y-89520000I1753625J1753625D01*
G01*
D14*
X179801522Y-91358478D02*
G75*
G03*
X184240000Y-89520000I1838478J1838478D01*
G01*
G04 #@! TO.C,J1*
X193117000Y-83900000D02*
X193167000Y-83949000D01*
X193117000Y-73900000D02*
X193167000Y-73949000D01*
X192900000Y-84117000D02*
X192924000Y-84142000D01*
X192250000Y-92810000D02*
X192250000Y-67690000D01*
X198310000Y-92810000D02*
X198310000Y-67690000D01*
X195575000Y-81358000D02*
X195600000Y-81382000D01*
X191250000Y-92810000D02*
X191250000Y-67690000D01*
X193117000Y-78900000D02*
X193167000Y-78949000D01*
X195575000Y-86358000D02*
X195600000Y-86382000D01*
X195333000Y-81550000D02*
X195383000Y-81600000D01*
X196310000Y-93050000D02*
X198550000Y-93050000D01*
X187690000Y-92810000D02*
X198310000Y-92810000D01*
X195333000Y-76550000D02*
X195383000Y-76600000D01*
X187690000Y-67690000D02*
X198310000Y-67690000D01*
X187690000Y-92810000D02*
X187690000Y-67690000D01*
X192900000Y-69117000D02*
X192924000Y-69142000D01*
X198550000Y-93050000D02*
X198550000Y-91050000D01*
X195333000Y-71550000D02*
X195383000Y-71600000D01*
X195333000Y-86550000D02*
X195383000Y-86600000D01*
X195575000Y-76358000D02*
X195600000Y-76382000D01*
X193117000Y-68900000D02*
X193167000Y-68949000D01*
X192900000Y-79117000D02*
X192924000Y-79142000D01*
X196250000Y-92810000D02*
X196250000Y-67690000D01*
X195575000Y-71358000D02*
X195600000Y-71382000D01*
X192900000Y-74117000D02*
X192924000Y-74142000D01*
X193554484Y-88610795D02*
G75*
G02*
X194946000Y-88611000I695516J-1639205D01*
G01*
X192610795Y-90945516D02*
G75*
G02*
X192611000Y-89554000I1639205J695516D01*
G01*
X196030389Y-90219186D02*
G75*
G02*
X195889000Y-90946000I-1780389J-30814D01*
G01*
X194945516Y-91889205D02*
G75*
G02*
X193554000Y-91889000I-695516J1639205D01*
G01*
X195888499Y-89554499D02*
G75*
G02*
X196030000Y-90250000I-1638499J-695501D01*
G01*
X196030000Y-70250000D02*
G75*
G03*
X196030000Y-70250000I-1780000J0D01*
G01*
X196030000Y-80250000D02*
G75*
G03*
X196030000Y-80250000I-1780000J0D01*
G01*
X196030000Y-75250000D02*
G75*
G03*
X196030000Y-75250000I-1780000J0D01*
G01*
X196030000Y-85250000D02*
G75*
G03*
X196030000Y-85250000I-1780000J0D01*
G01*
G04 #@! TO.C,SW2*
X187000000Y-59950000D02*
X175000000Y-59950000D01*
X175000000Y-62050000D02*
X175000000Y-62550000D01*
X175000000Y-62550000D02*
X187000000Y-62550000D01*
X187000000Y-62550000D02*
X187000000Y-62050000D01*
X175000000Y-59950000D02*
X175000000Y-60450000D01*
X187000000Y-60450000D02*
X187000000Y-59950000D01*
G04 #@! TO.C,K2*
X169700000Y-73750000D02*
X165700000Y-73750000D01*
X162800000Y-71950000D02*
X158200000Y-74450000D01*
X155450000Y-64300000D02*
X175050000Y-64300000D01*
X171100000Y-71950000D02*
X171900000Y-71950000D01*
X167700000Y-70150000D02*
X167700000Y-65950000D01*
X170200000Y-65950000D02*
X167700000Y-65950000D01*
X165700000Y-70150000D02*
X169700000Y-70150000D01*
X167700000Y-77950000D02*
X167700000Y-73750000D01*
X159600000Y-76200000D02*
X159600000Y-73700000D01*
X169700000Y-70150000D02*
X169700000Y-73750000D01*
X175150000Y-79800000D02*
X175150000Y-73200000D01*
X155350000Y-79800000D02*
X155350000Y-64200000D01*
X164300000Y-71950000D02*
X162800000Y-71950000D01*
X175150000Y-70800000D02*
X175150000Y-64200000D01*
X159600000Y-67800000D02*
X159600000Y-70250000D01*
X171100000Y-71950000D02*
X171100000Y-68350000D01*
X165700000Y-70150000D02*
X169700000Y-73750000D01*
X175050000Y-64300000D02*
X175050000Y-79700000D01*
X164300000Y-68350000D02*
X171100000Y-68350000D01*
X155450000Y-79700000D02*
X155450000Y-64300000D01*
X155350000Y-64200000D02*
X175150000Y-64200000D01*
X175050000Y-79700000D02*
X155450000Y-79700000D01*
X167700000Y-77950000D02*
X170200000Y-77950000D01*
X165700000Y-73750000D02*
X165700000Y-70150000D01*
X175150000Y-79800000D02*
X155350000Y-79800000D01*
X164300000Y-71950000D02*
X164300000Y-68350000D01*
G04 #@! TO.C,C1*
X185620000Y-82380000D02*
X185620000Y-85120000D01*
X178380000Y-82380000D02*
X178380000Y-85120000D01*
X178380000Y-85120000D02*
X185620000Y-85120000D01*
X178380000Y-82380000D02*
X185620000Y-82380000D01*
G04 #@! TO.C,K1*
X155450000Y-91000000D02*
X175050000Y-91000000D01*
X171100000Y-98650000D02*
X171100000Y-95050000D01*
X165700000Y-100450000D02*
X165700000Y-96850000D01*
X167700000Y-104650000D02*
X167700000Y-100450000D01*
X175150000Y-106500000D02*
X175150000Y-99900000D01*
X175050000Y-106400000D02*
X155450000Y-106400000D01*
X159600000Y-102900000D02*
X159600000Y-100400000D01*
X164300000Y-98650000D02*
X162800000Y-98650000D01*
X167700000Y-104650000D02*
X170200000Y-104650000D01*
X167700000Y-96850000D02*
X167700000Y-92650000D01*
X164300000Y-95050000D02*
X171100000Y-95050000D01*
X171100000Y-98650000D02*
X171900000Y-98650000D01*
X162800000Y-98650000D02*
X158200000Y-101150000D01*
X175150000Y-106500000D02*
X155350000Y-106500000D01*
X170200000Y-92650000D02*
X167700000Y-92650000D01*
X155450000Y-106400000D02*
X155450000Y-91000000D01*
X164300000Y-98650000D02*
X164300000Y-95050000D01*
X169700000Y-100450000D02*
X165700000Y-100450000D01*
X155350000Y-90900000D02*
X175150000Y-90900000D01*
X155350000Y-106500000D02*
X155350000Y-90900000D01*
X159600000Y-94500000D02*
X159600000Y-96950000D01*
X165700000Y-96850000D02*
X169700000Y-96850000D01*
X165700000Y-96850000D02*
X169700000Y-100450000D01*
X169700000Y-96850000D02*
X169700000Y-100450000D01*
X175050000Y-91000000D02*
X175050000Y-106400000D01*
X175150000Y-97500000D02*
X175150000Y-90900000D01*
G04 #@! TO.C,C2*
X104076000Y-111190000D02*
X104076000Y-114668000D01*
X103916000Y-104707000D02*
X103916000Y-108310000D01*
X101236000Y-103526000D02*
X101236000Y-115974000D01*
X104916000Y-105648000D02*
X104916000Y-108310000D01*
X101436000Y-103566000D02*
X101436000Y-115934000D01*
X103476000Y-111190000D02*
X103476000Y-115097000D01*
X101116000Y-103505000D02*
X101116000Y-115995000D01*
X100996000Y-103486000D02*
X100996000Y-116014000D01*
X105036000Y-105793000D02*
X105036000Y-108310000D01*
X103636000Y-111190000D02*
X103636000Y-114993000D01*
X104196000Y-104931000D02*
X104196000Y-108310000D01*
X102076000Y-103742000D02*
X102076000Y-115758000D01*
X104516000Y-105222000D02*
X104516000Y-108310000D01*
X105156000Y-111190000D02*
X105156000Y-113554000D01*
X103676000Y-104534000D02*
X103676000Y-108310000D01*
X103156000Y-111190000D02*
X103156000Y-115286000D01*
X103316000Y-111190000D02*
X103316000Y-115195000D01*
X102876000Y-111190000D02*
X102876000Y-115432000D01*
X105236000Y-106054000D02*
X105236000Y-108310000D01*
X104956000Y-111190000D02*
X104956000Y-113805000D01*
X103396000Y-104353000D02*
X103396000Y-108310000D01*
X100796000Y-103460000D02*
X100796000Y-116040000D01*
X104556000Y-111190000D02*
X104556000Y-114239000D01*
X105196000Y-106000000D02*
X105196000Y-108310000D01*
X103596000Y-111190000D02*
X103596000Y-115020000D01*
X93257918Y-106175000D02*
X94507918Y-106175000D01*
X102636000Y-111190000D02*
X102636000Y-115543000D01*
X105556000Y-106542000D02*
X105556000Y-112958000D01*
X102756000Y-104011000D02*
X102756000Y-108310000D01*
X106076000Y-107650000D02*
X106076000Y-111850000D01*
X103436000Y-104378000D02*
X103436000Y-108310000D01*
X102556000Y-103922000D02*
X102556000Y-108310000D01*
X100916000Y-103475000D02*
X100916000Y-116025000D01*
X102756000Y-111190000D02*
X102756000Y-115489000D01*
X102436000Y-103873000D02*
X102436000Y-108310000D01*
X104676000Y-105383000D02*
X104676000Y-108310000D01*
X104036000Y-111190000D02*
X104036000Y-114700000D01*
X101476000Y-103575000D02*
X101476000Y-115925000D01*
X104876000Y-111190000D02*
X104876000Y-113898000D01*
X106116000Y-107766000D02*
X106116000Y-111734000D01*
X105076000Y-111190000D02*
X105076000Y-113657000D01*
X105796000Y-106986000D02*
X105796000Y-112514000D01*
X102676000Y-103974000D02*
X102676000Y-108310000D01*
X101356000Y-103549000D02*
X101356000Y-115951000D01*
X102716000Y-111190000D02*
X102716000Y-115508000D01*
X100115000Y-103420000D02*
X100115000Y-116080000D01*
X102396000Y-111190000D02*
X102396000Y-115643000D01*
X101316000Y-103541000D02*
X101316000Y-115959000D01*
X103116000Y-104192000D02*
X103116000Y-108310000D01*
X105636000Y-106681000D02*
X105636000Y-112819000D01*
X103996000Y-104768000D02*
X103996000Y-108310000D01*
X106436000Y-109433000D02*
X106436000Y-110067000D01*
X103076000Y-104170000D02*
X103076000Y-108310000D01*
X104236000Y-104965000D02*
X104236000Y-108310000D01*
X102796000Y-104029000D02*
X102796000Y-108310000D01*
X105996000Y-107438000D02*
X105996000Y-112062000D01*
X101076000Y-103498000D02*
X101076000Y-116002000D01*
X100395000Y-103428000D02*
X100395000Y-116072000D01*
X103916000Y-111190000D02*
X103916000Y-114793000D01*
X101636000Y-103613000D02*
X101636000Y-115887000D01*
X104796000Y-105512000D02*
X104796000Y-108310000D01*
X104476000Y-105183000D02*
X104476000Y-108310000D01*
X104876000Y-105602000D02*
X104876000Y-108310000D01*
X104396000Y-105108000D02*
X104396000Y-108310000D01*
X103556000Y-104454000D02*
X103556000Y-108310000D01*
X103996000Y-111190000D02*
X103996000Y-114732000D01*
X102036000Y-103729000D02*
X102036000Y-115771000D01*
X103796000Y-111190000D02*
X103796000Y-114881000D01*
X103276000Y-104282000D02*
X103276000Y-108310000D01*
X101676000Y-103624000D02*
X101676000Y-115876000D01*
X105236000Y-111190000D02*
X105236000Y-113446000D01*
X103036000Y-111190000D02*
X103036000Y-115351000D01*
X104636000Y-105342000D02*
X104636000Y-108310000D01*
X103956000Y-104738000D02*
X103956000Y-108310000D01*
X105476000Y-106411000D02*
X105476000Y-113089000D01*
X100355000Y-103426000D02*
X100355000Y-116074000D01*
X104196000Y-111190000D02*
X104196000Y-114569000D01*
X105116000Y-111190000D02*
X105116000Y-113606000D01*
X103036000Y-104149000D02*
X103036000Y-108310000D01*
X100435000Y-103430000D02*
X100435000Y-116070000D01*
X103596000Y-104480000D02*
X103596000Y-108310000D01*
X105396000Y-106286000D02*
X105396000Y-113214000D01*
X102156000Y-103769000D02*
X102156000Y-115731000D01*
X102276000Y-103811000D02*
X102276000Y-115689000D01*
X102836000Y-111190000D02*
X102836000Y-115452000D01*
X104756000Y-105468000D02*
X104756000Y-108310000D01*
X106236000Y-108167000D02*
X106236000Y-111333000D01*
X104996000Y-111190000D02*
X104996000Y-113757000D01*
X100715000Y-103452000D02*
X100715000Y-116048000D01*
X100315000Y-103424000D02*
X100315000Y-116076000D01*
X105676000Y-106754000D02*
X105676000Y-112746000D01*
X104516000Y-111190000D02*
X104516000Y-114278000D01*
X102476000Y-111190000D02*
X102476000Y-115611000D01*
X101276000Y-103534000D02*
X101276000Y-115966000D01*
X102516000Y-103905000D02*
X102516000Y-108310000D01*
X103196000Y-111190000D02*
X103196000Y-115264000D01*
X106316000Y-108509000D02*
X106316000Y-110991000D01*
X103876000Y-104677000D02*
X103876000Y-108310000D01*
X105156000Y-105946000D02*
X105156000Y-108310000D01*
X102916000Y-111190000D02*
X102916000Y-115412000D01*
X102556000Y-111190000D02*
X102556000Y-115578000D01*
X102916000Y-104088000D02*
X102916000Y-108310000D01*
X104036000Y-104800000D02*
X104036000Y-108310000D01*
X103956000Y-111190000D02*
X103956000Y-114762000D01*
X104356000Y-105072000D02*
X104356000Y-108310000D01*
X102476000Y-103889000D02*
X102476000Y-108310000D01*
X100755000Y-103456000D02*
X100755000Y-116044000D01*
X106396000Y-108993000D02*
X106396000Y-110507000D01*
X101196000Y-103519000D02*
X101196000Y-115981000D01*
X103116000Y-111190000D02*
X103116000Y-115308000D01*
X103676000Y-111190000D02*
X103676000Y-114966000D01*
X104476000Y-111190000D02*
X104476000Y-114317000D01*
X106196000Y-108022000D02*
X106196000Y-111478000D01*
X103516000Y-111190000D02*
X103516000Y-115072000D01*
X101996000Y-103716000D02*
X101996000Y-115784000D01*
X104676000Y-111190000D02*
X104676000Y-114117000D01*
X102836000Y-104048000D02*
X102836000Y-108310000D01*
X102116000Y-103755000D02*
X102116000Y-115745000D01*
X105876000Y-107156000D02*
X105876000Y-112344000D01*
X100555000Y-103438000D02*
X100555000Y-116062000D01*
X102956000Y-111190000D02*
X102956000Y-115392000D01*
X105076000Y-105843000D02*
X105076000Y-108310000D01*
X101836000Y-103667000D02*
X101836000Y-115833000D01*
X105436000Y-106348000D02*
X105436000Y-113152000D01*
X104956000Y-105695000D02*
X104956000Y-108310000D01*
X103236000Y-104259000D02*
X103236000Y-108310000D01*
X104756000Y-111190000D02*
X104756000Y-114032000D01*
X102876000Y-104068000D02*
X102876000Y-108310000D01*
X102716000Y-103992000D02*
X102716000Y-108310000D01*
X103076000Y-111190000D02*
X103076000Y-115330000D01*
X103396000Y-111190000D02*
X103396000Y-115147000D01*
X104076000Y-104832000D02*
X104076000Y-108310000D01*
X103796000Y-104619000D02*
X103796000Y-108310000D01*
X104236000Y-111190000D02*
X104236000Y-114535000D01*
X101876000Y-103679000D02*
X101876000Y-115821000D01*
X106356000Y-108722000D02*
X106356000Y-110778000D01*
X106036000Y-107541000D02*
X106036000Y-111959000D01*
X104356000Y-111190000D02*
X104356000Y-114428000D01*
X102196000Y-103783000D02*
X102196000Y-115717000D01*
X102396000Y-103857000D02*
X102396000Y-108310000D01*
X101156000Y-103512000D02*
X101156000Y-115988000D01*
X103836000Y-104648000D02*
X103836000Y-108310000D01*
X100635000Y-103444000D02*
X100635000Y-116056000D01*
X103236000Y-111190000D02*
X103236000Y-115241000D01*
X102676000Y-111190000D02*
X102676000Y-115526000D01*
X100595000Y-103441000D02*
X100595000Y-116059000D01*
X104916000Y-111190000D02*
X104916000Y-113852000D01*
X102956000Y-104108000D02*
X102956000Y-108310000D01*
X104396000Y-111190000D02*
X104396000Y-114392000D01*
X104276000Y-105000000D02*
X104276000Y-108310000D01*
X105596000Y-106610000D02*
X105596000Y-112890000D01*
X105316000Y-106167000D02*
X105316000Y-113333000D01*
X103876000Y-111190000D02*
X103876000Y-114823000D01*
X102436000Y-111190000D02*
X102436000Y-115627000D01*
X105516000Y-106475000D02*
X105516000Y-113025000D01*
X101036000Y-103492000D02*
X101036000Y-116008000D01*
X101756000Y-103645000D02*
X101756000Y-115855000D01*
X103716000Y-111190000D02*
X103716000Y-114938000D01*
X104436000Y-111190000D02*
X104436000Y-114355000D01*
X103716000Y-104562000D02*
X103716000Y-108310000D01*
X100275000Y-103423000D02*
X100275000Y-116077000D01*
X104836000Y-111190000D02*
X104836000Y-113944000D01*
X100956000Y-103481000D02*
X100956000Y-116019000D01*
X106156000Y-107889000D02*
X106156000Y-111611000D01*
X104716000Y-105425000D02*
X104716000Y-108310000D01*
X106276000Y-108328000D02*
X106276000Y-111172000D01*
X104156000Y-104898000D02*
X104156000Y-108310000D01*
X101556000Y-103594000D02*
X101556000Y-115906000D01*
X102236000Y-103797000D02*
X102236000Y-115703000D01*
X104116000Y-104865000D02*
X104116000Y-108310000D01*
X103516000Y-104428000D02*
X103516000Y-108310000D01*
X103756000Y-111190000D02*
X103756000Y-114910000D01*
X103356000Y-111190000D02*
X103356000Y-115171000D01*
X100155000Y-103420000D02*
X100155000Y-116080000D01*
X105956000Y-107340000D02*
X105956000Y-112160000D01*
X104316000Y-111190000D02*
X104316000Y-114464000D01*
X103436000Y-111190000D02*
X103436000Y-115122000D01*
X102596000Y-111190000D02*
X102596000Y-115561000D01*
X102796000Y-111190000D02*
X102796000Y-115471000D01*
X104436000Y-105145000D02*
X104436000Y-108310000D01*
X102636000Y-103957000D02*
X102636000Y-108310000D01*
X104556000Y-105261000D02*
X104556000Y-108310000D01*
X103276000Y-111190000D02*
X103276000Y-115218000D01*
X105916000Y-107246000D02*
X105916000Y-112254000D01*
X101596000Y-103604000D02*
X101596000Y-115896000D01*
X105716000Y-106829000D02*
X105716000Y-112671000D01*
X104316000Y-105036000D02*
X104316000Y-108310000D01*
X102356000Y-103842000D02*
X102356000Y-115658000D01*
X103356000Y-104329000D02*
X103356000Y-108310000D01*
X100475000Y-103432000D02*
X100475000Y-116068000D01*
X100675000Y-103448000D02*
X100675000Y-116052000D01*
X101396000Y-103558000D02*
X101396000Y-115942000D01*
X102316000Y-103826000D02*
X102316000Y-115674000D01*
X101916000Y-103691000D02*
X101916000Y-115809000D01*
X103476000Y-104403000D02*
X103476000Y-108310000D01*
X104716000Y-111190000D02*
X104716000Y-114075000D01*
X104596000Y-111190000D02*
X104596000Y-114199000D01*
X104156000Y-111190000D02*
X104156000Y-114602000D01*
X100195000Y-103421000D02*
X100195000Y-116079000D01*
X102996000Y-104128000D02*
X102996000Y-108310000D01*
X105756000Y-106906000D02*
X105756000Y-112594000D01*
X103636000Y-104507000D02*
X103636000Y-108310000D01*
X101796000Y-103656000D02*
X101796000Y-115844000D01*
X105196000Y-111190000D02*
X105196000Y-113500000D01*
X93882918Y-105550000D02*
X93882918Y-106800000D01*
X101956000Y-103703000D02*
X101956000Y-115797000D01*
X103316000Y-104305000D02*
X103316000Y-108310000D01*
X104276000Y-111190000D02*
X104276000Y-114500000D01*
X100515000Y-103435000D02*
X100515000Y-116065000D01*
X103196000Y-104236000D02*
X103196000Y-108310000D01*
X102516000Y-111190000D02*
X102516000Y-115595000D01*
X100235000Y-103422000D02*
X100235000Y-116078000D01*
X100075000Y-103420000D02*
X100075000Y-116080000D01*
X105276000Y-106110000D02*
X105276000Y-113390000D01*
X104836000Y-105556000D02*
X104836000Y-108310000D01*
X104636000Y-111190000D02*
X104636000Y-114158000D01*
X105836000Y-107069000D02*
X105836000Y-112431000D01*
X105036000Y-111190000D02*
X105036000Y-113707000D01*
X100836000Y-103465000D02*
X100836000Y-116035000D01*
X103556000Y-111190000D02*
X103556000Y-115046000D01*
X103836000Y-111190000D02*
X103836000Y-114852000D01*
X105356000Y-106226000D02*
X105356000Y-113274000D01*
X101516000Y-103584000D02*
X101516000Y-115916000D01*
X104596000Y-105301000D02*
X104596000Y-108310000D01*
X103756000Y-104590000D02*
X103756000Y-108310000D01*
X102596000Y-103939000D02*
X102596000Y-108310000D01*
X104796000Y-111190000D02*
X104796000Y-113988000D01*
X101716000Y-103634000D02*
X101716000Y-115866000D01*
X103156000Y-104214000D02*
X103156000Y-108310000D01*
X104116000Y-111190000D02*
X104116000Y-114635000D01*
X104996000Y-105743000D02*
X104996000Y-108310000D01*
X105116000Y-105894000D02*
X105116000Y-108310000D01*
X102996000Y-111190000D02*
X102996000Y-115372000D01*
X100876000Y-103470000D02*
X100876000Y-116030000D01*
X106445000Y-109750000D02*
G75*
G03*
X106445000Y-109750000I-6370000J0D01*
G01*
G04 #@! TO.C,R7*
X114033000Y-72866000D02*
X114033000Y-66326000D01*
D15*
X111413000Y-72746000D02*
X113913000Y-72746000D01*
X112663000Y-74676000D02*
X112663000Y-72746000D01*
X113913000Y-66446000D02*
X111413000Y-66446000D01*
D14*
X111293000Y-72866000D02*
X114033000Y-72866000D01*
D15*
X111413000Y-66446000D02*
X111413000Y-72746000D01*
D14*
X112663000Y-65556000D02*
X112663000Y-66326000D01*
D15*
X113913000Y-72746000D02*
X113913000Y-66446000D01*
D14*
X111293000Y-66326000D02*
X111293000Y-72866000D01*
X112663000Y-73636000D02*
X112663000Y-72866000D01*
D15*
X112663000Y-64516000D02*
X112663000Y-66446000D01*
D14*
X114033000Y-66326000D02*
X111293000Y-66326000D01*
D15*
G04 #@! TO.C,R9*
X107335000Y-79908000D02*
X107335000Y-86208000D01*
D14*
X107215000Y-79788000D02*
X107215000Y-86328000D01*
X108585000Y-87098000D02*
X108585000Y-86328000D01*
D15*
X107335000Y-86208000D02*
X109835000Y-86208000D01*
D14*
X107215000Y-86328000D02*
X109955000Y-86328000D01*
X109955000Y-86328000D02*
X109955000Y-79788000D01*
D15*
X109835000Y-86208000D02*
X109835000Y-79908000D01*
X109835000Y-79908000D02*
X107335000Y-79908000D01*
D14*
X109955000Y-79788000D02*
X107215000Y-79788000D01*
X108585000Y-79018000D02*
X108585000Y-79788000D01*
D15*
X108585000Y-88138000D02*
X108585000Y-86208000D01*
X108585000Y-77978000D02*
X108585000Y-79908000D01*
G04 #@! TO.C,R8*
X115463000Y-66446000D02*
X115463000Y-72746000D01*
X115463000Y-72746000D02*
X117963000Y-72746000D01*
D14*
X116713000Y-65556000D02*
X116713000Y-66326000D01*
D15*
X117963000Y-66446000D02*
X115463000Y-66446000D01*
X116713000Y-74676000D02*
X116713000Y-72746000D01*
D14*
X115343000Y-72866000D02*
X118083000Y-72866000D01*
X116713000Y-73636000D02*
X116713000Y-72866000D01*
X118083000Y-72866000D02*
X118083000Y-66326000D01*
X115343000Y-66326000D02*
X115343000Y-72866000D01*
D15*
X117963000Y-72746000D02*
X117963000Y-66446000D01*
X116713000Y-64516000D02*
X116713000Y-66446000D01*
D14*
X118083000Y-66326000D02*
X115343000Y-66326000D01*
D11*
G04 #@! TO.C,U1*
X85860000Y-99280000D02*
X85860000Y-63720000D01*
X103640000Y-63720000D02*
X103640000Y-99280000D01*
X89670000Y-85945000D02*
X99830000Y-85945000D01*
X90940000Y-62450000D02*
X98560000Y-62450000D01*
X96655000Y-86580000D02*
X99830000Y-86580000D01*
X99830000Y-89120000D02*
X96655000Y-89120000D01*
X96020000Y-96232000D02*
X93480000Y-96232000D01*
X93480000Y-91660000D02*
X96020000Y-91660000D01*
X89670000Y-85945000D02*
X89670000Y-75785000D01*
X98560000Y-62450000D02*
X98560000Y-63720000D01*
X98560000Y-68800000D02*
X98560000Y-63720000D01*
X96655000Y-89120000D02*
X96655000Y-86580000D01*
X90940000Y-63720000D02*
X90940000Y-62450000D01*
X103640000Y-99280000D02*
X85860000Y-99280000D01*
X90940000Y-68800000D02*
X98560000Y-68800000D01*
X99830000Y-85945000D02*
X99830000Y-75785000D01*
X99830000Y-75785000D02*
X89670000Y-75785000D01*
X96020000Y-91660000D02*
X96020000Y-96232000D01*
X90940000Y-68800000D02*
X90940000Y-63720000D01*
X85860000Y-63720000D02*
X103640000Y-63720000D01*
X99830000Y-86580000D02*
X99830000Y-89120000D01*
X93480000Y-96232000D02*
X93480000Y-91660000D01*
D15*
X95385000Y-78325000D02*
X95639000Y-78579000D01*
X95639000Y-78579000D02*
X95258000Y-78833000D01*
X95258000Y-78833000D02*
X95004000Y-78579000D01*
X95004000Y-78579000D02*
X95385000Y-78325000D01*
G36*
X95639000Y-78579000D02*
G01*
X95258000Y-78833000D01*
X95004000Y-78579000D01*
X95385000Y-78325000D01*
X95639000Y-78579000D01*
G37*
X95639000Y-78579000D02*
X95258000Y-78833000D01*
X95004000Y-78579000D01*
X95385000Y-78325000D01*
X95639000Y-78579000D01*
X94877000Y-78706000D02*
X95131000Y-78960000D01*
X95131000Y-78960000D02*
X94750000Y-79214000D01*
X94750000Y-79214000D02*
X94496000Y-78960000D01*
X94496000Y-78960000D02*
X94877000Y-78706000D01*
G36*
X95131000Y-78960000D02*
G01*
X94750000Y-79214000D01*
X94496000Y-78960000D01*
X94877000Y-78706000D01*
X95131000Y-78960000D01*
G37*
X95131000Y-78960000D02*
X94750000Y-79214000D01*
X94496000Y-78960000D01*
X94877000Y-78706000D01*
X95131000Y-78960000D01*
X94242000Y-79849000D02*
X94496000Y-80103000D01*
X94496000Y-80103000D02*
X94115000Y-80357000D01*
X94115000Y-80357000D02*
X93861000Y-80103000D01*
X93861000Y-80103000D02*
X94242000Y-79849000D01*
G36*
X94496000Y-80103000D02*
G01*
X94115000Y-80357000D01*
X93861000Y-80103000D01*
X94242000Y-79849000D01*
X94496000Y-80103000D01*
G37*
X94496000Y-80103000D02*
X94115000Y-80357000D01*
X93861000Y-80103000D01*
X94242000Y-79849000D01*
X94496000Y-80103000D01*
X94623000Y-77563000D02*
X94877000Y-77817000D01*
X94877000Y-77817000D02*
X94496000Y-78071000D01*
X94496000Y-78071000D02*
X94242000Y-77817000D01*
X94242000Y-77817000D02*
X94623000Y-77563000D01*
G36*
X94877000Y-77817000D02*
G01*
X94496000Y-78071000D01*
X94242000Y-77817000D01*
X94623000Y-77563000D01*
X94877000Y-77817000D01*
G37*
X94877000Y-77817000D02*
X94496000Y-78071000D01*
X94242000Y-77817000D01*
X94623000Y-77563000D01*
X94877000Y-77817000D01*
X94369000Y-79087000D02*
X94623000Y-79341000D01*
X94623000Y-79341000D02*
X94242000Y-79595000D01*
X94242000Y-79595000D02*
X93988000Y-79341000D01*
X93988000Y-79341000D02*
X94369000Y-79087000D01*
G36*
X94623000Y-79341000D02*
G01*
X94242000Y-79595000D01*
X93988000Y-79341000D01*
X94369000Y-79087000D01*
X94623000Y-79341000D01*
G37*
X94623000Y-79341000D02*
X94242000Y-79595000D01*
X93988000Y-79341000D01*
X94369000Y-79087000D01*
X94623000Y-79341000D01*
X95004000Y-77944000D02*
X95258000Y-78198000D01*
X95258000Y-78198000D02*
X94877000Y-78452000D01*
X94877000Y-78452000D02*
X94623000Y-78198000D01*
X94623000Y-78198000D02*
X95004000Y-77944000D01*
G36*
X95258000Y-78198000D02*
G01*
X94877000Y-78452000D01*
X94623000Y-78198000D01*
X95004000Y-77944000D01*
X95258000Y-78198000D01*
G37*
X95258000Y-78198000D02*
X94877000Y-78452000D01*
X94623000Y-78198000D01*
X95004000Y-77944000D01*
X95258000Y-78198000D01*
X94750000Y-79468000D02*
X95004000Y-79722000D01*
X95004000Y-79722000D02*
X94623000Y-79976000D01*
X94623000Y-79976000D02*
X94369000Y-79722000D01*
X94369000Y-79722000D02*
X94750000Y-79468000D01*
G36*
X95004000Y-79722000D02*
G01*
X94623000Y-79976000D01*
X94369000Y-79722000D01*
X94750000Y-79468000D01*
X95004000Y-79722000D01*
G37*
X95004000Y-79722000D02*
X94623000Y-79976000D01*
X94369000Y-79722000D01*
X94750000Y-79468000D01*
X95004000Y-79722000D01*
X95258000Y-79087000D02*
X95512000Y-79341000D01*
X95512000Y-79341000D02*
X95131000Y-79595000D01*
X95131000Y-79595000D02*
X94877000Y-79341000D01*
X94877000Y-79341000D02*
X95258000Y-79087000D01*
G36*
X95512000Y-79341000D02*
G01*
X95131000Y-79595000D01*
X94877000Y-79341000D01*
X95258000Y-79087000D01*
X95512000Y-79341000D01*
G37*
X95512000Y-79341000D02*
X95131000Y-79595000D01*
X94877000Y-79341000D01*
X95258000Y-79087000D01*
X95512000Y-79341000D01*
D16*
G04 #@! TO.C,JP1*
X145674640Y-62326480D02*
X145674640Y-59827120D01*
X145674640Y-81823520D02*
X145674640Y-84322880D01*
X145674640Y-84322880D02*
X125174300Y-84322880D01*
X145674640Y-62326480D02*
X125174300Y-62326480D01*
X145674640Y-81823520D02*
X125174300Y-81823520D01*
X125174300Y-84322880D02*
X125174300Y-81823520D01*
X125174300Y-59827120D02*
X125174300Y-62326480D01*
X145674640Y-59827120D02*
X125174300Y-59827120D01*
D14*
G04 #@! TO.C,D4*
X165000000Y-63170000D02*
X165000000Y-59330000D01*
X167260000Y-61250000D02*
X165000000Y-61250000D01*
X163740000Y-63170000D02*
X163740000Y-59330000D01*
X157160000Y-63170000D02*
X165000000Y-63170000D01*
X163860000Y-63170000D02*
X163860000Y-59330000D01*
X157160000Y-59330000D02*
X157160000Y-63170000D01*
X163620000Y-63170000D02*
X163620000Y-59330000D01*
X165000000Y-59330000D02*
X157160000Y-59330000D01*
X154900000Y-61250000D02*
X157160000Y-61250000D01*
G04 #@! TO.C,R6*
X108458000Y-73636000D02*
X108458000Y-72866000D01*
D15*
X109708000Y-72746000D02*
X109708000Y-66446000D01*
D14*
X109828000Y-66326000D02*
X107088000Y-66326000D01*
X109828000Y-72866000D02*
X109828000Y-66326000D01*
X107088000Y-72866000D02*
X109828000Y-72866000D01*
X107088000Y-66326000D02*
X107088000Y-72866000D01*
D15*
X107208000Y-72746000D02*
X109708000Y-72746000D01*
X108458000Y-64516000D02*
X108458000Y-66446000D01*
D14*
X108458000Y-65556000D02*
X108458000Y-66326000D01*
D15*
X108458000Y-74676000D02*
X108458000Y-72746000D01*
X109708000Y-66446000D02*
X107208000Y-66446000D01*
X107208000Y-66446000D02*
X107208000Y-72746000D01*
D14*
G04 #@! TO.C,U3*
X173605000Y-82779000D02*
X163365000Y-82779000D01*
X163365000Y-87420000D02*
X163365000Y-82779000D01*
X173605000Y-85910000D02*
X163365000Y-85910000D01*
X173605000Y-87420000D02*
X163365000Y-87420000D01*
X170335000Y-87420000D02*
X170335000Y-85910000D01*
X166634000Y-87420000D02*
X166634000Y-85910000D01*
X173605000Y-87420000D02*
X173605000Y-82779000D01*
G04 #@! TO.C,C3*
X114215000Y-103974000D02*
X114215000Y-116626000D01*
X118216000Y-111740000D02*
X118216000Y-115014000D01*
X117576000Y-105084000D02*
X117576000Y-108860000D01*
X119736000Y-107619000D02*
X119736000Y-112981000D01*
X118736000Y-111740000D02*
X118736000Y-114494000D01*
X118976000Y-111740000D02*
X118976000Y-114207000D01*
X118656000Y-111740000D02*
X118656000Y-114582000D01*
X115456000Y-104144000D02*
X115456000Y-116456000D01*
X117776000Y-105227000D02*
X117776000Y-108860000D01*
X118856000Y-111740000D02*
X118856000Y-114355000D01*
X115776000Y-104229000D02*
X115776000Y-116371000D01*
X114255000Y-103976000D02*
X114255000Y-116624000D01*
X117456000Y-111740000D02*
X117456000Y-115596000D01*
X120256000Y-109272000D02*
X120256000Y-111328000D01*
X115496000Y-104154000D02*
X115496000Y-116446000D01*
X120176000Y-108878000D02*
X120176000Y-111722000D01*
X118176000Y-111740000D02*
X118176000Y-115050000D01*
X118896000Y-111740000D02*
X118896000Y-114307000D01*
X116056000Y-104319000D02*
X116056000Y-116281000D01*
X116456000Y-104472000D02*
X116456000Y-108860000D01*
X116376000Y-111740000D02*
X116376000Y-116161000D01*
X116816000Y-104638000D02*
X116816000Y-108860000D01*
X118216000Y-105586000D02*
X118216000Y-108860000D01*
X116536000Y-111740000D02*
X116536000Y-116093000D01*
X120056000Y-108439000D02*
X120056000Y-112161000D01*
X116776000Y-111740000D02*
X116776000Y-115982000D01*
X117056000Y-104764000D02*
X117056000Y-108860000D01*
X117096000Y-104786000D02*
X117096000Y-108860000D01*
X117136000Y-111740000D02*
X117136000Y-115791000D01*
X116456000Y-111740000D02*
X116456000Y-116128000D01*
X117736000Y-105198000D02*
X117736000Y-108860000D01*
X117296000Y-111740000D02*
X117296000Y-115697000D01*
X114095000Y-103971000D02*
X114095000Y-116629000D01*
X117976000Y-111740000D02*
X117976000Y-115218000D01*
X113975000Y-103970000D02*
X113975000Y-116630000D01*
X114495000Y-103991000D02*
X114495000Y-116609000D01*
X115376000Y-104125000D02*
X115376000Y-116475000D01*
X115696000Y-104206000D02*
X115696000Y-116394000D01*
X115296000Y-104108000D02*
X115296000Y-116492000D01*
X114816000Y-104025000D02*
X114816000Y-116575000D01*
X119016000Y-111740000D02*
X119016000Y-114156000D01*
X119576000Y-107304000D02*
X119576000Y-113296000D01*
X118096000Y-105481000D02*
X118096000Y-108860000D01*
X114415000Y-103985000D02*
X114415000Y-116615000D01*
X119936000Y-108091000D02*
X119936000Y-112509000D01*
X118816000Y-111740000D02*
X118816000Y-114402000D01*
X116936000Y-104699000D02*
X116936000Y-108860000D01*
X115816000Y-104241000D02*
X115816000Y-116359000D01*
X119536000Y-107231000D02*
X119536000Y-113369000D01*
X115056000Y-104062000D02*
X115056000Y-116538000D01*
X117096000Y-111740000D02*
X117096000Y-115814000D01*
X116416000Y-104455000D02*
X116416000Y-108860000D01*
X119096000Y-111740000D02*
X119096000Y-114050000D01*
X118016000Y-105415000D02*
X118016000Y-108860000D01*
X115256000Y-104099000D02*
X115256000Y-116501000D01*
X117736000Y-111740000D02*
X117736000Y-115402000D01*
X120096000Y-108572000D02*
X120096000Y-112028000D01*
X117536000Y-105057000D02*
X117536000Y-108860000D01*
X117456000Y-105004000D02*
X117456000Y-108860000D01*
X116496000Y-111740000D02*
X116496000Y-116111000D01*
X118536000Y-105892000D02*
X118536000Y-108860000D01*
X116536000Y-104507000D02*
X116536000Y-108860000D01*
X116936000Y-111740000D02*
X116936000Y-115901000D01*
X117616000Y-111740000D02*
X117616000Y-115488000D01*
X115176000Y-104084000D02*
X115176000Y-116516000D01*
X117856000Y-105288000D02*
X117856000Y-108860000D01*
X117856000Y-111740000D02*
X117856000Y-115312000D01*
X119296000Y-106836000D02*
X119296000Y-113764000D01*
X117936000Y-111740000D02*
X117936000Y-115250000D01*
X116416000Y-111740000D02*
X116416000Y-116145000D01*
X114135000Y-103972000D02*
X114135000Y-116628000D01*
X117336000Y-111740000D02*
X117336000Y-115672000D01*
X119016000Y-106444000D02*
X119016000Y-108860000D01*
X115336000Y-104116000D02*
X115336000Y-116484000D01*
X117376000Y-111740000D02*
X117376000Y-115647000D01*
X119456000Y-107092000D02*
X119456000Y-113508000D01*
X115536000Y-104163000D02*
X115536000Y-116437000D01*
X107157918Y-106725000D02*
X108407918Y-106725000D01*
X116896000Y-111740000D02*
X116896000Y-115922000D01*
X116376000Y-104439000D02*
X116376000Y-108860000D01*
X117256000Y-111740000D02*
X117256000Y-115721000D01*
X117056000Y-111740000D02*
X117056000Y-115836000D01*
X117816000Y-105257000D02*
X117816000Y-108860000D01*
X114615000Y-104002000D02*
X114615000Y-116598000D01*
X119136000Y-111740000D02*
X119136000Y-113996000D01*
X116976000Y-104720000D02*
X116976000Y-108860000D01*
X116856000Y-111740000D02*
X116856000Y-115942000D01*
X116176000Y-104361000D02*
X116176000Y-116239000D01*
X114055000Y-103970000D02*
X114055000Y-116630000D01*
X114375000Y-103982000D02*
X114375000Y-116618000D01*
X118496000Y-105851000D02*
X118496000Y-108860000D01*
X117936000Y-105350000D02*
X117936000Y-108860000D01*
X114295000Y-103978000D02*
X114295000Y-116622000D01*
X116896000Y-104678000D02*
X116896000Y-108860000D01*
X117616000Y-105112000D02*
X117616000Y-108860000D01*
X115016000Y-104055000D02*
X115016000Y-116545000D01*
X120216000Y-109059000D02*
X120216000Y-111541000D01*
X118136000Y-105515000D02*
X118136000Y-108860000D01*
X118256000Y-111740000D02*
X118256000Y-114978000D01*
X114696000Y-104010000D02*
X114696000Y-116590000D01*
X117776000Y-111740000D02*
X117776000Y-115373000D01*
X117216000Y-104855000D02*
X117216000Y-108860000D01*
X118416000Y-105772000D02*
X118416000Y-108860000D01*
X115216000Y-104091000D02*
X115216000Y-116509000D01*
X118776000Y-106152000D02*
X118776000Y-108860000D01*
X116256000Y-104392000D02*
X116256000Y-116208000D01*
X118936000Y-106343000D02*
X118936000Y-108860000D01*
X118256000Y-105622000D02*
X118256000Y-108860000D01*
X114896000Y-104036000D02*
X114896000Y-116564000D01*
X116656000Y-104561000D02*
X116656000Y-108860000D01*
X118176000Y-105550000D02*
X118176000Y-108860000D01*
X115576000Y-104174000D02*
X115576000Y-116426000D01*
X116816000Y-111740000D02*
X116816000Y-115962000D01*
X116016000Y-104305000D02*
X116016000Y-116295000D01*
X118456000Y-105811000D02*
X118456000Y-108860000D01*
X119816000Y-107796000D02*
X119816000Y-112804000D01*
X119256000Y-106776000D02*
X119256000Y-113824000D01*
X117496000Y-105030000D02*
X117496000Y-108860000D01*
X116296000Y-111740000D02*
X116296000Y-116193000D01*
X118336000Y-111740000D02*
X118336000Y-114905000D01*
X117896000Y-111740000D02*
X117896000Y-115282000D01*
X118536000Y-111740000D02*
X118536000Y-114708000D01*
X116776000Y-104618000D02*
X116776000Y-108860000D01*
X115976000Y-104292000D02*
X115976000Y-116308000D01*
X119216000Y-106717000D02*
X119216000Y-113883000D01*
X114655000Y-104006000D02*
X114655000Y-116594000D01*
X116496000Y-104489000D02*
X116496000Y-108860000D01*
X118736000Y-106106000D02*
X118736000Y-108860000D01*
X114736000Y-104015000D02*
X114736000Y-116585000D01*
X118776000Y-111740000D02*
X118776000Y-114448000D01*
X118816000Y-106198000D02*
X118816000Y-108860000D01*
X117536000Y-111740000D02*
X117536000Y-115543000D01*
X117896000Y-105318000D02*
X117896000Y-108860000D01*
X114575000Y-103998000D02*
X114575000Y-116602000D01*
X120136000Y-108717000D02*
X120136000Y-111883000D01*
X114335000Y-103980000D02*
X114335000Y-116620000D01*
X117816000Y-111740000D02*
X117816000Y-115343000D01*
X117176000Y-104832000D02*
X117176000Y-108860000D01*
X119896000Y-107988000D02*
X119896000Y-112612000D01*
X119336000Y-106898000D02*
X119336000Y-113702000D01*
X116336000Y-104423000D02*
X116336000Y-108860000D01*
X117696000Y-111740000D02*
X117696000Y-115431000D01*
X115896000Y-104266000D02*
X115896000Y-116334000D01*
X119776000Y-107706000D02*
X119776000Y-112894000D01*
X115856000Y-104253000D02*
X115856000Y-116347000D01*
X117576000Y-111740000D02*
X117576000Y-115516000D01*
X107782918Y-106100000D02*
X107782918Y-107350000D01*
X117696000Y-105169000D02*
X117696000Y-108860000D01*
X117656000Y-105140000D02*
X117656000Y-108860000D01*
X114535000Y-103994000D02*
X114535000Y-116606000D01*
X115616000Y-104184000D02*
X115616000Y-116416000D01*
X115736000Y-104217000D02*
X115736000Y-116383000D01*
X120016000Y-108316000D02*
X120016000Y-112284000D01*
X119976000Y-108200000D02*
X119976000Y-112400000D01*
X114776000Y-104020000D02*
X114776000Y-116580000D01*
X119496000Y-107160000D02*
X119496000Y-113440000D01*
X118096000Y-111740000D02*
X118096000Y-115119000D01*
X118896000Y-106293000D02*
X118896000Y-108860000D01*
X117016000Y-111740000D02*
X117016000Y-115858000D01*
X118696000Y-111740000D02*
X118696000Y-114538000D01*
X118376000Y-105733000D02*
X118376000Y-108860000D01*
X116216000Y-104376000D02*
X116216000Y-116224000D01*
X117496000Y-111740000D02*
X117496000Y-115570000D01*
X116696000Y-111740000D02*
X116696000Y-116021000D01*
X115136000Y-104076000D02*
X115136000Y-116524000D01*
X118456000Y-111740000D02*
X118456000Y-114789000D01*
X117256000Y-104879000D02*
X117256000Y-108860000D01*
X119856000Y-107890000D02*
X119856000Y-112710000D01*
X119416000Y-107025000D02*
X119416000Y-113575000D01*
X118856000Y-106245000D02*
X118856000Y-108860000D01*
X117336000Y-104928000D02*
X117336000Y-108860000D01*
X116736000Y-111740000D02*
X116736000Y-116002000D01*
X118616000Y-111740000D02*
X118616000Y-114625000D01*
X114015000Y-103970000D02*
X114015000Y-116630000D01*
X114976000Y-104048000D02*
X114976000Y-116552000D01*
X118296000Y-111740000D02*
X118296000Y-114942000D01*
X120336000Y-109983000D02*
X120336000Y-110617000D01*
X118136000Y-111740000D02*
X118136000Y-115085000D01*
X115416000Y-104134000D02*
X115416000Y-116466000D01*
X118616000Y-105975000D02*
X118616000Y-108860000D01*
X115936000Y-104279000D02*
X115936000Y-116321000D01*
X116616000Y-104542000D02*
X116616000Y-108860000D01*
X118376000Y-111740000D02*
X118376000Y-114867000D01*
X116296000Y-104407000D02*
X116296000Y-108860000D01*
X118936000Y-111740000D02*
X118936000Y-114257000D01*
X116576000Y-111740000D02*
X116576000Y-116076000D01*
X119176000Y-106660000D02*
X119176000Y-113940000D01*
X119656000Y-107456000D02*
X119656000Y-113144000D01*
X116616000Y-111740000D02*
X116616000Y-116058000D01*
X117376000Y-104953000D02*
X117376000Y-108860000D01*
X114455000Y-103988000D02*
X114455000Y-116612000D01*
X118016000Y-111740000D02*
X118016000Y-115185000D01*
X118576000Y-111740000D02*
X118576000Y-114667000D01*
X115656000Y-104195000D02*
X115656000Y-116405000D01*
X118056000Y-111740000D02*
X118056000Y-115152000D01*
X119616000Y-107379000D02*
X119616000Y-113221000D01*
X117176000Y-111740000D02*
X117176000Y-115768000D01*
X117416000Y-111740000D02*
X117416000Y-115622000D01*
X116856000Y-104658000D02*
X116856000Y-108860000D01*
X118056000Y-105448000D02*
X118056000Y-108860000D01*
X116656000Y-111740000D02*
X116656000Y-116039000D01*
X117656000Y-111740000D02*
X117656000Y-115460000D01*
X119136000Y-106604000D02*
X119136000Y-108860000D01*
X118496000Y-111740000D02*
X118496000Y-114749000D01*
X117416000Y-104978000D02*
X117416000Y-108860000D01*
X119096000Y-106550000D02*
X119096000Y-108860000D01*
X116096000Y-104333000D02*
X116096000Y-116267000D01*
X118656000Y-106018000D02*
X118656000Y-108860000D01*
X118416000Y-111740000D02*
X118416000Y-114828000D01*
X118296000Y-105658000D02*
X118296000Y-108860000D01*
X116336000Y-111740000D02*
X116336000Y-116177000D01*
X117216000Y-111740000D02*
X117216000Y-115745000D01*
X117016000Y-104742000D02*
X117016000Y-108860000D01*
X118336000Y-105695000D02*
X118336000Y-108860000D01*
X119696000Y-107536000D02*
X119696000Y-113064000D01*
X119056000Y-106496000D02*
X119056000Y-108860000D01*
X117136000Y-104809000D02*
X117136000Y-108860000D01*
X114175000Y-103973000D02*
X114175000Y-116627000D01*
X116696000Y-104579000D02*
X116696000Y-108860000D01*
X116136000Y-104347000D02*
X116136000Y-116253000D01*
X116736000Y-104598000D02*
X116736000Y-108860000D01*
X114936000Y-104042000D02*
X114936000Y-116558000D01*
X115096000Y-104069000D02*
X115096000Y-116531000D01*
X119056000Y-111740000D02*
X119056000Y-114104000D01*
X118576000Y-105933000D02*
X118576000Y-108860000D01*
X118696000Y-106062000D02*
X118696000Y-108860000D01*
X118976000Y-106393000D02*
X118976000Y-108860000D01*
X116976000Y-111740000D02*
X116976000Y-115880000D01*
X117296000Y-104903000D02*
X117296000Y-108860000D01*
X119376000Y-106961000D02*
X119376000Y-113639000D01*
X117976000Y-105382000D02*
X117976000Y-108860000D01*
X114856000Y-104031000D02*
X114856000Y-116569000D01*
X120296000Y-109543000D02*
X120296000Y-111057000D01*
X116576000Y-104524000D02*
X116576000Y-108860000D01*
X120345000Y-110300000D02*
G75*
G03*
X120345000Y-110300000I-6370000J0D01*
G01*
G04 #@! TO.C,R1*
X112776000Y-101068000D02*
X112776000Y-100298000D01*
D15*
X112776000Y-91948000D02*
X112776000Y-93878000D01*
D14*
X111406000Y-100298000D02*
X114146000Y-100298000D01*
X114146000Y-93758000D02*
X111406000Y-93758000D01*
D15*
X114026000Y-93878000D02*
X111526000Y-93878000D01*
D14*
X112776000Y-92988000D02*
X112776000Y-93758000D01*
D15*
X114026000Y-100178000D02*
X114026000Y-93878000D01*
D14*
X114146000Y-100298000D02*
X114146000Y-93758000D01*
D15*
X112776000Y-102108000D02*
X112776000Y-100178000D01*
X111526000Y-93878000D02*
X111526000Y-100178000D01*
D14*
X111406000Y-93758000D02*
X111406000Y-100298000D01*
D15*
X111526000Y-100178000D02*
X114026000Y-100178000D01*
D14*
G04 #@! TO.C,SW1*
X197090000Y-97950000D02*
X197090000Y-97440000D01*
X189890000Y-104450000D02*
X189890000Y-100550000D01*
X189890000Y-97950000D02*
X189890000Y-97440000D01*
X197090000Y-100780000D02*
X196550000Y-100780000D01*
X197090000Y-100780000D02*
X197090000Y-100550000D01*
X190410000Y-100780000D02*
X190410000Y-100550000D01*
X190410000Y-97440000D02*
X189890000Y-97440000D01*
X190410000Y-97950000D02*
X190410000Y-97440000D01*
X197610000Y-97440000D02*
X197090000Y-97440000D01*
X190950000Y-100780000D02*
X190410000Y-100780000D01*
X197610000Y-104450000D02*
X197610000Y-100550000D01*
X197610000Y-97950000D02*
X197610000Y-97440000D01*
X197610000Y-104450000D02*
X189890000Y-104450000D01*
X195450000Y-100780000D02*
X192050000Y-100780000D01*
G04 #@! TO.C,D3*
X179435000Y-96205000D02*
X179435000Y-99295000D01*
D15*
X179495000Y-96280306D02*
X179495000Y-99219694D01*
X179494984Y-99219666D02*
G75*
G03*
X179495000Y-96280306I2500016J1469666D01*
G01*
D14*
X184985000Y-97749538D02*
G75*
G02*
X179435000Y-99294830I-2990000J-462D01*
G01*
X184985000Y-97750462D02*
G75*
G03*
X179435000Y-96205170I-2990000J462D01*
G01*
D15*
X184495000Y-97750000D02*
G75*
G03*
X184495000Y-97750000I-2500000J0D01*
G01*
D14*
X184495000Y-97750000D02*
G75*
G03*
X184495000Y-97750000I-2500000J0D01*
G01*
G04 #@! TO.C,D1*
X183080000Y-70405000D02*
X183545000Y-70405000D01*
X180455000Y-70405000D02*
X180920000Y-70405000D01*
X183080827Y-65057185D02*
G75*
G02*
X183544830Y-70405000I-1080827J-2787815D01*
G01*
X183080429Y-65590521D02*
G75*
G02*
X183080000Y-70099684I-1080429J-2254479D01*
G01*
X180919571Y-65590521D02*
G75*
G03*
X180920000Y-70099684I1080429J-2254479D01*
G01*
X180919173Y-65057185D02*
G75*
G03*
X180455170Y-70405000I1080827J-2787815D01*
G01*
D16*
G04 #@! TO.C,JP2*
X145674640Y-110098520D02*
X145674640Y-112597880D01*
X145674640Y-88102120D02*
X125174300Y-88102120D01*
X145674640Y-110098520D02*
X125174300Y-110098520D01*
X125174300Y-88102120D02*
X125174300Y-90601480D01*
X145674640Y-90601480D02*
X145674640Y-88102120D01*
X145674640Y-112597880D02*
X125174300Y-112597880D01*
X145674640Y-90601480D02*
X125174300Y-90601480D01*
X125174300Y-112597880D02*
X125174300Y-110098520D01*
G04 #@! TD*
M02*
