M48
; DRILL file {KiCad 5.99.0-unknown-50e22de3ba~95~ubuntu20.04.1} date Thu Jan 21 20:42:27 2021
; FORMAT={2:4/ absolute / inch / suppress leading zeros}
; #@! TF.CreationDate,2021-01-21T20:42:27+09:00
; #@! TF.GenerationSoftware,Kicad,Pcbnew,5.99.0-unknown-50e22de3ba~95~ubuntu20.04.1
; #@! TF.FileFunction,Plated,1,2,PTH
FMAT,2
INCH,TZ
T1C0.0157
T2C0.0295
T3C0.0314
T4C0.0315
T5C0.0354
T6C0.0390
T7C0.0394
T8C0.0433
T9C0.0472
T10C0.0512
T11C0.0551
%
G90
G05
T1
X38295Y-27516
X42733Y-32922
X42869Y-27087
X43253Y-31949
X48049Y-31439
X48234Y-32079
X64748Y-33699
X65266Y-24154
X70049Y-18268
X71518Y-33135
T2
X71512Y-34744
X71512Y-35244
X71512Y-35744
T3
X49773Y-24046
X49773Y-32706
X49773Y-35178
X49773Y-43838
X50560Y-24046
X50560Y-32706
X50560Y-35178
X50560Y-43838
X51348Y-24046
X51348Y-32706
X51348Y-35178
X51348Y-43838
X52135Y-24046
X52135Y-32706
X52135Y-35178
X52135Y-43838
X52923Y-24046
X52923Y-32706
X52923Y-35178
X52923Y-43838
X53710Y-24046
X53710Y-32706
X53710Y-35178
X53710Y-43838
X54497Y-24046
X54497Y-32706
X54497Y-35178
X54497Y-43838
X55285Y-24046
X55285Y-32706
X55285Y-35178
X55285Y-43838
X56072Y-24046
X56072Y-32706
X56072Y-35178
X56072Y-43838
X56860Y-24046
X56860Y-32706
X56860Y-35178
X56860Y-43838
T4
X42700Y-25400
X42700Y-29400
X42750Y-30700
X42750Y-34700
X42900Y-36200
X42900Y-40200
X44344Y-30700
X44344Y-34700
X44356Y-25400
X44356Y-29400
X44400Y-36200
X44400Y-40200
X45950Y-25400
X45950Y-29400
X46000Y-30700
X46000Y-34700
X70669Y-32972
X72638Y-32972
T5
X71152Y-38484
X71654Y-25961
X71654Y-26461
X71654Y-26961
X71654Y-27461
X71654Y-29307
X71654Y-29807
X71654Y-30307
X71654Y-30807
X72152Y-38484
T6
X75394Y-40059
X77165Y-40059
T7
X67638Y-25965
X67638Y-30689
X67638Y-36476
X67638Y-41201
T8
X34303Y-25587
X34303Y-26587
X34303Y-27587
X34303Y-28587
X34303Y-29587
X34303Y-30587
X34303Y-31587
X34303Y-32587
X34303Y-33587
X34303Y-34587
X34303Y-35587
X34303Y-36587
X34303Y-37587
X34303Y-38587
X35303Y-35587
X35303Y-36587
X35303Y-38587
X36303Y-35587
X36303Y-36587
X36303Y-38587
X37303Y-35587
X37303Y-36587
X37303Y-38587
X38303Y-35587
X38303Y-36587
X38303Y-38587
X39303Y-26587
X39303Y-35587
X39303Y-36587
X39303Y-38587
X40303Y-25587
X40303Y-26587
X40303Y-27587
X40303Y-28587
X40303Y-29587
X40303Y-30587
X40303Y-31587
X40303Y-32587
X40303Y-33587
X40303Y-34587
X40303Y-35587
X40303Y-36587
X40303Y-37587
X40303Y-38587
X65333Y-33130
X66333Y-33130
X67333Y-33130
T9
X37923Y-43209
X40876Y-43209
X43396Y-43425
X46348Y-43425
X60417Y-24114
X66417Y-24114
T10
X59948Y-32465
X59948Y-34433
X61917Y-33449
X62815Y-30709
X62815Y-41220
X62835Y-25965
X62835Y-36476
X68406Y-28346
X68406Y-38858
X74898Y-39079
X77657Y-39079
T11
X76476Y-27657
X76476Y-29626
X76476Y-31594
X76476Y-33563
X76476Y-35531
T0
M30
