G04 #@! TF.GenerationSoftware,KiCad,Pcbnew,5.99.0-unknown-50e22de3ba~95~ubuntu20.04.1*
G04 #@! TF.CreationDate,2021-01-21T20:42:25+09:00*
G04 #@! TF.ProjectId,Hyperwiper 2020 production prototype,48797065-7277-4697-9065-722032303230,rev?*
G04 #@! TF.SameCoordinates,Original*
G04 #@! TF.FileFunction,Legend,Bot*
G04 #@! TF.FilePolarity,Positive*
%FSLAX46Y46*%
G04 Gerber Fmt 4.6, Leading zero omitted, Abs format (unit mm)*
G04 Created by KiCad (PCBNEW 5.99.0-unknown-50e22de3ba~95~ubuntu20.04.1) date 2021-01-21 20:42:25*
%MOMM*%
%LPD*%
G01*
G04 APERTURE LIST*
%ADD10C,0.300000*%
%ADD11C,0.150000*%
%ADD12C,0.120000*%
G04 APERTURE END LIST*
D10*
X185596428Y-112146071D02*
X185596428Y-110646071D01*
X185596428Y-111360357D02*
X184739285Y-111360357D01*
X184739285Y-112146071D02*
X184739285Y-110646071D01*
X184167857Y-111146071D02*
X183810714Y-112146071D01*
X183453571Y-111146071D02*
X183810714Y-112146071D01*
X183953571Y-112503214D01*
X184025000Y-112574642D01*
X184167857Y-112646071D01*
X182882142Y-111146071D02*
X182882142Y-112646071D01*
X182882142Y-111217500D02*
X182739285Y-111146071D01*
X182453571Y-111146071D01*
X182310714Y-111217500D01*
X182239285Y-111288928D01*
X182167857Y-111431785D01*
X182167857Y-111860357D01*
X182239285Y-112003214D01*
X182310714Y-112074642D01*
X182453571Y-112146071D01*
X182739285Y-112146071D01*
X182882142Y-112074642D01*
X180953571Y-112074642D02*
X181096428Y-112146071D01*
X181382142Y-112146071D01*
X181525000Y-112074642D01*
X181596428Y-111931785D01*
X181596428Y-111360357D01*
X181525000Y-111217500D01*
X181382142Y-111146071D01*
X181096428Y-111146071D01*
X180953571Y-111217500D01*
X180882142Y-111360357D01*
X180882142Y-111503214D01*
X181596428Y-111646071D01*
X180239285Y-112146071D02*
X180239285Y-111146071D01*
X180239285Y-111431785D02*
X180167857Y-111288928D01*
X180096428Y-111217500D01*
X179953571Y-111146071D01*
X179810714Y-111146071D01*
X179453571Y-110646071D02*
X179096428Y-112146071D01*
X178810714Y-111074642D01*
X178525000Y-112146071D01*
X178167857Y-110646071D01*
X177596428Y-112146071D02*
X177596428Y-111146071D01*
X177596428Y-110646071D02*
X177667857Y-110717500D01*
X177596428Y-110788928D01*
X177525000Y-110717500D01*
X177596428Y-110646071D01*
X177596428Y-110788928D01*
X176882142Y-111146071D02*
X176882142Y-112646071D01*
X176882142Y-111217500D02*
X176739285Y-111146071D01*
X176453571Y-111146071D01*
X176310714Y-111217500D01*
X176239285Y-111288928D01*
X176167857Y-111431785D01*
X176167857Y-111860357D01*
X176239285Y-112003214D01*
X176310714Y-112074642D01*
X176453571Y-112146071D01*
X176739285Y-112146071D01*
X176882142Y-112074642D01*
X174953571Y-112074642D02*
X175096428Y-112146071D01*
X175382142Y-112146071D01*
X175525000Y-112074642D01*
X175596428Y-111931785D01*
X175596428Y-111360357D01*
X175525000Y-111217500D01*
X175382142Y-111146071D01*
X175096428Y-111146071D01*
X174953571Y-111217500D01*
X174882142Y-111360357D01*
X174882142Y-111503214D01*
X175596428Y-111646071D01*
X174239285Y-112146071D02*
X174239285Y-111146071D01*
X174239285Y-111431785D02*
X174167857Y-111288928D01*
X174096428Y-111217500D01*
X173953571Y-111146071D01*
X173810714Y-111146071D01*
X173310714Y-112146071D02*
X173310714Y-110646071D01*
X172739285Y-110646071D01*
X172596428Y-110717500D01*
X172525000Y-110788928D01*
X172453571Y-110931785D01*
X172453571Y-111146071D01*
X172525000Y-111288928D01*
X172596428Y-111360357D01*
X172739285Y-111431785D01*
X173310714Y-111431785D01*
X171810714Y-112146071D02*
X171810714Y-111146071D01*
X171810714Y-111431785D02*
X171739285Y-111288928D01*
X171667857Y-111217500D01*
X171525000Y-111146071D01*
X171382142Y-111146071D01*
X170667857Y-112146071D02*
X170810714Y-112074642D01*
X170882142Y-112003214D01*
X170953571Y-111860357D01*
X170953571Y-111431785D01*
X170882142Y-111288928D01*
X170810714Y-111217500D01*
X170667857Y-111146071D01*
X170453571Y-111146071D01*
X170310714Y-111217500D01*
X170239285Y-111288928D01*
X170167857Y-111431785D01*
X170167857Y-111860357D01*
X170239285Y-112003214D01*
X170310714Y-112074642D01*
X170453571Y-112146071D01*
X170667857Y-112146071D01*
X169739285Y-111146071D02*
X169167857Y-111146071D01*
X169525000Y-110646071D02*
X169525000Y-111931785D01*
X169453571Y-112074642D01*
X169310714Y-112146071D01*
X169167857Y-112146071D01*
X168453571Y-112146071D02*
X168596428Y-112074642D01*
X168667857Y-112003214D01*
X168739285Y-111860357D01*
X168739285Y-111431785D01*
X168667857Y-111288928D01*
X168596428Y-111217500D01*
X168453571Y-111146071D01*
X168239285Y-111146071D01*
X168096428Y-111217500D01*
X168025000Y-111288928D01*
X167953571Y-111431785D01*
X167953571Y-111860357D01*
X168025000Y-112003214D01*
X168096428Y-112074642D01*
X168239285Y-112146071D01*
X168453571Y-112146071D01*
X167525000Y-111146071D02*
X166953571Y-111146071D01*
X167310714Y-110646071D02*
X167310714Y-111931785D01*
X167239285Y-112074642D01*
X167096428Y-112146071D01*
X166953571Y-112146071D01*
X166596428Y-111146071D02*
X166239285Y-112146071D01*
X165882142Y-111146071D02*
X166239285Y-112146071D01*
X166382142Y-112503214D01*
X166453571Y-112574642D01*
X166596428Y-112646071D01*
X165310714Y-111146071D02*
X165310714Y-112646071D01*
X165310714Y-111217500D02*
X165167857Y-111146071D01*
X164882142Y-111146071D01*
X164739285Y-111217500D01*
X164667857Y-111288928D01*
X164596428Y-111431785D01*
X164596428Y-111860357D01*
X164667857Y-112003214D01*
X164739285Y-112074642D01*
X164882142Y-112146071D01*
X165167857Y-112146071D01*
X165310714Y-112074642D01*
X163382142Y-112074642D02*
X163525000Y-112146071D01*
X163810714Y-112146071D01*
X163953571Y-112074642D01*
X164025000Y-111931785D01*
X164025000Y-111360357D01*
X163953571Y-111217500D01*
X163810714Y-111146071D01*
X163525000Y-111146071D01*
X163382142Y-111217500D01*
X163310714Y-111360357D01*
X163310714Y-111503214D01*
X164025000Y-111646071D01*
X159453571Y-110646071D02*
X158953571Y-112146071D01*
X158453571Y-110646071D01*
X158025000Y-110788928D02*
X157953571Y-110717500D01*
X157810714Y-110646071D01*
X157453571Y-110646071D01*
X157310714Y-110717500D01*
X157239285Y-110788928D01*
X157167857Y-110931785D01*
X157167857Y-111074642D01*
X157239285Y-111288928D01*
X158096428Y-112146071D01*
X157167857Y-112146071D01*
X156525000Y-112003214D02*
X156453571Y-112074642D01*
X156525000Y-112146071D01*
X156596428Y-112074642D01*
X156525000Y-112003214D01*
X156525000Y-112146071D01*
X155025000Y-112146071D02*
X155882142Y-112146071D01*
X155453571Y-112146071D02*
X155453571Y-110646071D01*
X155596428Y-110860357D01*
X155739285Y-111003214D01*
X155882142Y-111074642D01*
X154382142Y-112003214D02*
X154310714Y-112074642D01*
X154382142Y-112146071D01*
X154453571Y-112074642D01*
X154382142Y-112003214D01*
X154382142Y-112146071D01*
X153382142Y-110646071D02*
X153239285Y-110646071D01*
X153096428Y-110717500D01*
X153025000Y-110788928D01*
X152953571Y-110931785D01*
X152882142Y-111217500D01*
X152882142Y-111574642D01*
X152953571Y-111860357D01*
X153025000Y-112003214D01*
X153096428Y-112074642D01*
X153239285Y-112146071D01*
X153382142Y-112146071D01*
X153525000Y-112074642D01*
X153596428Y-112003214D01*
X153667857Y-111860357D01*
X153739285Y-111574642D01*
X153739285Y-111217500D01*
X153667857Y-110931785D01*
X153596428Y-110788928D01*
X153525000Y-110717500D01*
X153382142Y-110646071D01*
D11*
G04 #@! TO.C,RV1*
X155363238Y-91812380D02*
X155696571Y-91336190D01*
X155934666Y-91812380D02*
X155934666Y-90812380D01*
X155553714Y-90812380D01*
X155458476Y-90860000D01*
X155410857Y-90907619D01*
X155363238Y-91002857D01*
X155363238Y-91145714D01*
X155410857Y-91240952D01*
X155458476Y-91288571D01*
X155553714Y-91336190D01*
X155934666Y-91336190D01*
X155077523Y-90812380D02*
X154744190Y-91812380D01*
X154410857Y-90812380D01*
X153553714Y-91812380D02*
X154125142Y-91812380D01*
X153839428Y-91812380D02*
X153839428Y-90812380D01*
X153934666Y-90955238D01*
X154029904Y-91050476D01*
X154125142Y-91098095D01*
X157428714Y-78899285D02*
X157678714Y-78542142D01*
X157857285Y-78899285D02*
X157857285Y-78149285D01*
X157571571Y-78149285D01*
X157500142Y-78185000D01*
X157464428Y-78220714D01*
X157428714Y-78292142D01*
X157428714Y-78399285D01*
X157464428Y-78470714D01*
X157500142Y-78506428D01*
X157571571Y-78542142D01*
X157857285Y-78542142D01*
X157285857Y-78970714D02*
X156714428Y-78970714D01*
X156535857Y-78899285D02*
X156535857Y-78149285D01*
X156250142Y-78149285D01*
X156178714Y-78185000D01*
X156143000Y-78220714D01*
X156107285Y-78292142D01*
X156107285Y-78399285D01*
X156143000Y-78470714D01*
X156178714Y-78506428D01*
X156250142Y-78542142D01*
X156535857Y-78542142D01*
X155643000Y-78149285D02*
X155500142Y-78149285D01*
X155428714Y-78185000D01*
X155357285Y-78256428D01*
X155321571Y-78399285D01*
X155321571Y-78649285D01*
X155357285Y-78792142D01*
X155428714Y-78863571D01*
X155500142Y-78899285D01*
X155643000Y-78899285D01*
X155714428Y-78863571D01*
X155785857Y-78792142D01*
X155821571Y-78649285D01*
X155821571Y-78399285D01*
X155785857Y-78256428D01*
X155714428Y-78185000D01*
X155643000Y-78149285D01*
X155107285Y-78149285D02*
X154678714Y-78149285D01*
X154893000Y-78899285D02*
X154893000Y-78149285D01*
X154607285Y-78970714D02*
X154035857Y-78970714D01*
X153964428Y-78149285D02*
X153535857Y-78149285D01*
X153750142Y-78899285D02*
X153750142Y-78149285D01*
X152857285Y-78899285D02*
X153107285Y-78542142D01*
X153285857Y-78899285D02*
X153285857Y-78149285D01*
X153000142Y-78149285D01*
X152928714Y-78185000D01*
X152893000Y-78220714D01*
X152857285Y-78292142D01*
X152857285Y-78399285D01*
X152893000Y-78470714D01*
X152928714Y-78506428D01*
X153000142Y-78542142D01*
X153285857Y-78542142D01*
X152535857Y-78899285D02*
X152535857Y-78149285D01*
X152178714Y-78899285D02*
X152178714Y-78149285D01*
X151928714Y-78685000D01*
X151678714Y-78149285D01*
X151678714Y-78899285D01*
D12*
X160039000Y-84960000D02*
G75*
G03*
X160039000Y-84960000I-5270000J0D01*
G01*
G04 #@! TD*
M02*
