G04 #@! TF.GenerationSoftware,KiCad,Pcbnew,5.99.0-unknown-50e22de3ba~95~ubuntu20.04.1*
G04 #@! TF.CreationDate,2021-01-21T20:42:25+09:00*
G04 #@! TF.ProjectId,Hyperwiper 2020 production prototype,48797065-7277-4697-9065-722032303230,rev?*
G04 #@! TF.SameCoordinates,Original*
G04 #@! TF.FileFunction,Profile,NP*
%FSLAX46Y46*%
G04 Gerber Fmt 4.6, Leading zero omitted, Abs format (unit mm)*
G04 Created by KiCad (PCBNEW 5.99.0-unknown-50e22de3ba~95~ubuntu20.04.1) date 2021-01-21 20:42:25*
%MOMM*%
%LPD*%
G01*
G04 APERTURE LIST*
G04 #@! TA.AperFunction,Profile*
%ADD10C,0.500000*%
G04 #@! TD*
G04 APERTURE END LIST*
D10*
X75000000Y-111250000D02*
X75000000Y-59000000D01*
X83750000Y-52250000D02*
X192000000Y-52250000D01*
X192250000Y-108250000D02*
X192250000Y-118000000D01*
X192250000Y-118000000D02*
X83500000Y-118000000D01*
X91570027Y-115320027D02*
G75*
G03*
X91570027Y-115320027I-1820027J0D01*
G01*
X198750000Y-65000000D02*
X198750000Y-105500000D01*
X198750000Y-105500000D02*
X195000000Y-105500000D01*
X80500000Y-111250000D02*
G75*
G02*
X83500000Y-114250000I0J-3000000D01*
G01*
X195000000Y-65000000D02*
X198750000Y-65000000D01*
X187570027Y-115320027D02*
G75*
G03*
X187570027Y-115320027I-1820027J0D01*
G01*
X150570027Y-55250000D02*
G75*
G03*
X150570027Y-55250000I-1820027J0D01*
G01*
X91570027Y-55250000D02*
G75*
G03*
X91570027Y-55250000I-1820027J0D01*
G01*
X150570027Y-115320027D02*
G75*
G03*
X150570027Y-115320027I-1820027J0D01*
G01*
X192250000Y-108250000D02*
G75*
G02*
X195000000Y-105500000I2750000J0D01*
G01*
X192000000Y-52250000D02*
X192000000Y-62000000D01*
X83500000Y-118000000D02*
X83500000Y-114250000D01*
X80500000Y-111250000D02*
X75000000Y-111250000D01*
X80000000Y-59000000D02*
G75*
G03*
X83750000Y-55250000I0J3750000D01*
G01*
X156120027Y-85000000D02*
G75*
G03*
X156120027Y-85000000I-1820027J0D01*
G01*
X187570027Y-55250000D02*
G75*
G03*
X187570027Y-55250000I-1820027J0D01*
G01*
X75000000Y-59000000D02*
X80000000Y-59000000D01*
X192000000Y-62000000D02*
G75*
G03*
X195000000Y-65000000I3000000J0D01*
G01*
X83750000Y-55250000D02*
X83750000Y-52250000D01*
M02*
