<?xml version="1.0" encoding="UTF-8" standalone="no"?>
<svg
   xmlns:dc="http://purl.org/dc/elements/1.1/"
   xmlns:cc="http://creativecommons.org/ns#"
   xmlns:rdf="http://www.w3.org/1999/02/22-rdf-syntax-ns#"
   xmlns:svg="http://www.w3.org/2000/svg"
   xmlns="http://www.w3.org/2000/svg"
   xmlns:sodipodi="http://sodipodi.sourceforge.net/DTD/sodipodi-0.dtd"
   xmlns:inkscape="http://www.inkscape.org/namespaces/inkscape"
   width="172.856mm"
   height="68.721mm"
   viewBox="6.243893 -72.000000 172.856033 68.721031"
   version="1.1"
   id="svg4671"
   sodipodi:docname="Hyperwiper modified lift for wiper.svg"
   inkscape:version="1.0.1 (3bc2e81, 2020-09-07)">
  <metadata
     id="metadata4677">
    <rdf:RDF>
      <cc:Work
         rdf:about="">
        <dc:format>image/svg+xml</dc:format>
        <dc:type
           rdf:resource="http://purl.org/dc/dcmitype/StillImage" />
      </cc:Work>
    </rdf:RDF>
  </metadata>
  <defs
     id="defs4675" />
  <sodipodi:namedview
     pagecolor="#ffffff"
     bordercolor="#666666"
     borderopacity="1"
     objecttolerance="10"
     gridtolerance="10"
     guidetolerance="10"
     inkscape:pageopacity="0"
     inkscape:pageshadow="2"
     inkscape:window-width="1920"
     inkscape:window-height="1142"
     id="namedview4673"
     showgrid="false"
     inkscape:zoom="1.9469963"
     inkscape:cx="326.65701"
     inkscape:cy="150.41092"
     inkscape:window-x="0"
     inkscape:window-y="32"
     inkscape:window-maximized="1"
     inkscape:current-layer="svg4671" />
  <path
     transform="matrix(1.786046,0,0,-1.68883,12.332163,2.741043)"
     style="stroke:#a0a000;stroke-width:0.05mm;fill:none"
     d="M5.0026,12.9152L5.00179,12.86619L4.999112,12.816151L4.994486,12.765203L4.987831,12.713483L4.979066,12.661107L4.968112,12.60821L4.954889,12.554911L4.939316,12.501339L4.921311,12.447617L4.900796,12.393875L4.877689,12.340239L4.851911,12.286829L4.823649,12.233873L4.792698,12.181643L4.758994,12.130305L4.722628,12.08003L4.683695,12.030998L4.642286,11.983385L4.598494,11.937364L4.55241,11.893113L4.504128,11.850811L4.453739,11.81063L4.401336,11.77275L4.347011,11.737345L4.290956,11.704451L4.233572,11.674135L4.174937,11.646726L4.115252,11.622211L4.054714,11.600585L3.993523,11.58184L3.93188,11.565968L3.869982,11.552958L3.80803,11.542807L3.746221,11.535502L3.684756,11.531038L3.623834,11.529407L3.563653,11.5306L3.504137,11.534142L3.445739,11.540154L3.388525,11.548505L3.332565,11.559067L3.277926,11.571701L3.224677,11.586277L3.172887,11.602666L3.122622,11.620731L3.073953,11.640346L3.026946,11.661374L2.981671,11.683684L2.938194,11.707145L2.896081,11.731773L2.854042,11.758408L2.812149,11.787178L2.77055,11.818091L2.729393,11.851151L2.688826,11.886369L2.648999,11.923751L2.610061,11.963303L2.572159,12.005033L2.535442,12.048951L2.50006,12.095062L2.466159,12.143373L2.43386,12.193736L2.403425,12.245949L2.375098,12.300163L2.348985,12.356209L2.325195,12.413917L2.303833,12.473116L2.285007,12.533642L2.268824,12.595327L2.25539,12.658002L2.244813,12.721493L2.237199,12.785637L2.232656,12.850266L2.23129,12.915209L2.232657,12.980148L2.237201,13.044777L2.244815,13.108924L2.255393,13.17242L2.268827,13.235095L2.285011,13.296782L2.303837,13.357316L2.3252,13.416527L2.348991,13.474245L2.375104,13.530302L2.403432,13.584533L2.433868,13.636766L2.466166,13.687124L2.500067,13.735417L2.535449,13.781515L2.572165,13.825426L2.610066,13.867154L2.649005,13.906704L2.688831,13.944084L2.729396,13.979301L2.770552,14.012359L2.812151,14.043264L2.854044,14.072023L2.896081,14.098641L2.938194,14.123255L2.98167,14.146717L3.026946,14.169028L3.073953,14.190058L3.122623,14.209673L3.172887,14.227742L3.224677,14.244135L3.277926,14.258722L3.332564,14.271365L3.388524,14.281937L3.445738,14.290305L3.504137,14.296335L3.563653,14.299899L3.623834,14.301071L3.684757,14.299421L3.746222,14.294943L3.808029,14.287626L3.869982,14.277464L3.93188,14.264449L3.993523,14.248569L4.054713,14.22982L4.115251,14.208193L4.174938,14.183678L4.233572,14.156265L4.290956,14.12595L4.347011,14.093071L4.401336,14.057683L4.453739,14.019811L4.504128,13.979636L4.55241,13.937335L4.598494,13.893086L4.642286,13.847066L4.683696,13.799452L4.722629,13.750422L4.758994,13.700155L4.792699,13.648825L4.823651,13.596613L4.851911,13.543662L4.877689,13.490237L4.900796,13.436588L4.921311,13.382837L4.939315,13.329114L4.954889,13.275541L4.968112,13.22224L4.979066,13.16934L4.987831,13.116966L4.994486,13.06524L4.999112,13.014286L5.00179,12.964231L5.0026,12.9152z"
     id="path4317" />
  <path
     transform="matrix(1,0,0,-1,-21.57626,60.913399)"
     style="stroke:#a0a000;stroke-width:0.05mm;fill:none"
     d="M38.976002,89.952003C33.481453,89.383286,29.485933,84.47123,30.048,78.975998C30.577904,73.87664,34.873192,70.002586,40,70L40,69.968002L134.741638,69.968002L134.741638,90L40,90C39.658245,89.994644,39.316769,89.978638,38.976002,89.952003z"
     id="path4319" />
</svg>
